<svg width="101" height="69" viewBox="0 0 101 69" fill="none" xmlns="http://www.w3.org/2000/svg">
<rect x="0.83252" y="0.484375" width="99.851" height="68.2315" rx="4.99255" fill="white"/>
<path d="M78.2912 21.2904V21.6236L76.3593 25.9553H75.7345L77.6633 21.7774H75.1386V21.2904H78.2912ZM79.5568 25.4587H79.6177C79.9594 25.4587 80.2371 25.4107 80.4507 25.3145C80.6643 25.2184 80.8287 25.0892 80.9441 24.9269C81.0594 24.7645 81.1385 24.5819 81.1812 24.379C81.2239 24.1739 81.2453 23.9635 81.2453 23.7478V23.0333C81.2453 22.8219 81.2207 22.6339 81.1716 22.4695C81.1246 22.305 81.0584 22.1672 80.9729 22.0561C80.8896 21.9451 80.7946 21.8607 80.6878 21.803C80.581 21.7454 80.4678 21.7165 80.3482 21.7165C80.2115 21.7165 80.0886 21.7443 79.9797 21.7998C79.8729 21.8532 79.7821 21.9291 79.7074 22.0273C79.6348 22.1256 79.5792 22.2409 79.5408 22.3733C79.5023 22.5058 79.4831 22.6499 79.4831 22.8059C79.4831 22.9447 79.5002 23.0793 79.5344 23.2096C79.5685 23.3399 79.6209 23.4573 79.6914 23.562C79.7618 23.6667 79.8494 23.75 79.9541 23.8119C80.0609 23.8717 80.1858 23.9016 80.3289 23.9016C80.4614 23.9016 80.5852 23.876 80.7006 23.8247C80.8181 23.7713 80.9217 23.6998 81.0114 23.6101C81.1032 23.5182 81.1758 23.4146 81.2292 23.2993C81.2848 23.1839 81.3168 23.0632 81.3254 22.9372H81.6073C81.6073 23.1145 81.5721 23.2897 81.5016 23.4627C81.4332 23.6335 81.3371 23.7895 81.2132 23.9304C81.0893 24.0714 80.9441 24.1846 80.7775 24.2701C80.6109 24.3534 80.4293 24.395 80.2328 24.395C80.0021 24.395 79.8024 24.3502 79.6337 24.2604C79.4649 24.1707 79.3261 24.0511 79.2172 23.9016C79.1104 23.7521 79.0303 23.5855 78.9769 23.4018C78.9256 23.216 78.9 23.028 78.9 22.8379C78.9 22.6158 78.931 22.4075 78.9929 22.2131C79.0548 22.0188 79.1467 21.8479 79.2684 21.7005C79.3902 21.551 79.5408 21.4346 79.7202 21.3513C79.9017 21.268 80.1111 21.2263 80.3482 21.2263C80.6152 21.2263 80.8426 21.2797 81.0306 21.3865C81.2186 21.4933 81.3713 21.6364 81.4888 21.8159C81.6084 21.9953 81.6959 22.1971 81.7515 22.4214C81.807 22.6457 81.8348 22.8764 81.8348 23.1134V23.3281C81.8348 23.5695 81.8188 23.8151 81.7867 24.065C81.7568 24.3128 81.6981 24.5499 81.6105 24.7763C81.5251 25.0027 81.4001 25.2056 81.2356 25.385C81.0712 25.5623 80.8565 25.7033 80.5917 25.8079C80.3289 25.9105 80.0043 25.9617 79.6177 25.9617H79.5568V25.4587ZM82.6069 22.4342V22.1875C82.6069 22.0102 82.6454 21.849 82.7223 21.7037C82.7992 21.5585 82.9092 21.4421 83.0523 21.3545C83.1954 21.2669 83.3652 21.2231 83.5617 21.2231C83.7625 21.2231 83.9333 21.2669 84.0743 21.3545C84.2174 21.4421 84.3274 21.5585 84.4043 21.7037C84.4812 21.849 84.5197 22.0102 84.5197 22.1875V22.4342C84.5197 22.6072 84.4812 22.7664 84.4043 22.9116C84.3296 23.0568 84.2206 23.1732 84.0775 23.2608C83.9366 23.3484 83.7667 23.3922 83.5681 23.3922C83.3695 23.3922 83.1975 23.3484 83.0523 23.2608C82.9092 23.1732 82.7992 23.0568 82.7223 22.9116C82.6454 22.7664 82.6069 22.6072 82.6069 22.4342ZM83.0523 22.1875V22.4342C83.0523 22.5325 83.0704 22.6254 83.1067 22.713C83.1452 22.8005 83.2029 22.8721 83.2797 22.9276C83.3566 22.981 83.4528 23.0077 83.5681 23.0077C83.6834 23.0077 83.7785 22.981 83.8532 22.9276C83.928 22.8721 83.9835 22.8005 84.0199 22.713C84.0562 22.6254 84.0743 22.5325 84.0743 22.4342V22.1875C84.0743 22.0871 84.0551 21.9931 84.0166 21.9056C83.9803 21.8159 83.9237 21.7443 83.8468 21.6909C83.7721 21.6354 83.677 21.6076 83.5617 21.6076C83.4485 21.6076 83.3534 21.6354 83.2765 21.6909C83.2018 21.7443 83.1452 21.8159 83.1067 21.9056C83.0704 21.9931 83.0523 22.0871 83.0523 22.1875ZM84.8785 25.0614V24.8115C84.8785 24.6364 84.917 24.4762 84.9938 24.3309C85.0707 24.1857 85.1807 24.0693 85.3239 23.9817C85.467 23.8941 85.6368 23.8503 85.8333 23.8503C86.0341 23.8503 86.2049 23.8941 86.3459 23.9817C86.489 24.0693 86.599 24.1857 86.6759 24.3309C86.7528 24.4762 86.7912 24.6364 86.7912 24.8115V25.0614C86.7912 25.2366 86.7528 25.3968 86.6759 25.542C86.6011 25.6873 86.4922 25.8037 86.3491 25.8912C86.2081 25.9788 86.0383 26.0226 85.8397 26.0226C85.641 26.0226 85.4702 25.9788 85.3271 25.8912C85.1839 25.8037 85.0729 25.6873 84.9938 25.542C84.917 25.3968 84.8785 25.2366 84.8785 25.0614ZM85.3239 24.8115V25.0614C85.3239 25.1597 85.342 25.2537 85.3783 25.3434C85.4168 25.4309 85.4744 25.5025 85.5513 25.558C85.6282 25.6114 85.7243 25.6381 85.8397 25.6381C85.955 25.6381 86.0501 25.6114 86.1248 25.558C86.2017 25.5025 86.2583 25.4309 86.2946 25.3434C86.331 25.2558 86.3491 25.1618 86.3491 25.0614V24.8115C86.3491 24.7111 86.3299 24.6172 86.2914 24.5296C86.2551 24.442 86.1985 24.3715 86.1216 24.3181C86.0469 24.2626 85.9508 24.2348 85.8333 24.2348C85.7201 24.2348 85.625 24.2626 85.5481 24.3181C85.4734 24.3715 85.4168 24.442 85.3783 24.5296C85.342 24.6172 85.3239 24.7111 85.3239 24.8115ZM85.9807 21.9536L83.7027 25.5997L83.3695 25.3882L85.6474 21.7422L85.9807 21.9536Z" fill="#0088F0"/>
<path d="M75.7649 30.0032V29.9696C75.7649 29.8555 75.7815 29.7497 75.8147 29.6522C75.8478 29.5537 75.8956 29.4684 75.958 29.3962C76.0204 29.3231 76.096 29.2665 76.1847 29.2266C76.2735 29.1856 76.3729 29.1651 76.4831 29.1651C76.5943 29.1651 76.6942 29.1856 76.7829 29.2266C76.8727 29.2665 76.9487 29.3231 77.0111 29.3962C77.0745 29.4684 77.1228 29.5537 77.1559 29.6522C77.1891 29.7497 77.2057 29.8555 77.2057 29.9696V30.0032C77.2057 30.1173 77.1891 30.2231 77.1559 30.3206C77.1228 30.4181 77.0745 30.5035 77.0111 30.5766C76.9487 30.6488 76.8731 30.7053 76.7844 30.7463C76.6967 30.7862 76.5972 30.8062 76.486 30.8062C76.3749 30.8062 76.2749 30.7862 76.1862 30.7463C76.0974 30.7053 76.0214 30.6488 75.958 30.5766C75.8956 30.5035 75.8478 30.4181 75.8147 30.3206C75.7815 30.2231 75.7649 30.1173 75.7649 30.0032ZM76.0355 29.9696V30.0032C76.0355 30.0822 76.0448 30.1568 76.0633 30.227C76.0818 30.2962 76.1096 30.3577 76.1467 30.4113C76.1847 30.4649 76.232 30.5074 76.2886 30.5386C76.3451 30.5688 76.4109 30.5839 76.486 30.5839C76.5601 30.5839 76.625 30.5688 76.6806 30.5386C76.7371 30.5074 76.7839 30.4649 76.821 30.4113C76.858 30.3577 76.8858 30.2962 76.9043 30.227C76.9239 30.1568 76.9336 30.0822 76.9336 30.0032V29.9696C76.9336 29.8916 76.9239 29.818 76.9043 29.7487C76.8858 29.6785 76.8575 29.6166 76.8195 29.563C76.7825 29.5084 76.7357 29.4655 76.6791 29.4343C76.6235 29.4031 76.5582 29.3874 76.4831 29.3874C76.409 29.3874 76.3437 29.4031 76.2871 29.4343C76.2315 29.4655 76.1847 29.5084 76.1467 29.563C76.1096 29.6166 76.0818 29.6785 76.0633 29.7487C76.0448 29.818 76.0355 29.8916 76.0355 29.9696ZM77.8156 29.4986V31.3854H77.5435V29.1944H77.7922L77.8156 29.4986ZM78.8819 29.9725V30.0032C78.8819 30.1183 78.8682 30.2251 78.8409 30.3236C78.8136 30.4211 78.7736 30.5059 78.721 30.5781C78.6693 30.6502 78.6054 30.7063 78.5294 30.7463C78.4533 30.7862 78.366 30.8062 78.2675 30.8062C78.1671 30.8062 78.0784 30.7897 78.0013 30.7565C77.9243 30.7233 77.859 30.6751 77.8053 30.6117C77.7517 30.5483 77.7088 30.4723 77.6766 30.3835C77.6454 30.2948 77.624 30.1948 77.6123 30.0837V29.9199C77.624 29.8028 77.6459 29.698 77.6781 29.6054C77.7103 29.5128 77.7527 29.4338 77.8053 29.3684C77.859 29.3021 77.9238 29.2519 77.9999 29.2178C78.0759 29.1827 78.1637 29.1651 78.2632 29.1651C78.3626 29.1651 78.4509 29.1846 78.5279 29.2236C78.6049 29.2617 78.6698 29.3163 78.7224 29.3874C78.7751 29.4586 78.8146 29.544 78.8409 29.6434C78.8682 29.7419 78.8819 29.8516 78.8819 29.9725ZM78.6098 30.0032V29.9725C78.6098 29.8935 78.6015 29.8194 78.5849 29.7502C78.5684 29.68 78.5425 29.6186 78.5074 29.5659C78.4733 29.5123 78.4294 29.4703 78.3758 29.4401C78.3222 29.4089 78.2583 29.3933 78.1842 29.3933C78.1159 29.3933 78.0564 29.405 78.0057 29.4284C77.956 29.4518 77.9136 29.4835 77.8785 29.5235C77.8434 29.5625 77.8146 29.6073 77.7922 29.658C77.7707 29.7078 77.7546 29.7595 77.7439 29.8131V30.1919C77.7634 30.2602 77.7907 30.3245 77.8258 30.385C77.8609 30.4445 77.9077 30.4927 77.9662 30.5298C78.0247 30.5659 78.0984 30.5839 78.1871 30.5839C78.2602 30.5839 78.3231 30.5688 78.3758 30.5386C78.4294 30.5074 78.4733 30.4649 78.5074 30.4113C78.5425 30.3577 78.5684 30.2962 78.5849 30.227C78.6015 30.1568 78.6098 30.0822 78.6098 30.0032ZM79.8896 29.1944V29.4021H79.034V29.1944H79.8896ZM79.3236 28.8097H79.5942V30.385C79.5942 30.4386 79.6025 30.4791 79.619 30.5064C79.6356 30.5337 79.6571 30.5517 79.6834 30.5605C79.7097 30.5693 79.738 30.5737 79.7682 30.5737C79.7907 30.5737 79.8141 30.5717 79.8384 30.5678C79.8638 30.5629 79.8828 30.559 79.8955 30.5561L79.897 30.777C79.8755 30.7838 79.8472 30.7901 79.8121 30.796C79.778 30.8028 79.7365 30.8062 79.6878 30.8062C79.6215 30.8062 79.5605 30.7931 79.505 30.7667C79.4494 30.7404 79.405 30.6965 79.3719 30.6351C79.3397 30.5727 79.3236 30.4888 79.3236 30.3835V28.8097ZM80.501 29.1944V30.777H80.229V29.1944H80.501ZM80.2085 28.7746C80.2085 28.7307 80.2217 28.6937 80.248 28.6634C80.2753 28.6332 80.3153 28.6181 80.3679 28.6181C80.4196 28.6181 80.4591 28.6332 80.4864 28.6634C80.5147 28.6937 80.5288 28.7307 80.5288 28.7746C80.5288 28.8165 80.5147 28.8526 80.4864 28.8828C80.4591 28.9121 80.4196 28.9267 80.3679 28.9267C80.3153 28.9267 80.2753 28.9121 80.248 28.8828C80.2217 28.8526 80.2085 28.8165 80.2085 28.7746ZM80.8638 30.0032V29.9696C80.8638 29.8555 80.8803 29.7497 80.9135 29.6522C80.9467 29.5537 80.9944 29.4684 81.0568 29.3962C81.1192 29.3231 81.1948 29.2665 81.2836 29.2266C81.3723 29.1856 81.4718 29.1651 81.5819 29.1651C81.6931 29.1651 81.793 29.1856 81.8818 29.2266C81.9715 29.2665 82.0476 29.3231 82.11 29.3962C82.1733 29.4684 82.2216 29.5537 82.2548 29.6522C82.2879 29.7497 82.3045 29.8555 82.3045 29.9696V30.0032C82.3045 30.1173 82.2879 30.2231 82.2548 30.3206C82.2216 30.4181 82.1733 30.5035 82.11 30.5766C82.0476 30.6488 81.972 30.7053 81.8832 30.7463C81.7955 30.7862 81.696 30.8062 81.5849 30.8062C81.4737 30.8062 81.3738 30.7862 81.285 30.7463C81.1963 30.7053 81.1202 30.6488 81.0568 30.5766C80.9944 30.5035 80.9467 30.4181 80.9135 30.3206C80.8803 30.2231 80.8638 30.1173 80.8638 30.0032ZM81.1344 29.9696V30.0032C81.1344 30.0822 81.1436 30.1568 81.1622 30.227C81.1807 30.2962 81.2085 30.3577 81.2455 30.4113C81.2836 30.4649 81.3308 30.5074 81.3874 30.5386C81.444 30.5688 81.5098 30.5839 81.5849 30.5839C81.659 30.5839 81.7238 30.5688 81.7794 30.5386C81.836 30.5074 81.8828 30.4649 81.9198 30.4113C81.9569 30.3577 81.9847 30.2962 82.0032 30.227C82.0227 30.1568 82.0324 30.0822 82.0324 30.0032V29.9696C82.0324 29.8916 82.0227 29.818 82.0032 29.7487C81.9847 29.6785 81.9564 29.6166 81.9183 29.563C81.8813 29.5084 81.8345 29.4655 81.7779 29.4343C81.7224 29.4031 81.657 29.3874 81.5819 29.3874C81.5078 29.3874 81.4425 29.4031 81.3859 29.4343C81.3304 29.4655 81.2836 29.5084 81.2455 29.563C81.2085 29.6166 81.1807 29.6785 81.1622 29.7487C81.1436 29.818 81.1344 29.8916 81.1344 29.9696ZM82.9144 29.5323V30.777H82.6438V29.1944H82.8998L82.9144 29.5323ZM82.8501 29.9257L82.7374 29.9213C82.7384 29.8131 82.7545 29.7131 82.7857 29.6215C82.8169 29.5288 82.8608 29.4484 82.9173 29.3801C82.9739 29.3119 83.0412 29.2592 83.1192 29.2222C83.1982 29.1841 83.2855 29.1651 83.381 29.1651C83.459 29.1651 83.5292 29.1759 83.5916 29.1973C83.654 29.2178 83.7072 29.2509 83.7511 29.2968C83.7959 29.3426 83.83 29.4021 83.8535 29.4752C83.8769 29.5474 83.8886 29.6356 83.8886 29.74V30.777H83.6165V29.737C83.6165 29.6541 83.6043 29.5878 83.5799 29.5381C83.5556 29.4874 83.52 29.4508 83.4732 29.4284C83.4264 29.405 83.3688 29.3933 83.3006 29.3933C83.2333 29.3933 83.1719 29.4074 83.1163 29.4357C83.0617 29.464 83.0144 29.503 82.9744 29.5527C82.9354 29.6025 82.9047 29.6595 82.8822 29.7239C82.8608 29.7872 82.8501 29.8545 82.8501 29.9257ZM85.9026 28.6356V30.777H85.632V28.9735L85.0865 29.1724V28.9282L85.8602 28.6356H85.9026Z" fill="#8794BA"/>
<path d="M78.2175 43.3318C78.2175 43.6159 78.1513 43.8572 78.0189 44.0559C77.8886 44.2524 77.7113 44.4019 77.4871 44.5044C77.2649 44.6069 77.0139 44.6582 76.7341 44.6582C76.4543 44.6582 76.2023 44.6069 75.978 44.5044C75.7537 44.4019 75.5764 44.2524 75.4462 44.0559C75.3159 43.8572 75.2507 43.6159 75.2507 43.3318C75.2507 43.1459 75.286 42.9761 75.3564 42.8223C75.4291 42.6664 75.5305 42.5308 75.6608 42.4154C75.7932 42.3001 75.9492 42.2115 76.1286 42.1495C76.3101 42.0854 76.5099 42.0534 76.7277 42.0534C77.0139 42.0534 77.2692 42.1089 77.4935 42.22C77.7177 42.3289 77.894 42.4795 78.0221 42.6718C78.1524 42.864 78.2175 43.084 78.2175 43.3318ZM77.6216 43.319C77.6216 43.1459 77.5842 42.9932 77.5095 42.8608C77.4347 42.7262 77.3301 42.6216 77.1955 42.5468C77.0609 42.4721 76.905 42.4347 76.7277 42.4347C76.5462 42.4347 76.3892 42.4721 76.2567 42.5468C76.1265 42.6216 76.025 42.7262 75.9524 42.8608C75.8798 42.9932 75.8434 43.1459 75.8434 43.319C75.8434 43.4984 75.8787 43.6522 75.9492 43.7803C76.0218 43.9063 76.1243 44.0035 76.2567 44.0719C76.3913 44.1381 76.5504 44.1712 76.7341 44.1712C76.9178 44.1712 77.0759 44.1381 77.2083 44.0719C77.3407 44.0035 77.4422 43.9063 77.5127 43.7803C77.5853 43.6522 77.6216 43.4984 77.6216 43.319ZM78.1086 41.1435C78.1086 41.3699 78.0488 41.5739 77.9292 41.7554C77.8096 41.937 77.6462 42.0801 77.439 42.1848C77.2318 42.2894 76.9969 42.3418 76.7341 42.3418C76.4671 42.3418 76.229 42.2894 76.0197 42.1848C75.8125 42.0801 75.6501 41.937 75.5327 41.7554C75.4152 41.5739 75.3564 41.3699 75.3564 41.1435C75.3564 40.8722 75.4152 40.6415 75.5327 40.4514C75.6523 40.2613 75.8157 40.1161 76.0229 40.0157C76.23 39.9153 76.4661 39.8651 76.7309 39.8651C76.9979 39.8651 77.235 39.9153 77.4422 40.0157C77.6494 40.1161 77.8117 40.2613 77.9292 40.4514C78.0488 40.6415 78.1086 40.8722 78.1086 41.1435ZM77.5159 41.1531C77.5159 40.9972 77.4828 40.8594 77.4166 40.7398C77.3504 40.6202 77.2585 40.5262 77.141 40.4579C77.0236 40.3874 76.8869 40.3521 76.7309 40.3521C76.575 40.3521 76.4383 40.3852 76.3208 40.4514C76.2055 40.5155 76.1147 40.6074 76.0485 40.727C75.9844 40.8466 75.9524 40.9886 75.9524 41.1531C75.9524 41.3133 75.9844 41.4532 76.0485 41.5728C76.1147 41.6924 76.2066 41.7853 76.324 41.8516C76.4415 41.9178 76.5782 41.9509 76.7341 41.9509C76.8901 41.9509 77.0257 41.9178 77.141 41.8516C77.2585 41.7853 77.3504 41.6924 77.4166 41.5728C77.4828 41.4532 77.5159 41.3133 77.5159 41.1531ZM81.9822 39.9292V40.2624L80.0502 44.5941H79.4254L81.3542 40.4162H78.8295V39.9292H81.9822ZM82.6069 41.073V40.8263C82.6069 40.649 82.6454 40.4878 82.7223 40.3425C82.7992 40.1973 82.9092 40.0809 83.0523 39.9933C83.1954 39.9057 83.3652 39.8619 83.5617 39.8619C83.7625 39.8619 83.9333 39.9057 84.0743 39.9933C84.2174 40.0809 84.3274 40.1973 84.4043 40.3425C84.4812 40.4878 84.5197 40.649 84.5197 40.8263V41.073C84.5197 41.246 84.4812 41.4051 84.4043 41.5504C84.3296 41.6956 84.2206 41.812 84.0775 41.8996C83.9366 41.9872 83.7667 42.031 83.5681 42.031C83.3695 42.031 83.1975 41.9872 83.0523 41.8996C82.9092 41.812 82.7992 41.6956 82.7223 41.5504C82.6454 41.4051 82.6069 41.246 82.6069 41.073ZM83.0523 40.8263V41.073C83.0523 41.1713 83.0704 41.2642 83.1067 41.3517C83.1452 41.4393 83.2029 41.5109 83.2797 41.5664C83.3566 41.6198 83.4528 41.6465 83.5681 41.6465C83.6834 41.6465 83.7785 41.6198 83.8532 41.5664C83.928 41.5109 83.9835 41.4393 84.0199 41.3517C84.0562 41.2642 84.0743 41.1713 84.0743 41.073V40.8263C84.0743 40.7259 84.0551 40.6319 84.0166 40.5444C83.9803 40.4546 83.9237 40.3831 83.8468 40.3297C83.7721 40.2742 83.677 40.2464 83.5617 40.2464C83.4485 40.2464 83.3534 40.2742 83.2765 40.3297C83.2018 40.3831 83.1452 40.4546 83.1067 40.5444C83.0704 40.6319 83.0523 40.7259 83.0523 40.8263ZM84.8785 43.7002V43.4503C84.8785 43.2752 84.917 43.115 84.9938 42.9697C85.0707 42.8245 85.1807 42.7081 85.3239 42.6205C85.467 42.5329 85.6368 42.4891 85.8333 42.4891C86.0341 42.4891 86.2049 42.5329 86.3459 42.6205C86.489 42.7081 86.599 42.8245 86.6759 42.9697C86.7528 43.115 86.7912 43.2752 86.7912 43.4503V43.7002C86.7912 43.8754 86.7528 44.0356 86.6759 44.1808C86.6011 44.3261 86.4922 44.4425 86.3491 44.53C86.2081 44.6176 86.0383 44.6614 85.8397 44.6614C85.641 44.6614 85.4702 44.6176 85.3271 44.53C85.1839 44.4425 85.0729 44.3261 84.9938 44.1808C84.917 44.0356 84.8785 43.8754 84.8785 43.7002ZM85.3239 43.4503V43.7002C85.3239 43.7985 85.342 43.8925 85.3783 43.9822C85.4168 44.0697 85.4744 44.1413 85.5513 44.1968C85.6282 44.2502 85.7243 44.2769 85.8397 44.2769C85.955 44.2769 86.0501 44.2502 86.1248 44.1968C86.2017 44.1413 86.2583 44.0697 86.2946 43.9822C86.331 43.8946 86.3491 43.8006 86.3491 43.7002V43.4503C86.3491 43.3499 86.3299 43.2559 86.2914 43.1684C86.2551 43.0808 86.1985 43.0103 86.1216 42.9569C86.0469 42.9014 85.9508 42.8736 85.8333 42.8736C85.7201 42.8736 85.625 42.9014 85.5481 42.9569C85.4734 43.0103 85.4168 43.0808 85.3783 43.1684C85.342 43.2559 85.3239 43.3499 85.3239 43.4503ZM85.9807 40.5924L83.7027 44.2385L83.3695 44.027L85.6474 40.381L85.9807 40.5924Z" fill="#EF2A82"/>
<path d="M75.7649 48.642V48.6084C75.7649 48.4943 75.7815 48.3885 75.8147 48.291C75.8478 48.1925 75.8956 48.1072 75.958 48.035C76.0204 47.9619 76.096 47.9053 76.1847 47.8654C76.2735 47.8244 76.3729 47.8039 76.4831 47.8039C76.5943 47.8039 76.6942 47.8244 76.7829 47.8654C76.8727 47.9053 76.9487 47.9619 77.0111 48.035C77.0745 48.1072 77.1228 48.1925 77.1559 48.291C77.1891 48.3885 77.2057 48.4943 77.2057 48.6084V48.642C77.2057 48.7561 77.1891 48.8619 77.1559 48.9594C77.1228 49.0569 77.0745 49.1423 77.0111 49.2154C76.9487 49.2875 76.8731 49.3441 76.7844 49.3851C76.6967 49.425 76.5972 49.445 76.486 49.445C76.3749 49.445 76.2749 49.425 76.1862 49.3851C76.0974 49.3441 76.0214 49.2875 75.958 49.2154C75.8956 49.1423 75.8478 49.0569 75.8147 48.9594C75.7815 48.8619 75.7649 48.7561 75.7649 48.642ZM76.0355 48.6084V48.642C76.0355 48.721 76.0448 48.7956 76.0633 48.8658C76.0818 48.935 76.1096 48.9965 76.1467 49.0501C76.1847 49.1037 76.232 49.1462 76.2886 49.1774C76.3451 49.2076 76.4109 49.2227 76.486 49.2227C76.5601 49.2227 76.625 49.2076 76.6806 49.1774C76.7371 49.1462 76.7839 49.1037 76.821 49.0501C76.858 48.9965 76.8858 48.935 76.9043 48.8658C76.9239 48.7956 76.9336 48.721 76.9336 48.642V48.6084C76.9336 48.5304 76.9239 48.4568 76.9043 48.3875C76.8858 48.3173 76.8575 48.2554 76.8195 48.2018C76.7825 48.1472 76.7357 48.1043 76.6791 48.073C76.6235 48.0418 76.5582 48.0262 76.4831 48.0262C76.409 48.0262 76.3437 48.0418 76.2871 48.073C76.2315 48.1043 76.1847 48.1472 76.1467 48.2018C76.1096 48.2554 76.0818 48.3173 76.0633 48.3875C76.0448 48.4568 76.0355 48.5304 76.0355 48.6084ZM77.8156 48.1374V50.0242H77.5435V47.8332H77.7922L77.8156 48.1374ZM78.8819 48.6113V48.642C78.8819 48.7571 78.8682 48.8639 78.8409 48.9623C78.8136 49.0599 78.7736 49.1447 78.721 49.2168C78.6693 49.289 78.6054 49.3451 78.5294 49.3851C78.4533 49.425 78.366 49.445 78.2675 49.445C78.1671 49.445 78.0784 49.4284 78.0013 49.3953C77.9243 49.3621 77.859 49.3139 77.8053 49.2505C77.7517 49.1871 77.7088 49.1111 77.6766 49.0223C77.6454 48.9336 77.624 48.8336 77.6123 48.7225V48.5587C77.624 48.4416 77.6459 48.3368 77.6781 48.2442C77.7103 48.1515 77.7527 48.0726 77.8053 48.0072C77.859 47.9409 77.9238 47.8907 77.9999 47.8566C78.0759 47.8215 78.1637 47.8039 78.2632 47.8039C78.3626 47.8039 78.4509 47.8234 78.5279 47.8624C78.6049 47.9005 78.6698 47.9551 78.7224 48.0262C78.7751 48.0974 78.8146 48.1827 78.8409 48.2822C78.8682 48.3807 78.8819 48.4904 78.8819 48.6113ZM78.6098 48.642V48.6113C78.6098 48.5323 78.6015 48.4582 78.5849 48.389C78.5684 48.3188 78.5425 48.2573 78.5074 48.2047C78.4733 48.1511 78.4294 48.1091 78.3758 48.0789C78.3222 48.0477 78.2583 48.0321 78.1842 48.0321C78.1159 48.0321 78.0564 48.0438 78.0057 48.0672C77.956 48.0906 77.9136 48.1223 77.8785 48.1623C77.8434 48.2013 77.8146 48.2461 77.7922 48.2968C77.7707 48.3466 77.7546 48.3982 77.7439 48.4519V48.8307C77.7634 48.899 77.7907 48.9633 77.8258 49.0238C77.8609 49.0833 77.9077 49.1315 77.9662 49.1686C78.0247 49.2047 78.0984 49.2227 78.1871 49.2227C78.2602 49.2227 78.3231 49.2076 78.3758 49.1774C78.4294 49.1462 78.4733 49.1037 78.5074 49.0501C78.5425 48.9965 78.5684 48.935 78.5849 48.8658C78.6015 48.7956 78.6098 48.721 78.6098 48.642ZM79.8896 47.8332V48.0409H79.034V47.8332H79.8896ZM79.3236 47.4485H79.5942V49.0238C79.5942 49.0774 79.6025 49.1179 79.619 49.1452C79.6356 49.1725 79.6571 49.1905 79.6834 49.1993C79.7097 49.2081 79.738 49.2125 79.7682 49.2125C79.7907 49.2125 79.8141 49.2105 79.8384 49.2066C79.8638 49.2017 79.8828 49.1978 79.8955 49.1949L79.897 49.4158C79.8755 49.4226 79.8472 49.4289 79.8121 49.4348C79.778 49.4416 79.7365 49.445 79.6878 49.445C79.6215 49.445 79.5605 49.4319 79.505 49.4055C79.4494 49.3792 79.405 49.3353 79.3719 49.2739C79.3397 49.2115 79.3236 49.1276 79.3236 49.0223V47.4485ZM80.501 47.8332V49.4158H80.229V47.8332H80.501ZM80.2085 47.4134C80.2085 47.3695 80.2217 47.3325 80.248 47.3022C80.2753 47.272 80.3153 47.2569 80.3679 47.2569C80.4196 47.2569 80.4591 47.272 80.4864 47.3022C80.5147 47.3325 80.5288 47.3695 80.5288 47.4134C80.5288 47.4553 80.5147 47.4914 80.4864 47.5216C80.4591 47.5509 80.4196 47.5655 80.3679 47.5655C80.3153 47.5655 80.2753 47.5509 80.248 47.5216C80.2217 47.4914 80.2085 47.4553 80.2085 47.4134ZM80.8638 48.642V48.6084C80.8638 48.4943 80.8803 48.3885 80.9135 48.291C80.9467 48.1925 80.9944 48.1072 81.0568 48.035C81.1192 47.9619 81.1948 47.9053 81.2836 47.8654C81.3723 47.8244 81.4718 47.8039 81.5819 47.8039C81.6931 47.8039 81.793 47.8244 81.8818 47.8654C81.9715 47.9053 82.0476 47.9619 82.11 48.035C82.1733 48.1072 82.2216 48.1925 82.2548 48.291C82.2879 48.3885 82.3045 48.4943 82.3045 48.6084V48.642C82.3045 48.7561 82.2879 48.8619 82.2548 48.9594C82.2216 49.0569 82.1733 49.1423 82.11 49.2154C82.0476 49.2875 81.972 49.3441 81.8832 49.3851C81.7955 49.425 81.696 49.445 81.5849 49.445C81.4737 49.445 81.3738 49.425 81.285 49.3851C81.1963 49.3441 81.1202 49.2875 81.0568 49.2154C80.9944 49.1423 80.9467 49.0569 80.9135 48.9594C80.8803 48.8619 80.8638 48.7561 80.8638 48.642ZM81.1344 48.6084V48.642C81.1344 48.721 81.1436 48.7956 81.1622 48.8658C81.1807 48.935 81.2085 48.9965 81.2455 49.0501C81.2836 49.1037 81.3308 49.1462 81.3874 49.1774C81.444 49.2076 81.5098 49.2227 81.5849 49.2227C81.659 49.2227 81.7238 49.2076 81.7794 49.1774C81.836 49.1462 81.8828 49.1037 81.9198 49.0501C81.9569 48.9965 81.9847 48.935 82.0032 48.8658C82.0227 48.7956 82.0324 48.721 82.0324 48.642V48.6084C82.0324 48.5304 82.0227 48.4568 82.0032 48.3875C81.9847 48.3173 81.9564 48.2554 81.9183 48.2018C81.8813 48.1472 81.8345 48.1043 81.7779 48.073C81.7224 48.0418 81.657 48.0262 81.5819 48.0262C81.5078 48.0262 81.4425 48.0418 81.3859 48.073C81.3304 48.1043 81.2836 48.1472 81.2455 48.2018C81.2085 48.2554 81.1807 48.3173 81.1622 48.3875C81.1436 48.4568 81.1344 48.5304 81.1344 48.6084ZM82.9144 48.171V49.4158H82.6438V47.8332H82.8998L82.9144 48.171ZM82.8501 48.5645L82.7374 48.5601C82.7384 48.4519 82.7545 48.3519 82.7857 48.2603C82.8169 48.1676 82.8608 48.0872 82.9173 48.0189C82.9739 47.9507 83.0412 47.898 83.1192 47.861C83.1982 47.8229 83.2855 47.8039 83.381 47.8039C83.459 47.8039 83.5292 47.8146 83.5916 47.8361C83.654 47.8566 83.7072 47.8897 83.7511 47.9356C83.7959 47.9814 83.83 48.0409 83.8535 48.114C83.8769 48.1862 83.8886 48.2744 83.8886 48.3787V49.4158H83.6165V48.3758C83.6165 48.2929 83.6043 48.2266 83.5799 48.1769C83.5556 48.1262 83.52 48.0896 83.4732 48.0672C83.4264 48.0438 83.3688 48.0321 83.3006 48.0321C83.2333 48.0321 83.1719 48.0462 83.1163 48.0745C83.0617 48.1028 83.0144 48.1418 82.9744 48.1915C82.9354 48.2413 82.9047 48.2983 82.8822 48.3627C82.8608 48.426 82.8501 48.4933 82.8501 48.5645ZM86.4087 49.1934V49.4158H85.0148V49.2212L85.7125 48.4446C85.7983 48.349 85.8646 48.2681 85.9114 48.2018C85.9592 48.1345 85.9923 48.0745 86.0109 48.0219C86.0304 47.9682 86.0401 47.9136 86.0401 47.858C86.0401 47.7878 86.0255 47.7244 85.9962 47.6679C85.968 47.6104 85.926 47.5645 85.8705 47.5304C85.8149 47.4963 85.7476 47.4792 85.6686 47.4792C85.574 47.4792 85.495 47.4977 85.4317 47.5348C85.3693 47.5709 85.3224 47.6216 85.2912 47.6869C85.26 47.7522 85.2444 47.8273 85.2444 47.9122H84.9738C84.9738 47.7922 85.0002 47.6825 85.0528 47.5831C85.1055 47.4836 85.1835 47.4046 85.2869 47.3461C85.3902 47.2866 85.5175 47.2569 85.6686 47.2569C85.8032 47.2569 85.9182 47.2808 86.0138 47.3286C86.1094 47.3754 86.1825 47.4417 86.2332 47.5275C86.2849 47.6123 86.3107 47.7118 86.3107 47.8259C86.3107 47.8883 86.3 47.9516 86.2785 48.016C86.2581 48.0794 86.2293 48.1428 86.1922 48.2062C86.1562 48.2695 86.1137 48.3319 86.065 48.3934C86.0172 48.4548 85.966 48.5153 85.9114 48.5747L85.341 49.1934H86.4087Z" fill="#8794BA"/>
<path d="M39.3051 21.654C39.2908 21.2733 39.588 20.9514 39.969 20.9541C43.2876 20.9781 46.5168 22.0745 49.1692 24.0894C52.0052 26.2437 54.0064 29.3147 54.832 32.7791C55.6575 36.2435 55.2563 39.887 53.6966 43.0888C52.137 46.2905 49.5154 48.8524 46.2786 50.338C43.0419 51.8235 39.3901 52.1408 35.9456 51.2358C32.5011 50.3307 29.477 48.2593 27.3885 45.3746C25.3001 42.4898 24.2764 38.9701 24.4921 35.4152C24.6938 32.0903 25.968 28.9271 28.1136 26.3953C28.3599 26.1046 28.7978 26.0892 29.0771 26.3483V26.3483C29.3565 26.6074 29.3714 27.0429 29.1264 27.3347C27.1972 29.6316 26.0518 32.4926 25.8694 35.4988C25.6731 38.735 26.605 41.9392 28.5062 44.5654C30.4075 47.1916 33.1605 49.0773 36.2963 49.9012C39.432 50.7251 42.7564 50.4363 45.7031 49.0839C48.6497 47.7315 51.0363 45.3992 52.4561 42.4845C53.876 39.5697 54.2412 36.2529 53.4897 33.099C52.7382 29.9451 50.9163 27.1494 48.3346 25.1882C45.9363 23.3664 43.0203 22.3694 40.0209 22.3345C39.6399 22.3301 39.3194 22.0348 39.3051 21.654V21.654Z" fill="#EF2A82"/>
<path d="M39.0327 15.1424C39.0113 14.5929 39.4397 14.1277 39.9896 14.131C44.2972 14.1565 48.5127 15.4342 52.1171 17.8191C55.9989 20.3874 58.976 24.1101 60.6281 28.4615C62.2803 32.813 62.524 37.5734 61.3249 42.0708C60.1259 46.5682 57.5445 50.5755 53.9454 53.5269C50.3462 56.4782 45.911 58.2247 41.2659 58.5196C36.6207 58.8146 32.0002 57.6432 28.0566 55.1708C24.1131 52.6983 21.0456 49.0498 19.2873 44.7402C17.6546 40.7384 17.2273 36.3543 18.046 32.1251C18.1505 31.5852 18.6906 31.2563 19.2253 31.3849V31.3849C19.7599 31.5135 20.0866 32.0509 19.9844 32.5913C19.2618 36.4143 19.6562 40.3724 21.1312 43.9879C22.7319 47.9112 25.5244 51.2327 29.1145 53.4835C32.7046 55.7343 36.9109 56.8007 41.1397 56.5322C45.3684 56.2636 49.4061 54.6738 52.6826 51.9869C55.9592 49.3001 58.3091 45.6521 59.4007 41.5578C60.4923 37.4635 60.2704 33.1298 58.7663 29.1684C57.2623 25.207 54.5521 21.8181 51.0183 19.4799C47.7618 17.3253 43.9575 16.1633 40.067 16.1232C39.5171 16.1175 39.0541 15.6919 39.0327 15.1424V15.1424Z" fill="#0088F0"/>
<path d="M37.6814 36.0907L37.537 36.0537L37.6082 35.3467H38.3366V35.5135H37.7613L37.7184 35.8996C37.7444 35.8847 37.7773 35.8707 37.8169 35.8577C37.8572 35.8447 37.9034 35.8382 37.9554 35.8382C38.021 35.8382 38.0799 35.8496 38.1319 35.8723C38.1839 35.8944 38.2281 35.9263 38.2645 35.9679C38.3015 36.0095 38.3298 36.0595 38.3493 36.118C38.3688 36.1765 38.3786 36.2419 38.3786 36.314C38.3786 36.3823 38.3691 36.445 38.3503 36.5022C38.3321 36.5594 38.3045 36.6095 38.2674 36.6524C38.2303 36.6946 38.1835 36.7275 38.127 36.7509C38.0711 36.7743 38.0051 36.786 37.929 36.786C37.8718 36.786 37.8176 36.7782 37.7662 36.7626C37.7155 36.7463 37.67 36.7219 37.6297 36.6894C37.59 36.6563 37.5575 36.6153 37.5322 36.5666C37.5075 36.5172 37.4919 36.4593 37.4854 36.393H37.657C37.6648 36.4463 37.6804 36.4912 37.7038 36.5276C37.7272 36.564 37.7577 36.5916 37.7955 36.6105C37.8338 36.6287 37.8783 36.6378 37.929 36.6378C37.9719 36.6378 38.01 36.6303 38.0431 36.6153C38.0763 36.6004 38.1042 36.5789 38.127 36.551C38.1497 36.523 38.167 36.4892 38.1787 36.4496C38.191 36.4099 38.1972 36.3654 38.1972 36.316C38.1972 36.2711 38.191 36.2295 38.1787 36.1912C38.1663 36.1528 38.1478 36.1193 38.1231 36.0907C38.099 36.0621 38.0695 36.04 38.0344 36.0244C37.9992 36.0082 37.9589 36 37.9134 36C37.853 36 37.8072 36.0082 37.7759 36.0244C37.7454 36.0407 37.7139 36.0628 37.6814 36.0907ZM38.8047 36.0907L38.6604 36.0537L38.7316 35.3467H39.46V35.5135H38.8846L38.8417 35.8996C38.8677 35.8847 38.9006 35.8707 38.9402 35.8577C38.9805 35.8447 39.0267 35.8382 39.0787 35.8382C39.1444 35.8382 39.2032 35.8496 39.2552 35.8723C39.3072 35.8944 39.3514 35.9263 39.3878 35.9679C39.4249 36.0095 39.4531 36.0595 39.4726 36.118C39.4921 36.1765 39.5019 36.2419 39.5019 36.314C39.5019 36.3823 39.4925 36.445 39.4736 36.5022C39.4554 36.5594 39.4278 36.6095 39.3907 36.6524C39.3537 36.6946 39.3069 36.7275 39.2503 36.7509C39.1944 36.7743 39.1284 36.786 39.0524 36.786C38.9952 36.786 38.9409 36.7782 38.8895 36.7626C38.8388 36.7463 38.7933 36.7219 38.753 36.6894C38.7134 36.6563 38.6808 36.6153 38.6555 36.5666C38.6308 36.5172 38.6152 36.4593 38.6087 36.393H38.7803C38.7881 36.4463 38.8037 36.4912 38.8271 36.5276C38.8505 36.564 38.8811 36.5916 38.9188 36.6105C38.9571 36.6287 39.0017 36.6378 39.0524 36.6378C39.0953 36.6378 39.1333 36.6303 39.1665 36.6153C39.1996 36.6004 39.2276 36.5789 39.2503 36.551C39.2731 36.523 39.2903 36.4892 39.302 36.4496C39.3143 36.4099 39.3205 36.3654 39.3205 36.316C39.3205 36.2711 39.3143 36.2295 39.302 36.1912C39.2896 36.1528 39.2711 36.1193 39.2464 36.0907C39.2224 36.0621 39.1928 36.04 39.1577 36.0244C39.1226 36.0082 39.0823 36 39.0368 36C38.9763 36 38.9305 36.0082 38.8993 36.0244C38.8687 36.0407 38.8372 36.0628 38.8047 36.0907ZM40.0948 36.0888V36.237H39.6189V36.0888H40.0948ZM40.9441 35.3448H40.9597V35.4979H40.9441C40.8485 35.4979 40.7686 35.5135 40.7042 35.5447C40.6398 35.5752 40.5888 35.6165 40.5511 35.6685C40.5134 35.7199 40.4861 35.7777 40.4692 35.8421C40.4529 35.9064 40.4448 35.9718 40.4448 36.0381V36.2467C40.4448 36.3098 40.4523 36.3657 40.4672 36.4145C40.4822 36.4626 40.5027 36.5032 40.5287 36.5364C40.5547 36.5695 40.5839 36.5945 40.6164 36.6114C40.6496 36.6283 40.684 36.6368 40.7198 36.6368C40.7614 36.6368 40.7985 36.629 40.831 36.6134C40.8635 36.5971 40.8908 36.5747 40.9129 36.5461C40.9356 36.5169 40.9528 36.4824 40.9646 36.4427C40.9763 36.4031 40.9821 36.3595 40.9821 36.3121C40.9821 36.2698 40.9769 36.2292 40.9665 36.1902C40.9561 36.1505 40.9402 36.1154 40.9187 36.0849C40.8973 36.0537 40.8703 36.0293 40.8378 36.0117C40.8059 35.9935 40.7679 35.9844 40.7237 35.9844C40.6736 35.9844 40.6268 35.9968 40.5833 36.0215C40.5404 36.0456 40.5049 36.0774 40.477 36.1171C40.4497 36.1561 40.4341 36.1986 40.4302 36.2448L40.3346 36.2438C40.3437 36.171 40.3606 36.1089 40.3853 36.0576C40.4107 36.0056 40.4419 35.9633 40.4789 35.9308C40.5167 35.8977 40.5586 35.8736 40.6047 35.8587C40.6515 35.8431 40.7009 35.8353 40.753 35.8353C40.8238 35.8353 40.8849 35.8486 40.9363 35.8752C40.9876 35.9019 41.0299 35.9376 41.063 35.9825C41.0962 36.0267 41.1206 36.0768 41.1362 36.1327C41.1524 36.1879 41.1605 36.2448 41.1605 36.3033C41.1605 36.3703 41.1511 36.433 41.1323 36.4915C41.1134 36.55 41.0851 36.6014 41.0474 36.6456C41.0104 36.6898 40.9646 36.7242 40.9099 36.7489C40.8553 36.7736 40.792 36.786 40.7198 36.786C40.6431 36.786 40.5761 36.7704 40.5189 36.7392C40.4617 36.7073 40.4143 36.6651 40.3766 36.6124C40.3389 36.5598 40.3106 36.5013 40.2917 36.4369C40.2729 36.3725 40.2634 36.3072 40.2634 36.2409V36.1561C40.2634 36.056 40.2735 35.9578 40.2937 35.8616C40.3138 35.7654 40.3486 35.6783 40.398 35.6003C40.4481 35.5222 40.5173 35.4602 40.6057 35.414C40.6941 35.3679 40.8069 35.3448 40.9441 35.3448ZM42.3346 36.2887V36.4369H41.3088V36.3306L41.9445 35.3467H42.0918L41.9338 35.6315L41.5135 36.2887H42.3346ZM42.1366 35.3467V36.7665H41.9562V35.3467H42.1366Z" fill="#8794BA"/>
<path d="M11.3078 8.91509L10.6811 10.6404H10.425L11.1466 8.74737H11.3117L11.3078 8.91509ZM11.833 10.6404L11.2051 8.91509L11.2012 8.74737H11.3663L12.0905 10.6404H11.833ZM11.8005 9.9396V10.145H10.737V9.9396H11.8005ZM13.219 9.23363H13.4374V10.6105C13.4374 10.7344 13.4123 10.8402 13.362 10.9277C13.3117 11.0153 13.2415 11.0816 13.1514 11.1266C13.0621 11.1726 12.9589 11.1955 12.8419 11.1955C12.7934 11.1955 12.7362 11.1877 12.6703 11.1721C12.6053 11.1574 12.5412 11.1318 12.4779 11.0954C12.4155 11.0599 12.3631 11.0118 12.3206 10.9511L12.4467 10.8081C12.5056 10.8792 12.5672 10.9286 12.6313 10.9563C12.6963 10.9841 12.7605 10.9979 12.8237 10.9979C12.9 10.9979 12.9659 10.9836 13.0214 10.955C13.0768 10.9264 13.1197 10.8839 13.1501 10.8276C13.1813 10.7721 13.1969 10.7037 13.1969 10.6222V9.54306L13.219 9.23363ZM12.2504 9.95261V9.9253C12.2504 9.81782 12.2629 9.72031 12.2881 9.63277C12.3141 9.54436 12.3509 9.46852 12.3986 9.40525C12.4471 9.34197 12.5056 9.29343 12.5741 9.25963C12.6426 9.22496 12.7197 9.20762 12.8055 9.20762C12.8939 9.20762 12.9711 9.22323 13.037 9.25443C13.1037 9.28477 13.16 9.3294 13.206 9.38834C13.2528 9.44642 13.2896 9.51662 13.3165 9.59897C13.3434 9.68131 13.362 9.77449 13.3724 9.8785V9.99811C13.3629 10.1013 13.3442 10.194 13.3165 10.2763C13.2896 10.3587 13.2528 10.4289 13.206 10.487C13.16 10.545 13.1037 10.5897 13.037 10.6209C12.9702 10.6512 12.8922 10.6664 12.8029 10.6664C12.7189 10.6664 12.6426 10.6486 12.5741 10.6131C12.5065 10.5775 12.4484 10.5277 12.3999 10.4636C12.3513 10.3994 12.3141 10.324 12.2881 10.2373C12.2629 10.1498 12.2504 10.0549 12.2504 9.95261ZM12.4909 9.9253V9.95261C12.4909 10.0228 12.4978 10.0887 12.5117 10.1502C12.5264 10.2118 12.5485 10.2659 12.578 10.3127C12.6083 10.3596 12.6469 10.3964 12.6937 10.4233C12.7405 10.4493 12.7964 10.4623 12.8614 10.4623C12.9412 10.4623 13.0071 10.4454 13.0591 10.4116C13.1111 10.3778 13.1522 10.3331 13.1826 10.2776C13.2138 10.2222 13.238 10.1619 13.2554 10.0969V9.78359C13.2458 9.73591 13.2311 9.68998 13.2112 9.64577C13.1921 9.6007 13.167 9.56083 13.1358 9.52616C13.1054 9.49062 13.0677 9.46245 13.0227 9.44165C12.9776 9.42085 12.9247 9.41045 12.864 9.41045C12.7982 9.41045 12.7414 9.42431 12.6937 9.45205C12.6469 9.47892 12.6083 9.51619 12.578 9.56386C12.5485 9.61067 12.5264 9.66527 12.5117 9.72768C12.4978 9.78922 12.4909 9.85509 12.4909 9.9253ZM14.3865 10.6664C14.2886 10.6664 14.1997 10.6499 14.12 10.617C14.0411 10.5832 13.9731 10.5359 13.9159 10.4753C13.8595 10.4146 13.8162 10.3426 13.7858 10.2594C13.7555 10.1762 13.7403 10.0852 13.7403 9.98641V9.9318C13.7403 9.81739 13.7572 9.71555 13.791 9.62627C13.8248 9.53613 13.8708 9.45985 13.9289 9.39744C13.9869 9.33504 14.0528 9.2878 14.1265 9.25573C14.2002 9.22366 14.2764 9.20762 14.3553 9.20762C14.4558 9.20762 14.5425 9.22496 14.6153 9.25963C14.689 9.2943 14.7492 9.34284 14.7961 9.40525C14.8429 9.46679 14.8775 9.53959 14.9001 9.62367C14.9226 9.70688 14.9339 9.79789 14.9339 9.8967V10.0046H13.8834V9.80829H14.6933V9.79009C14.6899 9.72768 14.6769 9.66701 14.6543 9.60807C14.6327 9.54913 14.598 9.50059 14.5503 9.46245C14.5027 9.42431 14.4376 9.40525 14.3553 9.40525C14.3007 9.40525 14.2504 9.41695 14.2045 9.44035C14.1585 9.46288 14.1191 9.49669 14.0862 9.54176C14.0532 9.58683 14.0277 9.64187 14.0095 9.70688C13.9913 9.77189 13.9822 9.84686 13.9822 9.9318V9.98641C13.9822 10.0531 13.9913 10.116 14.0095 10.1749C14.0285 10.233 14.0558 10.2841 14.0914 10.3283C14.1278 10.3726 14.1715 10.4072 14.2227 10.4324C14.2747 10.4575 14.3336 10.4701 14.3995 10.4701C14.4845 10.4701 14.5564 10.4527 14.6153 10.4181C14.6743 10.3834 14.7258 10.337 14.77 10.2789L14.9157 10.3947C14.8853 10.4406 14.8468 10.4844 14.8 10.526C14.7531 10.5676 14.6955 10.6014 14.627 10.6274C14.5594 10.6534 14.4792 10.6664 14.3865 10.6664ZM16.0338 10.2672C16.0338 10.2326 16.026 10.2005 16.0104 10.171C15.9956 10.1407 15.9649 10.1134 15.9181 10.0891C15.8721 10.064 15.8028 10.0423 15.7101 10.0241C15.632 10.0076 15.5614 9.98814 15.4981 9.96561C15.4357 9.94307 15.3824 9.91577 15.3382 9.8837C15.2949 9.85163 15.2615 9.81392 15.2381 9.77059C15.2147 9.72725 15.203 9.67654 15.203 9.61847C15.203 9.563 15.2151 9.51056 15.2394 9.46115C15.2645 9.41175 15.2996 9.36797 15.3447 9.32984C15.3906 9.2917 15.4457 9.2618 15.5098 9.24013C15.574 9.21846 15.6455 9.20762 15.7244 9.20762C15.837 9.20762 15.9332 9.22756 16.013 9.26743C16.0927 9.3073 16.1538 9.36061 16.1963 9.42735C16.2388 9.49322 16.26 9.56646 16.26 9.64707H16.0195C16.0195 9.60807 16.0078 9.57036 15.9844 9.53396C15.9618 9.49669 15.9285 9.46592 15.8843 9.44165C15.8409 9.41738 15.7876 9.40525 15.7244 9.40525C15.6576 9.40525 15.6034 9.41565 15.5618 9.43645C15.5211 9.45638 15.4912 9.48195 15.4721 9.51316C15.4539 9.54436 15.4448 9.5773 15.4448 9.61197C15.4448 9.63797 15.4492 9.66137 15.4578 9.68218C15.4674 9.70211 15.4838 9.72075 15.5072 9.73808C15.5306 9.75455 15.5636 9.77015 15.606 9.78489C15.6485 9.79962 15.7027 9.81436 15.7686 9.82909C15.8838 9.85509 15.9787 9.8863 16.0533 9.9227C16.1278 9.95911 16.1833 10.0037 16.2197 10.0566C16.2561 10.1095 16.2743 10.1736 16.2743 10.249C16.2743 10.3106 16.2613 10.3669 16.2353 10.4181C16.2102 10.4692 16.1733 10.5134 16.1248 10.5507C16.0771 10.5871 16.0199 10.6157 15.9532 10.6365C15.8873 10.6564 15.8132 10.6664 15.7309 10.6664C15.6069 10.6664 15.502 10.6443 15.4162 10.6001C15.3304 10.5559 15.2654 10.4987 15.2212 10.4285C15.177 10.3582 15.1549 10.2841 15.1549 10.2061H15.3967C15.4002 10.272 15.4193 10.3244 15.4539 10.3635C15.4886 10.4016 15.5311 10.4289 15.5813 10.4454C15.6316 10.461 15.6814 10.4688 15.7309 10.4688C15.7967 10.4688 15.8518 10.4601 15.896 10.4428C15.941 10.4254 15.9753 10.4016 15.9987 10.3713C16.0221 10.3409 16.0338 10.3062 16.0338 10.2672Z" fill="#8794BA"/>
</svg>
