<svg width="101" height="69" viewBox="0 0 101 69" fill="none" xmlns="http://www.w3.org/2000/svg">
<rect x="0.47998" y="0.604065" width="99.851" height="68.2315" rx="4.99255" fill="white"/>
<rect x="10.6318" y="58.3512" width="0.166419" height="79.5479" transform="rotate(-90 10.6318 58.3512)" fill="#EEEEF7"/>
<rect x="10.6313" y="51.5281" width="0.166419" height="79.5479" transform="rotate(-90 10.6313 51.5281)" fill="#EEEEF7"/>
<rect x="10.6313" y="44.7049" width="0.166419" height="79.5479" transform="rotate(-90 10.6313 44.7049)" fill="#EEEEF7"/>
<rect x="10.6313" y="37.8818" width="0.166419" height="79.5479" transform="rotate(-90 10.6313 37.8818)" fill="#EEEEF7"/>
<rect x="10.6313" y="31.0587" width="0.166419" height="79.5479" transform="rotate(-90 10.6313 31.0587)" fill="#EEEEF7"/>
<rect x="10.6313" y="24.2355" width="0.166419" height="79.5479" transform="rotate(-90 10.6313 24.2355)" fill="#EEEEF7"/>
<rect x="10.6313" y="17.4123" width="0.166419" height="79.5479" transform="rotate(-90 10.6313 17.4123)" fill="#EEEEF7"/>
<rect x="10.6313" y="10.5892" width="0.166419" height="79.5479" transform="rotate(-90 10.6313 10.5892)" fill="#EEEEF7"/>
<path d="M24.2778 58.1848L24.2778 32.806C24.2778 31.1976 25.5817 29.8937 27.1902 29.8937V29.8937C28.7986 29.8937 30.1025 31.1976 30.1025 32.806L30.1025 58.1848L24.2778 58.1848Z" fill="#EF2A82"/>
<path d="M45.2466 58.1848L45.2466 49.6143C45.2466 48.0058 46.5505 46.702 48.1589 46.702V46.702C49.7673 46.702 51.0712 48.0058 51.0712 49.6143L51.0712 58.1848L45.2466 58.1848Z" fill="#EF2A82"/>
<path d="M66.2148 58.1848L66.2148 37.2993C66.2148 35.6909 67.5187 34.387 69.1272 34.387V34.387C70.7356 34.387 72.0395 35.6909 72.0395 37.2993L72.0395 58.1848L66.2148 58.1848Z" fill="#EF2A82"/>
<path d="M31.7666 58.1848L31.7666 43.2904C31.7666 41.6819 33.0705 40.3781 34.6789 40.3781V40.3781C36.2874 40.3781 37.5912 41.6819 37.5912 43.2904L37.5912 58.1848L31.7666 58.1848Z" fill="#0088F0"/>
<path d="M52.7354 58.1848L52.7354 18.6605C52.7354 17.052 54.0392 15.7482 55.6477 15.7482V15.7482C57.2561 15.7482 58.56 17.052 58.56 18.6605L58.56 58.1848L52.7354 58.1848Z" fill="#0088F0"/>
<path d="M73.7041 58.1848L73.7041 57.2695C73.7041 55.6611 75.008 54.3572 76.6164 54.3572V54.3572C78.2249 54.3572 79.5287 55.6611 79.5287 57.2695L79.5287 58.1848L73.7041 58.1848Z" fill="#0088F0"/>
<path d="M29.2626 60.0886V61.5161H29.0822V60.3138L28.7185 60.4464V60.2836L29.2343 60.0886H29.2626ZM30.6882 61.1319C30.6882 61.2184 30.6681 61.2918 30.6278 61.3523C30.5881 61.4121 30.5341 61.4576 30.4659 61.4888C30.3983 61.52 30.3219 61.5356 30.2367 61.5356C30.1516 61.5356 30.0749 61.52 30.0066 61.4888C29.9384 61.4576 29.8844 61.4121 29.8447 61.3523C29.8051 61.2918 29.7853 61.2184 29.7853 61.1319C29.7853 61.0754 29.796 61.0237 29.8174 60.9769C29.8395 60.9294 29.8704 60.8881 29.9101 60.853C29.9504 60.8179 29.9978 60.791 30.0524 60.7721C30.1077 60.7526 30.1685 60.7429 30.2348 60.7429C30.3219 60.7429 30.3996 60.7598 30.4678 60.7936C30.5361 60.8267 30.5897 60.8725 30.6287 60.931C30.6684 60.9896 30.6882 61.0565 30.6882 61.1319ZM30.5068 61.128C30.5068 61.0754 30.4955 61.0289 30.4727 60.9886C30.45 60.9476 30.4181 60.9158 30.3772 60.893C30.3362 60.8703 30.2887 60.8589 30.2348 60.8589C30.1795 60.8589 30.1317 60.8703 30.0914 60.893C30.0518 60.9158 30.0209 60.9476 29.9988 60.9886C29.9767 61.0289 29.9657 61.0754 29.9657 61.128C29.9657 61.1826 29.9764 61.2294 29.9978 61.2684C30.0199 61.3068 30.0511 61.3364 30.0914 61.3572C30.1324 61.3773 30.1808 61.3874 30.2367 61.3874C30.2926 61.3874 30.3407 61.3773 30.3811 61.3572C30.4214 61.3364 30.4522 61.3068 30.4737 61.2684C30.4958 61.2294 30.5068 61.1826 30.5068 61.128ZM30.6551 60.4659C30.6551 60.5348 30.6369 60.5969 30.6005 60.6522C30.564 60.7074 30.5143 60.751 30.4513 60.7828C30.3882 60.8147 30.3167 60.8306 30.2367 60.8306C30.1555 60.8306 30.083 60.8147 30.0193 60.7828C29.9562 60.751 29.9068 60.7074 29.8711 60.6522C29.8353 60.5969 29.8174 60.5348 29.8174 60.4659C29.8174 60.3834 29.8353 60.3132 29.8711 60.2553C29.9075 60.1974 29.9572 60.1532 30.0203 60.1227C30.0833 60.0921 30.1552 60.0769 30.2358 60.0769C30.317 60.0769 30.3892 60.0921 30.4522 60.1227C30.5153 60.1532 30.5647 60.1974 30.6005 60.2553C30.6369 60.3132 30.6551 60.3834 30.6551 60.4659ZM30.4747 60.4688C30.4747 60.4214 30.4646 60.3795 30.4444 60.3431C30.4243 60.3067 30.3963 60.2781 30.3606 60.2572C30.3248 60.2358 30.2832 60.2251 30.2358 60.2251C30.1883 60.2251 30.1467 60.2351 30.1109 60.2553C30.0758 60.2748 30.0482 60.3028 30.0281 60.3392C30.0086 60.3756 29.9988 60.4188 29.9988 60.4688C29.9988 60.5176 30.0086 60.5602 30.0281 60.5966C30.0482 60.633 30.0762 60.6613 30.1119 60.6814C30.1477 60.7016 30.1893 60.7116 30.2367 60.7116C30.2842 60.7116 30.3255 60.7016 30.3606 60.6814C30.3963 60.6613 30.4243 60.633 30.4444 60.5966C30.4646 60.5602 30.4747 60.5176 30.4747 60.4688ZM31.3113 60.8384V60.9866H30.8355V60.8384H31.3113ZM32.3985 61.3679V61.5161H31.4693V61.3864L31.9344 60.8686C31.9916 60.8049 32.0358 60.751 32.067 60.7068C32.0989 60.6619 32.121 60.6219 32.1333 60.5868C32.1463 60.5511 32.1528 60.5147 32.1528 60.4776C32.1528 60.4308 32.1431 60.3886 32.1236 60.3509C32.1047 60.3125 32.0768 60.282 32.0397 60.2592C32.0027 60.2364 31.9578 60.2251 31.9051 60.2251C31.8421 60.2251 31.7894 60.2374 31.7472 60.2621C31.7056 60.2862 31.6744 60.32 31.6536 60.3635C31.6328 60.4071 31.6224 60.4571 31.6224 60.5137H31.442C31.442 60.4337 31.4595 60.3606 31.4946 60.2943C31.5297 60.228 31.5817 60.1753 31.6506 60.1363C31.7195 60.0967 31.8044 60.0769 31.9051 60.0769C31.9949 60.0769 32.0716 60.0928 32.1353 60.1246C32.199 60.1558 32.2477 60.2 32.2815 60.2572C32.316 60.3138 32.3332 60.3801 32.3332 60.4562C32.3332 60.4978 32.3261 60.54 32.3118 60.5829C32.2981 60.6252 32.2789 60.6674 32.2542 60.7097C32.2302 60.752 32.2019 60.7936 32.1694 60.8345C32.1375 60.8755 32.1034 60.9158 32.067 60.9554L31.6867 61.3679H32.3985ZM33.5511 61.0383V61.1865H32.5253V61.0802L33.1611 60.0964H33.3083L33.1504 60.3811L32.7301 61.0383H33.5511ZM33.3532 60.0964V61.5161H33.1728V60.0964H33.3532Z" fill="#8794BA"/>
<path d="M50.0683 60.7175H50.197C50.26 60.7175 50.312 60.7071 50.353 60.6863C50.3946 60.6648 50.4255 60.6359 50.4456 60.5995C50.4664 60.5625 50.4768 60.5209 50.4768 60.4747C50.4768 60.4201 50.4677 60.3743 50.4495 60.3372C50.4313 60.3002 50.404 60.2722 50.3676 60.2533C50.3312 60.2345 50.2851 60.2251 50.2292 60.2251C50.1785 60.2251 50.1336 60.2351 50.0946 60.2553C50.0562 60.2748 50.026 60.3028 50.0039 60.3392C49.9825 60.3756 49.9717 60.4185 49.9717 60.4679H49.7913C49.7913 60.3957 49.8095 60.3301 49.8459 60.2709C49.8824 60.2117 49.9334 60.1646 49.999 60.1295C50.0653 60.0944 50.1421 60.0769 50.2292 60.0769C50.315 60.0769 50.3901 60.0921 50.4544 60.1227C50.5188 60.1526 50.5688 60.1974 50.6046 60.2572C50.6403 60.3164 50.6582 60.3902 50.6582 60.4786C50.6582 60.5144 50.6498 60.5527 50.6329 60.5937C50.6166 60.634 50.5909 60.6717 50.5558 60.7068C50.5214 60.7419 50.4765 60.7708 50.4213 60.7936C50.366 60.8157 50.2997 60.8267 50.2223 60.8267H50.0683V60.7175ZM50.0683 60.8657V60.7575H50.2223C50.3127 60.7575 50.3875 60.7682 50.4466 60.7897C50.5058 60.8111 50.5522 60.8397 50.5861 60.8755C50.6205 60.9112 50.6446 60.9506 50.6582 60.9935C50.6725 61.0357 50.6797 61.078 50.6797 61.1202C50.6797 61.1865 50.6683 61.2454 50.6455 61.2967C50.6234 61.3481 50.5919 61.3916 50.5509 61.4274C50.5106 61.4631 50.4632 61.4901 50.4086 61.5083C50.354 61.5265 50.2945 61.5356 50.2301 61.5356C50.1684 61.5356 50.1102 61.5268 50.0556 61.5093C50.0016 61.4917 49.9539 61.4664 49.9123 61.4332C49.8706 61.3994 49.8381 61.3581 49.8147 61.3094C49.7913 61.26 49.7796 61.2038 49.7796 61.1407H49.96C49.96 61.1901 49.9708 61.2333 49.9922 61.2704C50.0143 61.3074 50.0455 61.3364 50.0858 61.3572C50.1268 61.3773 50.1749 61.3874 50.2301 61.3874C50.2854 61.3874 50.3329 61.378 50.3725 61.3591C50.4128 61.3396 50.4437 61.3104 50.4651 61.2714C50.4872 61.2324 50.4983 61.1833 50.4983 61.1241C50.4983 61.065 50.4859 61.0165 50.4612 60.9788C50.4365 60.9405 50.4014 60.9122 50.3559 60.894C50.3111 60.8751 50.2581 60.8657 50.197 60.8657H50.0683ZM51.1565 60.8404L51.0122 60.8033L51.0834 60.0964H51.8118V60.2631H51.2364L51.1935 60.6492C51.2195 60.6343 51.2524 60.6203 51.292 60.6073C51.3323 60.5943 51.3785 60.5878 51.4305 60.5878C51.4962 60.5878 51.555 60.5992 51.607 60.6219C51.659 60.644 51.7032 60.6759 51.7396 60.7175C51.7767 60.7591 51.8049 60.8092 51.8244 60.8677C51.8439 60.9262 51.8537 60.9915 51.8537 61.0637C51.8537 61.1319 51.8443 61.1947 51.8254 61.2519C51.8072 61.3091 51.7796 61.3591 51.7425 61.402C51.7055 61.4443 51.6587 61.4771 51.6021 61.5005C51.5462 61.5239 51.4802 61.5356 51.4042 61.5356C51.347 61.5356 51.2927 61.5278 51.2413 61.5122C51.1906 61.496 51.1451 61.4716 51.1048 61.4391C51.0652 61.4059 51.0327 61.365 51.0073 61.3162C50.9826 61.2668 50.967 61.209 50.9605 61.1426H51.1321C51.1399 61.196 51.1555 61.2408 51.1789 61.2772C51.2023 61.3136 51.2329 61.3412 51.2706 61.3601C51.3089 61.3783 51.3535 61.3874 51.4042 61.3874C51.4471 61.3874 51.4851 61.3799 51.5183 61.365C51.5514 61.35 51.5794 61.3286 51.6021 61.3006C51.6249 61.2727 51.6421 61.2389 51.6538 61.1992C51.6661 61.1595 51.6723 61.115 51.6723 61.0656C51.6723 61.0208 51.6661 60.9792 51.6538 60.9408C51.6414 60.9024 51.6229 60.869 51.5982 60.8404C51.5742 60.8118 51.5446 60.7897 51.5095 60.7741C51.4744 60.7578 51.4341 60.7497 51.3886 60.7497C51.3281 60.7497 51.2823 60.7578 51.2511 60.7741C51.2205 60.7903 51.189 60.8124 51.1565 60.8404ZM52.4466 60.8384V60.9866H51.9707V60.8384H52.4466ZM53.5631 61.0383V61.1865H52.5372V61.0802L53.173 60.0964H53.3203L53.1623 60.3811L52.742 61.0383H53.5631ZM53.3651 60.0964V61.5161H53.1847V60.0964H53.3651ZM54.6864 61.0383V61.1865H53.6606V61.0802L54.2963 60.0964H54.4436L54.2856 60.3811L53.8653 61.0383H54.6864ZM54.4884 60.0964V61.5161H54.308V60.0964H54.4884Z" fill="#8794BA"/>
<path d="M71.6339 60.0944H71.6495V60.2475H71.6339C71.5383 60.2475 71.4584 60.2631 71.394 60.2943C71.3296 60.3249 71.2786 60.3661 71.2409 60.4181C71.2032 60.4695 71.1759 60.5274 71.159 60.5917C71.1427 60.6561 71.1346 60.7214 71.1346 60.7877V60.9964C71.1346 61.0594 71.1421 61.1153 71.157 61.1641C71.172 61.2122 71.1925 61.2528 71.2185 61.286C71.2445 61.3191 71.2737 61.3442 71.3062 61.3611C71.3394 61.378 71.3738 61.3864 71.4096 61.3864C71.4512 61.3864 71.4883 61.3786 71.5208 61.363C71.5533 61.3468 71.5806 61.3243 71.6027 61.2957C71.6254 61.2665 71.6426 61.232 71.6543 61.1924C71.6661 61.1527 71.6719 61.1092 71.6719 61.0617C71.6719 61.0195 71.6667 60.9788 71.6563 60.9398C71.6459 60.9002 71.63 60.8651 71.6085 60.8345C71.5871 60.8033 71.5601 60.7789 71.5276 60.7614C71.4957 60.7432 71.4577 60.7341 71.4135 60.7341C71.3634 60.7341 71.3166 60.7464 71.2731 60.7711C71.2302 60.7952 71.1947 60.827 71.1668 60.8667C71.1395 60.9057 71.1239 60.9483 71.12 60.9944L71.0244 60.9935C71.0335 60.9206 71.0504 60.8586 71.0751 60.8072C71.1005 60.7552 71.1317 60.713 71.1687 60.6804C71.2065 60.6473 71.2484 60.6232 71.2945 60.6083C71.3413 60.5927 71.3907 60.5849 71.4428 60.5849C71.5136 60.5849 71.5747 60.5982 71.6261 60.6249C71.6774 60.6515 71.7197 60.6873 71.7528 60.7321C71.786 60.7763 71.8104 60.8264 71.826 60.8823C71.8422 60.9375 71.8503 60.9944 71.8503 61.0529C71.8503 61.1199 71.8409 61.1826 71.8221 61.2411C71.8032 61.2996 71.7749 61.351 71.7372 61.3952C71.7002 61.4394 71.6543 61.4739 71.5997 61.4986C71.5451 61.5233 71.4818 61.5356 71.4096 61.5356C71.3329 61.5356 71.2659 61.52 71.2087 61.4888C71.1515 61.457 71.1041 61.4147 71.0664 61.362C71.0287 61.3094 71.0004 61.2509 70.9815 61.1865C70.9627 61.1222 70.9532 61.0568 70.9532 60.9905V60.9057C70.9532 60.8056 70.9633 60.7074 70.9835 60.6112C71.0036 60.515 71.0384 60.4279 71.0878 60.3499C71.1379 60.2719 71.2071 60.2098 71.2955 60.1636C71.3839 60.1175 71.4967 60.0944 71.6339 60.0944ZM72.293 60.8404L72.1487 60.8033L72.2199 60.0964H72.9483V60.2631H72.373L72.3301 60.6492C72.3561 60.6343 72.3889 60.6203 72.4286 60.6073C72.4689 60.5943 72.515 60.5878 72.5671 60.5878C72.6327 60.5878 72.6915 60.5992 72.7435 60.6219C72.7956 60.644 72.8398 60.6759 72.8762 60.7175C72.9132 60.7591 72.9415 60.8092 72.961 60.8677C72.9805 60.9262 72.9902 60.9915 72.9902 61.0637C72.9902 61.1319 72.9808 61.1947 72.962 61.2519C72.9438 61.3091 72.9161 61.3591 72.8791 61.402C72.842 61.4443 72.7952 61.4771 72.7387 61.5005C72.6828 61.5239 72.6168 61.5356 72.5407 61.5356C72.4835 61.5356 72.4292 61.5278 72.3779 61.5122C72.3272 61.496 72.2817 61.4716 72.2414 61.4391C72.2017 61.4059 72.1692 61.365 72.1439 61.3162C72.1192 61.2668 72.1035 61.209 72.097 61.1426H72.2687C72.2765 61.196 72.2921 61.2408 72.3155 61.2772C72.3389 61.3136 72.3694 61.3412 72.4071 61.3601C72.4455 61.3783 72.49 61.3874 72.5407 61.3874C72.5836 61.3874 72.6217 61.3799 72.6548 61.365C72.688 61.35 72.7159 61.3286 72.7387 61.3006C72.7614 61.2727 72.7786 61.2389 72.7903 61.1992C72.8027 61.1595 72.8089 61.115 72.8089 61.0656C72.8089 61.0208 72.8027 60.9792 72.7903 60.9408C72.778 60.9024 72.7595 60.869 72.7348 60.8404C72.7107 60.8118 72.6811 60.7897 72.646 60.7741C72.6109 60.7578 72.5706 60.7497 72.5251 60.7497C72.4647 60.7497 72.4188 60.7578 72.3876 60.7741C72.3571 60.7903 72.3255 60.8124 72.293 60.8404ZM74.1194 60.7546V60.9242H73.1463V60.7546H74.1194ZM73.7235 60.3401V61.3737H73.5431V60.3401H73.7235Z" fill="#8794BA"/>
</svg>
