<svg width="101" height="69" viewBox="0 0 101 69" fill="none" xmlns="http://www.w3.org/2000/svg">
<rect x="0.47998" y="0.0441895" width="99.851" height="68.2315" rx="4.99255" fill="white"/>
<rect x="10.6318" y="57.7914" width="0.166419" height="79.5479" transform="rotate(-90 10.6318 57.7914)" fill="#EEEEF7"/>
<rect x="10.6313" y="50.9683" width="0.166419" height="79.5479" transform="rotate(-90 10.6313 50.9683)" fill="#EEEEF7"/>
<rect x="10.6313" y="44.145" width="0.166419" height="79.5479" transform="rotate(-90 10.6313 44.145)" fill="#EEEEF7"/>
<rect x="10.6313" y="37.3219" width="0.166419" height="79.5479" transform="rotate(-90 10.6313 37.3219)" fill="#EEEEF7"/>
<rect x="10.6313" y="30.4988" width="0.166419" height="79.5479" transform="rotate(-90 10.6313 30.4988)" fill="#EEEEF7"/>
<rect x="10.6313" y="23.6757" width="0.166419" height="79.5479" transform="rotate(-90 10.6313 23.6757)" fill="#EEEEF7"/>
<rect x="10.6313" y="16.8524" width="0.166419" height="79.5479" transform="rotate(-90 10.6313 16.8524)" fill="#EEEEF7"/>
<rect x="10.6313" y="10.0293" width="0.166419" height="79.5479" transform="rotate(-90 10.6313 10.0293)" fill="#EEEEF7"/>
<path d="M10.6239 59.5287V60.9563H10.4435V59.754L10.0798 59.8866V59.7238L10.5957 59.5287H10.6239ZM12.0495 60.5721C12.0495 60.6586 12.0294 60.732 11.9891 60.7925C11.9494 60.8523 11.8955 60.8978 11.8272 60.929C11.7596 60.9602 11.6832 60.9758 11.5981 60.9758C11.5129 60.9758 11.4362 60.9602 11.3679 60.929C11.2997 60.8978 11.2457 60.8523 11.2061 60.7925C11.1664 60.732 11.1466 60.6586 11.1466 60.5721C11.1466 60.5156 11.1573 60.4639 11.1788 60.4171C11.2009 60.3696 11.2317 60.3283 11.2714 60.2932C11.3117 60.2581 11.3592 60.2311 11.4138 60.2123C11.469 60.1928 11.5298 60.183 11.5961 60.183C11.6832 60.183 11.7609 60.1999 11.8292 60.2337C11.8974 60.2669 11.9511 60.3127 11.9901 60.3712C12.0297 60.4297 12.0495 60.4967 12.0495 60.5721ZM11.8682 60.5682C11.8682 60.5156 11.8568 60.4691 11.834 60.4288C11.8113 60.3878 11.7794 60.356 11.7385 60.3332C11.6975 60.3105 11.6501 60.2991 11.5961 60.2991C11.5409 60.2991 11.4931 60.3105 11.4528 60.3332C11.4131 60.356 11.3822 60.3878 11.3601 60.4288C11.338 60.4691 11.327 60.5156 11.327 60.5682C11.327 60.6228 11.3377 60.6696 11.3592 60.7086C11.3813 60.747 11.4125 60.7766 11.4528 60.7974C11.4937 60.8175 11.5422 60.8276 11.5981 60.8276C11.654 60.8276 11.7021 60.8175 11.7424 60.7974C11.7827 60.7766 11.8136 60.747 11.835 60.7086C11.8571 60.6696 11.8682 60.6228 11.8682 60.5682ZM12.0164 59.9061C12.0164 59.975 11.9982 60.0371 11.9618 60.0924C11.9254 60.1476 11.8756 60.1912 11.8126 60.223C11.7495 60.2549 11.678 60.2708 11.5981 60.2708C11.5168 60.2708 11.4443 60.2549 11.3806 60.223C11.3176 60.1912 11.2682 60.1476 11.2324 60.0924C11.1966 60.0371 11.1788 59.975 11.1788 59.9061C11.1788 59.8235 11.1966 59.7533 11.2324 59.6955C11.2688 59.6376 11.3185 59.5934 11.3816 59.5629C11.4446 59.5323 11.5165 59.517 11.5971 59.517C11.6783 59.517 11.7505 59.5323 11.8136 59.5629C11.8766 59.5934 11.926 59.6376 11.9618 59.6955C11.9982 59.7533 12.0164 59.8235 12.0164 59.9061ZM11.836 59.909C11.836 59.8616 11.8259 59.8196 11.8058 59.7832C11.7856 59.7468 11.7577 59.7182 11.7219 59.6974C11.6861 59.676 11.6445 59.6653 11.5971 59.6653C11.5496 59.6653 11.508 59.6753 11.4723 59.6955C11.4372 59.715 11.4095 59.7429 11.3894 59.7793C11.3699 59.8157 11.3601 59.859 11.3601 59.909C11.3601 59.9578 11.3699 60.0004 11.3894 60.0368C11.4095 60.0732 11.4375 60.1015 11.4733 60.1216C11.509 60.1418 11.5506 60.1518 11.5981 60.1518C11.6455 60.1518 11.6868 60.1418 11.7219 60.1216C11.7577 60.1015 11.7856 60.0732 11.8058 60.0368C11.8259 60.0004 11.836 59.9578 11.836 59.909ZM12.6726 60.2786V60.4268H12.1968V60.2786H12.6726ZM13.7599 60.8081V60.9563H12.8306V60.8266L13.2957 60.3088C13.3529 60.2451 13.3971 60.1912 13.4283 60.147C13.4602 60.1021 13.4823 60.0621 13.4946 60.027C13.5076 59.9913 13.5141 59.9549 13.5141 59.9178C13.5141 59.871 13.5044 59.8287 13.4849 59.791C13.466 59.7527 13.4381 59.7221 13.401 59.6994C13.364 59.6766 13.3191 59.6653 13.2665 59.6653C13.2034 59.6653 13.1508 59.6776 13.1085 59.7023C13.0669 59.7264 13.0357 59.7602 13.0149 59.8037C12.9941 59.8473 12.9837 59.8973 12.9837 59.9539H12.8033C12.8033 59.8739 12.8208 59.8008 12.856 59.7345C12.8911 59.6682 12.9431 59.6155 13.012 59.5765C13.0809 59.5369 13.1657 59.517 13.2665 59.517C13.3562 59.517 13.4329 59.533 13.4966 59.5648C13.5603 59.596 13.6091 59.6402 13.6429 59.6974C13.6773 59.754 13.6945 59.8203 13.6945 59.8964C13.6945 59.938 13.6874 59.9802 13.6731 60.0231C13.6594 60.0654 13.6403 60.1076 13.6156 60.1499C13.5915 60.1921 13.5632 60.2337 13.5307 60.2747C13.4989 60.3157 13.4647 60.356 13.4283 60.3956L13.048 60.8081H13.7599ZM14.9125 60.4785V60.6267H13.8866V60.5204L14.5224 59.5365H14.6697L14.5117 59.8213L14.0914 60.4785H14.9125ZM14.7145 59.5365V60.9563H14.5341V59.5365H14.7145Z" fill="#8794BA"/>
<path d="M48.2377 60.1577H48.3664C48.4295 60.1577 48.4815 60.1473 48.5224 60.1265C48.564 60.105 48.5949 60.0761 48.6151 60.0397C48.6359 60.0026 48.6463 59.961 48.6463 59.9149C48.6463 59.8603 48.6372 59.8144 48.619 59.7774C48.6008 59.7403 48.5735 59.7124 48.5371 59.6935C48.5007 59.6747 48.4545 59.6653 48.3986 59.6653C48.3479 59.6653 48.303 59.6753 48.264 59.6955C48.2257 59.715 48.1955 59.7429 48.1733 59.7793C48.1519 59.8157 48.1412 59.8587 48.1412 59.9081H47.9608C47.9608 59.8359 47.979 59.7702 48.0154 59.7111C48.0518 59.6519 48.1028 59.6048 48.1685 59.5697C48.2348 59.5346 48.3115 59.517 48.3986 59.517C48.4844 59.517 48.5595 59.5323 48.6238 59.5629C48.6882 59.5928 48.7383 59.6376 48.774 59.6974C48.8098 59.7566 48.8276 59.8304 48.8276 59.9188C48.8276 59.9545 48.8192 59.9929 48.8023 60.0338C48.786 60.0742 48.7604 60.1119 48.7253 60.147C48.6908 60.1821 48.6459 60.211 48.5907 60.2337C48.5354 60.2558 48.4691 60.2669 48.3918 60.2669H48.2377V60.1577ZM48.2377 60.3059V60.1977H48.3918C48.4821 60.1977 48.5569 60.2084 48.616 60.2298C48.6752 60.2513 48.7217 60.2799 48.7555 60.3157C48.7899 60.3514 48.814 60.3907 48.8276 60.4336C48.8419 60.4759 48.8491 60.5182 48.8491 60.5604C48.8491 60.6267 48.8377 60.6855 48.815 60.7369C48.7929 60.7883 48.7613 60.8318 48.7204 60.8676C48.6801 60.9033 48.6326 60.9303 48.578 60.9485C48.5234 60.9667 48.4639 60.9758 48.3996 60.9758C48.3378 60.9758 48.2796 60.967 48.225 60.9495C48.1711 60.9319 48.1233 60.9066 48.0817 60.8734C48.0401 60.8396 48.0076 60.7983 47.9842 60.7496C47.9608 60.7002 47.9491 60.6439 47.9491 60.5809H48.1295C48.1295 60.6303 48.1402 60.6735 48.1616 60.7106C48.1837 60.7476 48.215 60.7766 48.2553 60.7974C48.2962 60.8175 48.3443 60.8276 48.3996 60.8276C48.4548 60.8276 48.5023 60.8182 48.5419 60.7993C48.5822 60.7798 48.6131 60.7506 48.6346 60.7115C48.6567 60.6725 48.6677 60.6235 48.6677 60.5643C48.6677 60.5051 48.6554 60.4567 48.6307 60.419C48.606 60.3807 48.5709 60.3524 48.5254 60.3342C48.4805 60.3153 48.4275 60.3059 48.3664 60.3059H48.2377ZM49.3259 60.2805L49.1816 60.2435L49.2528 59.5365H49.9812V59.7033H49.4059L49.363 60.0894C49.389 60.0745 49.4218 60.0605 49.4615 60.0475C49.5018 60.0345 49.5479 60.028 49.5999 60.028C49.6656 60.028 49.7244 60.0394 49.7764 60.0621C49.8284 60.0842 49.8726 60.1161 49.909 60.1577C49.9461 60.1993 49.9744 60.2493 49.9939 60.3079C50.0134 60.3664 50.0231 60.4317 50.0231 60.5038C50.0231 60.5721 50.0137 60.6348 49.9948 60.692C49.9766 60.7493 49.949 60.7993 49.912 60.8422C49.8749 60.8845 49.8281 60.9173 49.7715 60.9407C49.7156 60.9641 49.6497 60.9758 49.5736 60.9758C49.5164 60.9758 49.4621 60.968 49.4108 60.9524C49.3601 60.9361 49.3145 60.9118 49.2742 60.8793C49.2346 60.8461 49.2021 60.8052 49.1767 60.7564C49.152 60.707 49.1364 60.6491 49.1299 60.5828H49.3015C49.3093 60.6361 49.3249 60.681 49.3484 60.7174C49.3718 60.7538 49.4023 60.7814 49.44 60.8003C49.4784 60.8185 49.5229 60.8276 49.5736 60.8276C49.6165 60.8276 49.6545 60.8201 49.6877 60.8052C49.7208 60.7902 49.7488 60.7688 49.7715 60.7408C49.7943 60.7128 49.8115 60.679 49.8232 60.6394C49.8356 60.5997 49.8418 60.5552 49.8418 60.5058C49.8418 60.4609 49.8356 60.4193 49.8232 60.381C49.8109 60.3426 49.7924 60.3092 49.7676 60.2805C49.7436 60.2519 49.714 60.2298 49.6789 60.2142C49.6438 60.198 49.6035 60.1899 49.558 60.1899C49.4975 60.1899 49.4517 60.198 49.4205 60.2142C49.39 60.2305 49.3584 60.2526 49.3259 60.2805ZM50.616 60.2786V60.4268H50.1401V60.2786H50.616ZM51.7325 60.4785V60.6267H50.7067V60.5204L51.3424 59.5365H51.4897L51.3317 59.8213L50.9114 60.4785H51.7325ZM51.5345 59.5365V60.9563H51.3541V59.5365H51.5345ZM52.8558 60.4785V60.6267H51.83V60.5204L52.4658 59.5365H52.613L52.455 59.8213L52.0348 60.4785H52.8558ZM52.6579 59.5365V60.9563H52.4775V59.5365H52.6579Z" fill="#8794BA"/>
<path d="M87.6099 59.5346H87.6255V59.6877H87.6099C87.5144 59.6877 87.4344 59.7033 87.3701 59.7345C87.3057 59.765 87.2547 59.8063 87.217 59.8583C87.1793 59.9097 87.152 59.9675 87.1351 60.0319C87.1188 60.0963 87.1107 60.1616 87.1107 60.2279V60.4366C87.1107 60.4996 87.1182 60.5555 87.1331 60.6043C87.1481 60.6524 87.1685 60.693 87.1946 60.7262C87.2206 60.7593 87.2498 60.7844 87.2823 60.8013C87.3155 60.8182 87.3499 60.8266 87.3857 60.8266C87.4273 60.8266 87.4643 60.8188 87.4968 60.8032C87.5293 60.787 87.5566 60.7645 87.5787 60.7359C87.6015 60.7067 87.6187 60.6722 87.6304 60.6326C87.6421 60.5929 87.648 60.5494 87.648 60.5019C87.648 60.4596 87.6428 60.419 87.6324 60.38C87.622 60.3404 87.606 60.3053 87.5846 60.2747C87.5631 60.2435 87.5362 60.2191 87.5037 60.2016C87.4718 60.1834 87.4338 60.1743 87.3896 60.1743C87.3395 60.1743 87.2927 60.1866 87.2492 60.2113C87.2063 60.2354 87.1708 60.2672 87.1429 60.3069C87.1156 60.3459 87.1 60.3885 87.0961 60.4346L87.0005 60.4336C87.0096 60.3608 87.0265 60.2988 87.0512 60.2474C87.0766 60.1954 87.1078 60.1531 87.1448 60.1206C87.1825 60.0875 87.2245 60.0634 87.2706 60.0485C87.3174 60.0329 87.3668 60.0251 87.4188 60.0251C87.4897 60.0251 87.5508 60.0384 87.6021 60.0651C87.6535 60.0917 87.6958 60.1275 87.7289 60.1723C87.7621 60.2165 87.7864 60.2666 87.802 60.3225C87.8183 60.3777 87.8264 60.4346 87.8264 60.4931C87.8264 60.5601 87.817 60.6228 87.7981 60.6813C87.7793 60.7398 87.751 60.7912 87.7133 60.8354C87.6763 60.8796 87.6304 60.914 87.5758 60.9387C87.5212 60.9634 87.4578 60.9758 87.3857 60.9758C87.309 60.9758 87.242 60.9602 87.1848 60.929C87.1276 60.8971 87.0801 60.8549 87.0424 60.8022C87.0047 60.7496 86.9765 60.6911 86.9576 60.6267C86.9387 60.5624 86.9293 60.497 86.9293 60.4307V60.3459C86.9293 60.2458 86.9394 60.1476 86.9596 60.0514C86.9797 59.9552 87.0145 59.8681 87.0639 59.7901C87.1139 59.7121 87.1832 59.65 87.2716 59.6038C87.36 59.5577 87.4728 59.5346 87.6099 59.5346ZM88.2691 60.2805L88.1248 60.2435L88.196 59.5365H88.9244V59.7033H88.3491L88.3062 60.0894C88.3322 60.0745 88.365 60.0605 88.4047 60.0475C88.445 60.0345 88.4911 60.028 88.5431 60.028C88.6088 60.028 88.6676 60.0394 88.7196 60.0621C88.7716 60.0842 88.8158 60.1161 88.8522 60.1577C88.8893 60.1993 88.9176 60.2493 88.9371 60.3079C88.9566 60.3664 88.9663 60.4317 88.9663 60.5038C88.9663 60.5721 88.9569 60.6348 88.938 60.692C88.9198 60.7493 88.8922 60.7993 88.8552 60.8422C88.8181 60.8845 88.7713 60.9173 88.7147 60.9407C88.6588 60.9641 88.5929 60.9758 88.5168 60.9758C88.4596 60.9758 88.4053 60.968 88.354 60.9524C88.3032 60.9361 88.2577 60.9118 88.2174 60.8793C88.1778 60.8461 88.1453 60.8052 88.1199 60.7564C88.0952 60.707 88.0796 60.6491 88.0731 60.5828H88.2447C88.2525 60.6361 88.2681 60.681 88.2915 60.7174C88.3149 60.7538 88.3455 60.7814 88.3832 60.8003C88.4216 60.8185 88.4661 60.8276 88.5168 60.8276C88.5597 60.8276 88.5977 60.8201 88.6309 60.8052C88.664 60.7902 88.692 60.7688 88.7147 60.7408C88.7375 60.7128 88.7547 60.679 88.7664 60.6394C88.7788 60.5997 88.785 60.5552 88.785 60.5058C88.785 60.4609 88.7788 60.4193 88.7664 60.381C88.7541 60.3426 88.7355 60.3092 88.7108 60.2805C88.6868 60.2519 88.6572 60.2298 88.6221 60.2142C88.587 60.198 88.5467 60.1899 88.5012 60.1899C88.4407 60.1899 88.3949 60.198 88.3637 60.2142C88.3332 60.2305 88.3016 60.2526 88.2691 60.2805ZM90.0955 60.1947V60.3644H89.1223V60.1947H90.0955ZM89.6996 59.7803V60.8139H89.5192V59.7803H89.6996Z" fill="#8794BA"/>
<path d="M90.3455 16.7693L81.3589 40.9831L72.3724 27.3368L60.9034 33.0783L49.4344 47.4735L37.3211 45.9757L25.2078 29.001L17.7531 25.5895L10.2983 37.8212" stroke="#EF2A82" stroke-width="0.665673"/>
<path d="M10.2985 46.9741L19.2851 42.2495L28.2717 44.9122L39.7406 43.7919L51.2096 40.9831L63.3229 41.2753L75.4362 44.5874L82.8909 45.2531L90.3457 42.8664" stroke="#0088F0" stroke-width="0.665673"/>
</svg>
