<svg width="101" height="69" viewBox="0 0 101 69" fill="none" xmlns="http://www.w3.org/2000/svg">
<rect x="0.83252" y="0.0441895" width="99.851" height="68.2315" rx="4.99255" fill="white"/>
<rect x="12.2271" y="16.1868" width="10.9836" height="8.65375" fill="white"/>
<rect x="23.2104" y="16.1868" width="10.9836" height="8.65375" fill="white"/>
<path d="M28.7876 18.2815V21.8557H28.3359V18.8455L27.4253 19.1775V18.7698L28.7168 18.2815H28.7876Z" fill="#172755"/>
<rect x="34.1943" y="16.1868" width="10.9836" height="8.65375" fill="white"/>
<path d="M40.6162 21.4846V21.8557H38.2896V21.531L39.4541 20.2346C39.5973 20.0751 39.708 19.94 39.7861 19.8293C39.8659 19.717 39.9212 19.6169 39.9521 19.5291C39.9847 19.4395 40.001 19.3484 40.001 19.2556C40.001 19.1384 39.9766 19.0326 39.9277 18.9382C39.8805 18.8422 39.8105 18.7657 39.7178 18.7087C39.625 18.6518 39.5127 18.6233 39.3809 18.6233C39.223 18.6233 39.0911 18.6542 38.9854 18.7161C38.8812 18.7763 38.8031 18.8609 38.751 18.97C38.6989 19.079 38.6729 19.2043 38.6729 19.3459H38.2212C38.2212 19.1458 38.2651 18.9626 38.353 18.7966C38.4409 18.6306 38.5711 18.4988 38.7437 18.4011C38.9162 18.3018 39.1286 18.2522 39.3809 18.2522C39.6055 18.2522 39.7975 18.2921 39.957 18.3718C40.1165 18.45 40.2386 18.5606 40.3232 18.7039C40.4095 18.8455 40.4526 19.0115 40.4526 19.2019C40.4526 19.3061 40.4347 19.4119 40.3989 19.5193C40.3647 19.6251 40.3167 19.7309 40.2549 19.8367C40.1947 19.9425 40.1239 20.0466 40.0425 20.1492C39.9627 20.2517 39.8773 20.3526 39.7861 20.4519L38.834 21.4846H40.6162Z" fill="#172755"/>
<rect x="45.1777" y="16.1868" width="10.9836" height="8.65375" fill="white"/>
<path d="M49.9292 19.8562H50.2515C50.4093 19.8562 50.5396 19.8302 50.6421 19.7781C50.7463 19.7244 50.8236 19.6519 50.874 19.5608C50.9261 19.468 50.9521 19.3639 50.9521 19.2483C50.9521 19.1116 50.9294 18.9968 50.8838 18.9041C50.8382 18.8113 50.7699 18.7413 50.6787 18.6941C50.5876 18.6469 50.472 18.6233 50.332 18.6233C50.2051 18.6233 50.0928 18.6485 49.9951 18.699C49.8991 18.7478 49.8234 18.8178 49.7681 18.9089C49.7144 19.0001 49.6875 19.1075 49.6875 19.2312H49.2358C49.2358 19.0505 49.2814 18.8861 49.3726 18.738C49.4637 18.5899 49.5915 18.4719 49.7559 18.384C49.9219 18.2961 50.1139 18.2522 50.332 18.2522C50.5469 18.2522 50.7349 18.2904 50.896 18.3669C51.0571 18.4418 51.1825 18.5541 51.272 18.7039C51.3615 18.852 51.4062 19.0367 51.4062 19.2581C51.4062 19.3476 51.3851 19.4436 51.3428 19.5461C51.3021 19.6471 51.2378 19.7415 51.1499 19.8293C51.0636 19.9172 50.9513 19.9897 50.813 20.0466C50.6746 20.102 50.5086 20.1296 50.3149 20.1296H49.9292V19.8562ZM49.9292 20.2273V19.9563H50.3149C50.5412 19.9563 50.7284 19.9832 50.8765 20.0369C51.0246 20.0906 51.141 20.1622 51.2256 20.2517C51.3118 20.3412 51.3721 20.4397 51.4062 20.5471C51.4421 20.6529 51.46 20.7587 51.46 20.8645C51.46 21.0305 51.4315 21.1778 51.3745 21.3064C51.3192 21.435 51.2402 21.544 51.1377 21.6335C51.0368 21.7231 50.918 21.7906 50.7812 21.8362C50.6445 21.8818 50.4956 21.9045 50.3345 21.9045C50.1799 21.9045 50.0342 21.8826 49.8975 21.8386C49.7624 21.7947 49.6427 21.7312 49.5386 21.6482C49.4344 21.5636 49.353 21.4602 49.2944 21.3381C49.2358 21.2144 49.2065 21.0736 49.2065 20.9158H49.6582C49.6582 21.0395 49.6851 21.1477 49.7388 21.2405C49.7941 21.3333 49.8722 21.4057 49.9731 21.4578C50.0757 21.5082 50.1961 21.5334 50.3345 21.5334C50.4728 21.5334 50.5916 21.5098 50.6909 21.4626C50.7918 21.4138 50.8691 21.3406 50.9229 21.2429C50.9782 21.1453 51.0059 21.0224 51.0059 20.8743C51.0059 20.7262 50.9749 20.6049 50.9131 20.5105C50.8512 20.4145 50.7633 20.3437 50.6494 20.2981C50.5371 20.2509 50.4045 20.2273 50.2515 20.2273H49.9292Z" fill="#172755"/>
<rect x="56.1616" y="16.1868" width="10.9836" height="8.65375" fill="white"/>
<path d="M62.6567 20.6594V21.0305H60.0884V20.7644L61.6802 18.301H62.0488L61.6533 19.0139L60.6011 20.6594H62.6567ZM62.1611 18.301V21.8557H61.7095V18.301H62.1611Z" fill="#172755"/>
<rect x="67.145" y="16.1868" width="10.9836" height="8.65375" fill="white"/>
<path d="M71.8086 20.1638L71.4473 20.071L71.6255 18.301H73.4492V18.7185H72.0088L71.9014 19.6853C71.9665 19.6479 72.0487 19.6129 72.1479 19.5803C72.2489 19.5478 72.3644 19.5315 72.4946 19.5315C72.659 19.5315 72.8063 19.56 72.9365 19.6169C73.0667 19.6723 73.1774 19.752 73.2686 19.8562C73.3613 19.9604 73.4321 20.0857 73.481 20.2322C73.5298 20.3787 73.5542 20.5422 73.5542 20.7229C73.5542 20.8938 73.5306 21.0509 73.4834 21.1941C73.4378 21.3373 73.3687 21.4626 73.2759 21.5701C73.1831 21.6759 73.0659 21.7581 72.9243 21.8167C72.7843 21.8752 72.6191 21.9045 72.4287 21.9045C72.2855 21.9045 72.1496 21.885 72.021 21.8459C71.894 21.8053 71.7801 21.7442 71.6792 21.6628C71.5799 21.5798 71.4985 21.4773 71.4351 21.3552C71.3732 21.2315 71.3341 21.0867 71.3179 20.9207H71.7476C71.7671 21.0541 71.8062 21.1664 71.8647 21.2576C71.9233 21.3487 71.9998 21.4179 72.0942 21.4651C72.1903 21.5107 72.3018 21.5334 72.4287 21.5334C72.5361 21.5334 72.6313 21.5147 72.7144 21.4773C72.7974 21.4399 72.8674 21.3861 72.9243 21.3162C72.9813 21.2462 73.0244 21.1615 73.0537 21.0623C73.0846 20.963 73.1001 20.8515 73.1001 20.7278C73.1001 20.6155 73.0846 20.5113 73.0537 20.4153C73.0228 20.3193 72.9764 20.2354 72.9146 20.1638C72.8543 20.0922 72.7803 20.0369 72.6924 19.9978C72.6045 19.9571 72.5036 19.9368 72.3896 19.9368C72.2383 19.9368 72.1235 19.9571 72.0454 19.9978C71.9689 20.0385 71.89 20.0938 71.8086 20.1638Z" fill="#172755"/>
<rect x="78.1284" y="16.1868" width="10.9836" height="8.65375" fill="white"/>
<path d="M83.9546 18.2961H83.9937V18.6794H83.9546C83.7153 18.6794 83.5151 18.7185 83.354 18.7966C83.1929 18.8731 83.0651 18.9765 82.9707 19.1067C82.8763 19.2353 82.8079 19.3801 82.7656 19.5413C82.7249 19.7024 82.7046 19.866 82.7046 20.032V20.5544C82.7046 20.7123 82.7233 20.8523 82.7607 20.9744C82.7982 21.0948 82.8494 21.1965 82.9146 21.2795C82.9797 21.3625 83.0529 21.4252 83.1343 21.4675C83.2173 21.5098 83.3035 21.531 83.3931 21.531C83.4972 21.531 83.59 21.5115 83.6714 21.4724C83.7528 21.4317 83.8211 21.3756 83.8765 21.304C83.9334 21.2307 83.9766 21.1444 84.0059 21.0452C84.0352 20.9459 84.0498 20.8368 84.0498 20.718C84.0498 20.6122 84.0368 20.5105 84.0107 20.4128C83.9847 20.3136 83.9448 20.2257 83.8911 20.1492C83.8374 20.071 83.7699 20.01 83.6885 19.9661C83.6087 19.9205 83.5135 19.8977 83.4028 19.8977C83.2775 19.8977 83.1603 19.9286 83.0513 19.9905C82.9438 20.0507 82.8551 20.1305 82.7852 20.2297C82.7168 20.3274 82.6777 20.434 82.668 20.5496L82.4287 20.5471C82.4515 20.3648 82.4938 20.2094 82.5557 20.0808C82.6191 19.9506 82.6973 19.8448 82.79 19.7634C82.8844 19.6804 82.9894 19.6202 83.105 19.5828C83.2222 19.5437 83.3459 19.5242 83.4761 19.5242C83.6535 19.5242 83.8065 19.5575 83.9351 19.6243C84.0636 19.691 84.1694 19.7805 84.2524 19.8928C84.3354 20.0035 84.3965 20.1288 84.4355 20.2688C84.4762 20.4071 84.4966 20.5496 84.4966 20.696C84.4966 20.8637 84.473 21.0208 84.4258 21.1672C84.3786 21.3137 84.3078 21.4423 84.2134 21.553C84.1206 21.6637 84.0059 21.7499 83.8691 21.8118C83.7324 21.8736 83.5737 21.9045 83.3931 21.9045C83.201 21.9045 83.0334 21.8655 82.8901 21.7874C82.7469 21.7076 82.6281 21.6018 82.5337 21.47C82.4393 21.3381 82.3685 21.1917 82.3213 21.0305C82.2741 20.8694 82.2505 20.7058 82.2505 20.5398V20.3274C82.2505 20.0767 82.2757 19.831 82.3262 19.5901C82.3766 19.3492 82.4637 19.1311 82.5874 18.9358C82.7127 18.7405 82.8861 18.585 83.1074 18.4695C83.3288 18.3539 83.6112 18.2961 83.9546 18.2961Z" fill="#172755"/>
<rect x="12.2271" y="24.8406" width="10.9836" height="8.65375" fill="white"/>
<path d="M18.6167 26.9547V27.2086L17.1445 30.5094H16.6685L18.1382 27.3258H16.2144V26.9547H18.6167Z" fill="#172755"/>
<rect x="23.2104" y="24.8406" width="10.9836" height="8.65375" fill="white"/>
<circle cx="28.6192" cy="29.0841" r="3.24516" fill="#0088F0"/>
<path d="M29.5444 29.5475C29.5444 29.764 29.494 29.9479 29.3931 30.0992C29.2938 30.249 29.1587 30.3629 28.9878 30.441C28.8185 30.5192 28.6273 30.5582 28.4141 30.5582C28.2008 30.5582 28.0088 30.5192 27.8379 30.441C27.667 30.3629 27.5319 30.249 27.4326 30.0992C27.3333 29.9479 27.2837 29.764 27.2837 29.5475C27.2837 29.4059 27.3105 29.2765 27.3643 29.1593C27.4196 29.0405 27.4969 28.9371 27.5962 28.8492C27.6971 28.7614 27.8159 28.6938 27.9526 28.6466C28.091 28.5978 28.2432 28.5734 28.4092 28.5734C28.6273 28.5734 28.8218 28.6157 28.9927 28.7003C29.1636 28.7833 29.2979 28.8981 29.3955 29.0446C29.4948 29.191 29.5444 29.3587 29.5444 29.5475ZM29.0903 29.5377C29.0903 29.4059 29.0618 29.2895 29.0049 29.1886C28.9479 29.0861 28.8682 29.0063 28.7656 28.9493C28.6631 28.8924 28.5443 28.8639 28.4092 28.8639C28.2708 28.8639 28.1512 28.8924 28.0503 28.9493C27.951 29.0063 27.8737 29.0861 27.8184 29.1886C27.763 29.2895 27.7354 29.4059 27.7354 29.5377C27.7354 29.6744 27.7622 29.7916 27.8159 29.8893C27.8713 29.9853 27.9494 30.0594 28.0503 30.1115C28.1528 30.1619 28.2741 30.1871 28.4141 30.1871C28.554 30.1871 28.6745 30.1619 28.7754 30.1115C28.8763 30.0594 28.9536 29.9853 29.0073 29.8893C29.0627 29.7916 29.0903 29.6744 29.0903 29.5377ZM29.4614 27.88C29.4614 28.0525 29.4159 28.208 29.3247 28.3463C29.2336 28.4847 29.109 28.5937 28.9512 28.6735C28.7933 28.7532 28.6143 28.7931 28.4141 28.7931C28.2106 28.7931 28.0291 28.7532 27.8696 28.6735C27.7118 28.5937 27.5881 28.4847 27.4985 28.3463C27.409 28.208 27.3643 28.0525 27.3643 27.88C27.3643 27.6733 27.409 27.4975 27.4985 27.3527C27.5897 27.2078 27.7142 27.0971 27.8721 27.0206C28.0299 26.9441 28.2098 26.9059 28.4116 26.9059C28.6151 26.9059 28.7957 26.9441 28.9536 27.0206C29.1115 27.0971 29.2352 27.2078 29.3247 27.3527C29.4159 27.4975 29.4614 27.6733 29.4614 27.88ZM29.0098 27.8873C29.0098 27.7685 28.9845 27.6635 28.9341 27.5724C28.8836 27.4812 28.8136 27.4096 28.7241 27.3575C28.6346 27.3038 28.5304 27.277 28.4116 27.277C28.2928 27.277 28.1886 27.3022 28.0991 27.3527C28.0112 27.4015 27.9421 27.4715 27.8916 27.5626C27.8428 27.6538 27.8184 27.762 27.8184 27.8873C27.8184 28.0094 27.8428 28.116 27.8916 28.2072C27.9421 28.2983 28.012 28.3691 28.1016 28.4196C28.1911 28.47 28.2952 28.4952 28.4141 28.4952C28.5329 28.4952 28.6362 28.47 28.7241 28.4196C28.8136 28.3691 28.8836 28.2983 28.9341 28.2072C28.9845 28.116 29.0098 28.0094 29.0098 27.8873Z" fill="#EEEEF7"/>
<rect x="34.1943" y="24.8406" width="10.9836" height="8.65375" fill="white"/>
<circle cx="39.6031" cy="29.0841" r="3.24516" fill="#0088F0"/>
<path d="M38.7363 30.131H38.7827C39.0431 30.131 39.2547 30.0944 39.4175 30.0211C39.5802 29.9479 39.7056 29.8494 39.7935 29.7257C39.8813 29.602 39.9416 29.4628 39.9741 29.3082C40.0067 29.152 40.0229 28.9917 40.0229 28.8273V28.2828C40.0229 28.1217 40.0042 27.9785 39.9668 27.8531C39.931 27.7278 39.8805 27.6228 39.8154 27.5382C39.752 27.4536 39.6795 27.3893 39.5981 27.3453C39.5168 27.3014 39.4305 27.2794 39.3394 27.2794C39.2352 27.2794 39.1416 27.3006 39.0586 27.3429C38.9772 27.3836 38.908 27.4414 38.8511 27.5162C38.7957 27.5911 38.7534 27.679 38.7241 27.7799C38.6948 27.8808 38.6802 27.9907 38.6802 28.1095C38.6802 28.2153 38.6932 28.3178 38.7192 28.4171C38.7453 28.5164 38.7852 28.6059 38.8389 28.6857C38.8926 28.7654 38.9593 28.8289 39.0391 28.8761C39.1204 28.9217 39.2157 28.9445 39.3247 28.9445C39.4256 28.9445 39.52 28.9249 39.6079 28.8859C39.6974 28.8452 39.7764 28.7906 39.8447 28.7223C39.9147 28.6523 39.9701 28.5734 40.0107 28.4855C40.0531 28.3976 40.0775 28.3056 40.084 28.2096H40.2988C40.2988 28.3447 40.272 28.4781 40.2183 28.61C40.1662 28.7402 40.0929 28.859 39.9985 28.9664C39.9041 29.0739 39.7935 29.1601 39.6665 29.2252C39.5396 29.2887 39.4012 29.3204 39.2515 29.3204C39.0757 29.3204 38.9235 29.2863 38.7949 29.2179C38.6663 29.1495 38.5605 29.0584 38.4775 28.9445C38.3962 28.8305 38.3351 28.7036 38.2944 28.5636C38.2554 28.422 38.2358 28.2788 38.2358 28.1339C38.2358 27.9646 38.2594 27.8059 38.3066 27.6578C38.3538 27.5097 38.4238 27.3795 38.5166 27.2672C38.6094 27.1533 38.7241 27.0646 38.8608 27.0011C38.9992 26.9376 39.1587 26.9059 39.3394 26.9059C39.5428 26.9059 39.7161 26.9466 39.8594 27.028C40.0026 27.1093 40.119 27.2184 40.2085 27.3551C40.2996 27.4918 40.3664 27.6456 40.4087 27.8165C40.451 27.9874 40.4722 28.1632 40.4722 28.3439V28.5074C40.4722 28.6914 40.46 28.8785 40.4355 29.069C40.4128 29.2578 40.368 29.4384 40.3013 29.611C40.2362 29.7835 40.141 29.9381 40.0156 30.0748C39.8903 30.2099 39.7267 30.3173 39.5249 30.3971C39.3247 30.4752 39.0773 30.5143 38.7827 30.5143H38.7363V30.131Z" fill="#EEEEF7"/>
<rect x="45.1777" y="24.8406" width="10.9836" height="8.65375" fill="white"/>
<circle cx="50.5865" cy="29.0841" r="3.24516" fill="#0088F0"/>
<path d="M49.0151 26.9352V30.5094H48.5635V27.4991L47.6528 27.8312V27.4235L48.9443 26.9352H49.0151ZM52.5747 28.4489V28.9908C52.5747 29.2822 52.5487 29.528 52.4966 29.7281C52.4445 29.9283 52.3696 30.0895 52.272 30.2115C52.1743 30.3336 52.0563 30.4223 51.918 30.4777C51.7812 30.5314 51.6266 30.5582 51.4541 30.5582C51.3174 30.5582 51.1912 30.5411 51.0757 30.507C50.9601 30.4728 50.856 30.4183 50.7632 30.3434C50.672 30.2669 50.5939 30.1676 50.5288 30.0455C50.4637 29.9235 50.4141 29.7753 50.3799 29.6012C50.3457 29.427 50.3286 29.2236 50.3286 28.9908V28.4489C50.3286 28.1575 50.3547 27.9134 50.4067 27.7164C50.4604 27.5195 50.5361 27.3616 50.6338 27.2428C50.7314 27.1224 50.8486 27.0361 50.9854 26.984C51.1237 26.9319 51.2783 26.9059 51.4492 26.9059C51.5876 26.9059 51.7145 26.923 51.8301 26.9572C51.9473 26.9897 52.0514 27.0426 52.1426 27.1158C52.2337 27.1875 52.311 27.2835 52.3745 27.4039C52.4396 27.5227 52.4893 27.6684 52.5234 27.8409C52.5576 28.0135 52.5747 28.2161 52.5747 28.4489ZM52.1206 29.0641V28.3732C52.1206 28.2137 52.1108 28.0737 52.0913 27.9532C52.0734 27.8312 52.0465 27.727 52.0107 27.6407C51.9749 27.5545 51.9294 27.4845 51.874 27.4308C51.8203 27.3771 51.7576 27.338 51.686 27.3136C51.616 27.2876 51.5371 27.2745 51.4492 27.2745C51.3418 27.2745 51.2466 27.2949 51.1636 27.3356C51.0806 27.3746 51.0106 27.4373 50.9536 27.5236C50.8983 27.6098 50.856 27.7229 50.8267 27.8629C50.7974 28.0029 50.7827 28.173 50.7827 28.3732V29.0641C50.7827 29.2236 50.7917 29.3644 50.8096 29.4865C50.8291 29.6085 50.8576 29.7143 50.895 29.8038C50.9325 29.8917 50.978 29.9642 51.0317 30.0211C51.0854 30.0781 51.1473 30.1204 51.2173 30.1481C51.2889 30.1741 51.3678 30.1871 51.4541 30.1871C51.5648 30.1871 51.6616 30.166 51.7446 30.1237C51.8276 30.0813 51.8968 30.0154 51.9521 29.9259C52.0091 29.8348 52.0514 29.7184 52.0791 29.5768C52.1068 29.4336 52.1206 29.2627 52.1206 29.0641Z" fill="#EEEEF7"/>
<rect x="56.1616" y="24.8406" width="10.9836" height="8.65375" fill="white"/>
<path d="M59.999 26.9352V30.5094H59.5474V27.4991L58.6367 27.8312V27.4235L59.9282 26.9352H59.999ZM62.8115 26.9352V30.5094H62.3599V27.4991L61.4492 27.8312V27.4235L62.7407 26.9352H62.8115Z" fill="#172755"/>
<rect x="67.145" y="24.8406" width="10.9836" height="8.65375" fill="white"/>
<path d="M70.9819 26.9352V30.5094H70.5303V27.4991L69.6196 27.8312V27.4235L70.9111 26.9352H70.9819ZM74.6392 30.1383V30.5094H72.3125V30.1847L73.4771 28.8883C73.6203 28.7288 73.731 28.5937 73.8091 28.483C73.8888 28.3707 73.9442 28.2706 73.9751 28.1827C74.0076 28.0932 74.0239 28.0021 74.0239 27.9093C74.0239 27.7921 73.9995 27.6863 73.9507 27.5919C73.9035 27.4959 73.8335 27.4194 73.7407 27.3624C73.6479 27.3055 73.5356 27.277 73.4038 27.277C73.2459 27.277 73.1141 27.3079 73.0083 27.3698C72.9041 27.43 72.826 27.5146 72.7739 27.6237C72.7218 27.7327 72.6958 27.858 72.6958 27.9996H72.2441C72.2441 27.7994 72.2881 27.6163 72.376 27.4503C72.4639 27.2843 72.5941 27.1525 72.7666 27.0548C72.9391 26.9555 73.1515 26.9059 73.4038 26.9059C73.6284 26.9059 73.8205 26.9458 73.98 27.0255C74.1395 27.1036 74.2616 27.2143 74.3462 27.3575C74.4325 27.4991 74.4756 27.6652 74.4756 27.8556C74.4756 27.9598 74.4577 28.0656 74.4219 28.173C74.3877 28.2788 74.3397 28.3846 74.2778 28.4904C74.2176 28.5962 74.1468 28.7003 74.0654 28.8029C73.9857 28.9054 73.9002 29.0063 73.8091 29.1056L72.8569 30.1383H74.6392Z" fill="#172755"/>
<rect x="78.1284" y="24.8406" width="10.9836" height="8.65375" fill="white"/>
<path d="M81.9658 26.9352V30.5094H81.5142V27.4991L80.6035 27.8312V27.4235L81.895 26.9352H81.9658ZM83.9531 28.5099H84.2754C84.4333 28.5099 84.5635 28.4838 84.666 28.4318C84.7702 28.3781 84.8475 28.3056 84.8979 28.2145C84.95 28.1217 84.9761 28.0175 84.9761 27.902C84.9761 27.7653 84.9533 27.6505 84.9077 27.5577C84.8621 27.465 84.7938 27.395 84.7026 27.3478C84.6115 27.3006 84.4959 27.277 84.356 27.277C84.229 27.277 84.1167 27.3022 84.019 27.3527C83.923 27.4015 83.8473 27.4715 83.792 27.5626C83.7383 27.6538 83.7114 27.7612 83.7114 27.8849H83.2598C83.2598 27.7042 83.3053 27.5398 83.3965 27.3917C83.4876 27.2436 83.6154 27.1256 83.7798 27.0377C83.9458 26.9498 84.1379 26.9059 84.356 26.9059C84.5708 26.9059 84.7588 26.9441 84.9199 27.0206C85.0811 27.0955 85.2064 27.2078 85.2959 27.3575C85.3854 27.5057 85.4302 27.6904 85.4302 27.9117C85.4302 28.0013 85.409 28.0973 85.3667 28.1998C85.326 28.3007 85.2617 28.3951 85.1738 28.483C85.0876 28.5709 84.9753 28.6434 84.8369 28.7003C84.6986 28.7557 84.5326 28.7833 84.3389 28.7833H83.9531V28.5099ZM83.9531 28.881V28.61H84.3389C84.5651 28.61 84.7523 28.6368 84.9004 28.6906C85.0485 28.7443 85.1649 28.8159 85.2495 28.9054C85.3358 28.9949 85.396 29.0934 85.4302 29.2008C85.466 29.3066 85.4839 29.4124 85.4839 29.5182C85.4839 29.6842 85.4554 29.8315 85.3984 29.9601C85.3431 30.0887 85.2642 30.1977 85.1616 30.2872C85.0607 30.3767 84.9419 30.4443 84.8052 30.4899C84.6685 30.5354 84.5195 30.5582 84.3584 30.5582C84.2038 30.5582 84.0581 30.5363 83.9214 30.4923C83.7863 30.4484 83.6667 30.3849 83.5625 30.3019C83.4583 30.2172 83.377 30.1139 83.3184 29.9918C83.2598 29.8681 83.2305 29.7273 83.2305 29.5695H83.6821C83.6821 29.6932 83.709 29.8014 83.7627 29.8942C83.818 29.9869 83.8962 30.0594 83.9971 30.1115C84.0996 30.1619 84.2201 30.1871 84.3584 30.1871C84.4967 30.1871 84.6156 30.1635 84.7148 30.1163C84.8158 30.0675 84.8931 29.9943 84.9468 29.8966C85.0021 29.799 85.0298 29.6761 85.0298 29.528C85.0298 29.3798 84.9989 29.2586 84.937 29.1642C84.8752 29.0682 84.7873 28.9974 84.6733 28.9518C84.561 28.9046 84.4284 28.881 84.2754 28.881H83.9531Z" fill="#172755"/>
<rect x="12.2271" y="33.4943" width="10.9836" height="8.65375" fill="white"/>
<path d="M16.064 35.589V39.1632H15.6123V36.153L14.7017 36.485V36.0773L15.9932 35.589H16.064ZM19.7944 37.9669V38.338H17.2261V38.0719L18.8179 35.6085H19.1865L18.791 36.3214L17.7388 37.9669H19.7944ZM19.2988 35.6085V39.1632H18.8472V35.6085H19.2988Z" fill="#172755"/>
<rect x="23.2104" y="33.4943" width="10.9836" height="8.65375" fill="white"/>
<path d="M27.0479 35.589V39.1632H26.5962V36.153L25.6855 36.485V36.0773L26.9771 35.589H27.0479ZM28.9473 37.4713L28.5859 37.3785L28.7642 35.6085H30.5879V36.026H29.1475L29.04 36.9928C29.1051 36.9554 29.1873 36.9204 29.2866 36.8878C29.3875 36.8553 29.5031 36.839 29.6333 36.839C29.7977 36.839 29.945 36.8675 30.0752 36.9244C30.2054 36.9798 30.3161 37.0595 30.4072 37.1637C30.5 37.2679 30.5708 37.3932 30.6196 37.5397C30.6685 37.6862 30.6929 37.8497 30.6929 38.0304C30.6929 38.2013 30.6693 38.3584 30.6221 38.5016C30.5765 38.6448 30.5073 38.7701 30.4146 38.8776C30.3218 38.9834 30.2046 39.0656 30.063 39.1241C29.923 39.1827 29.7578 39.212 29.5674 39.212C29.4242 39.212 29.2882 39.1925 29.1597 39.1534C29.0327 39.1128 28.9188 39.0517 28.8179 38.9703C28.7186 38.8873 28.6372 38.7848 28.5737 38.6627C28.5119 38.539 28.4728 38.3942 28.4565 38.2281H28.8862C28.9058 38.3616 28.9448 38.4739 29.0034 38.5651C29.062 38.6562 29.1385 38.7254 29.2329 38.7726C29.3289 38.8182 29.4404 38.8409 29.5674 38.8409C29.6748 38.8409 29.77 38.8222 29.853 38.7848C29.936 38.7474 30.006 38.6936 30.063 38.6237C30.12 38.5537 30.1631 38.469 30.1924 38.3698C30.2233 38.2705 30.2388 38.159 30.2388 38.0353C30.2388 37.923 30.2233 37.8188 30.1924 37.7228C30.1615 37.6267 30.1151 37.5429 30.0532 37.4713C29.993 37.3997 29.9189 37.3444 29.8311 37.3053C29.7432 37.2646 29.6423 37.2443 29.5283 37.2443C29.377 37.2443 29.2622 37.2646 29.1841 37.3053C29.1076 37.346 29.0286 37.4013 28.9473 37.4713Z" fill="#172755"/>
<rect x="34.1943" y="33.4943" width="10.9836" height="8.65375" fill="white"/>
<path d="M38.0317 35.589V39.1632H37.5801V36.153L36.6694 36.485V36.0773L37.9609 35.589H38.0317ZM41.0933 35.6036H41.1323V35.9869H41.0933C40.854 35.9869 40.6538 36.026 40.4927 36.1041C40.3315 36.1806 40.2038 36.284 40.1094 36.4142C40.015 36.5428 39.9466 36.6876 39.9043 36.8488C39.8636 37.0099 39.8433 37.1735 39.8433 37.3395V37.8619C39.8433 38.0198 39.862 38.1598 39.8994 38.2819C39.9368 38.4023 39.9881 38.504 40.0532 38.587C40.1183 38.67 40.1916 38.7327 40.2729 38.775C40.356 38.8173 40.4422 38.8385 40.5317 38.8385C40.6359 38.8385 40.7287 38.819 40.8101 38.7799C40.8914 38.7392 40.9598 38.6831 41.0151 38.6115C41.0721 38.5382 41.1152 38.4519 41.1445 38.3527C41.1738 38.2534 41.1885 38.1443 41.1885 38.0255C41.1885 37.9197 41.1755 37.818 41.1494 37.7203C41.1234 37.6211 41.0835 37.5332 41.0298 37.4567C40.9761 37.3785 40.9085 37.3175 40.8271 37.2736C40.7474 37.228 40.6522 37.2052 40.5415 37.2052C40.4162 37.2052 40.299 37.2361 40.1899 37.298C40.0825 37.3582 39.9938 37.4379 39.9238 37.5372C39.8555 37.6349 39.8164 37.7415 39.8066 37.8571L39.5674 37.8546C39.5902 37.6723 39.6325 37.5169 39.6943 37.3883C39.7578 37.2581 39.8359 37.1523 39.9287 37.0709C40.0231 36.9879 40.1281 36.9277 40.2437 36.8903C40.3608 36.8512 40.4845 36.8317 40.6147 36.8317C40.7922 36.8317 40.9451 36.865 41.0737 36.9318C41.2023 36.9985 41.3081 37.088 41.3911 37.2003C41.4741 37.311 41.5352 37.4363 41.5742 37.5763C41.6149 37.7146 41.6353 37.8571 41.6353 38.0035C41.6353 38.1712 41.6117 38.3282 41.5645 38.4747C41.5173 38.6212 41.4465 38.7498 41.3521 38.8605C41.2593 38.9712 41.1445 39.0574 41.0078 39.1193C40.8711 39.1811 40.7124 39.212 40.5317 39.212C40.3397 39.212 40.172 39.173 40.0288 39.0948C39.8856 39.0151 39.7668 38.9093 39.6724 38.7775C39.578 38.6456 39.5072 38.4991 39.46 38.338C39.4128 38.1769 39.3892 38.0133 39.3892 37.8473V37.6349C39.3892 37.3842 39.4144 37.1385 39.4648 36.8976C39.5153 36.6567 39.6024 36.4386 39.7261 36.2433C39.8514 36.048 40.0247 35.8925 40.2461 35.777C40.4674 35.6614 40.7498 35.6036 41.0933 35.6036Z" fill="#172755"/>
<rect x="45.1777" y="33.4943" width="10.9836" height="8.65375" fill="white"/>
<path d="M49.0151 35.589V39.1632H48.5635V36.153L47.6528 36.485V36.0773L48.9443 35.589H49.0151ZM52.6406 35.6085V35.8624L51.1685 39.1632H50.6924L52.1621 35.9796H50.2383V35.6085H52.6406Z" fill="#172755"/>
<rect x="56.1616" y="33.4943" width="10.9836" height="8.65375" fill="white"/>
<circle cx="61.5704" cy="37.738" r="3.24516" fill="#EF2A82"/>
<path d="M59.999 35.589V39.1632H59.5474V36.153L58.6367 36.485V36.0773L59.9282 35.589H59.999ZM63.5684 38.2013C63.5684 38.4178 63.5179 38.6017 63.417 38.7531C63.3177 38.9028 63.1826 39.0167 63.0117 39.0948C62.8424 39.173 62.6512 39.212 62.438 39.212C62.2248 39.212 62.0327 39.173 61.8618 39.0948C61.6909 39.0167 61.5558 38.9028 61.4565 38.7531C61.3573 38.6017 61.3076 38.4178 61.3076 38.2013C61.3076 38.0597 61.3345 37.9303 61.3882 37.8131C61.4435 37.6943 61.5208 37.5909 61.6201 37.5031C61.721 37.4152 61.8398 37.3476 61.9766 37.3004C62.1149 37.2516 62.2671 37.2272 62.4331 37.2272C62.6512 37.2272 62.8457 37.2695 63.0166 37.3541C63.1875 37.4371 63.3218 37.5519 63.4194 37.6984C63.5187 37.8448 63.5684 38.0125 63.5684 38.2013ZM63.1143 38.1915C63.1143 38.0597 63.0858 37.9433 63.0288 37.8424C62.9718 37.7399 62.8921 37.6601 62.7896 37.6031C62.687 37.5462 62.5682 37.5177 62.4331 37.5177C62.2948 37.5177 62.1751 37.5462 62.0742 37.6031C61.9749 37.6601 61.8976 37.7399 61.8423 37.8424C61.7869 37.9433 61.7593 38.0597 61.7593 38.1915C61.7593 38.3282 61.7861 38.4454 61.8398 38.5431C61.8952 38.6391 61.9733 38.7132 62.0742 38.7653C62.1768 38.8157 62.298 38.8409 62.438 38.8409C62.578 38.8409 62.6984 38.8157 62.7993 38.7653C62.9002 38.7132 62.9775 38.6391 63.0312 38.5431C63.0866 38.4454 63.1143 38.3282 63.1143 38.1915ZM63.4854 36.5338C63.4854 36.7063 63.4398 36.8618 63.3486 37.0001C63.2575 37.1385 63.133 37.2475 62.9751 37.3273C62.8172 37.407 62.6382 37.4469 62.438 37.4469C62.2345 37.4469 62.0531 37.407 61.8936 37.3273C61.7357 37.2475 61.612 37.1385 61.5225 37.0001C61.4329 36.8618 61.3882 36.7063 61.3882 36.5338C61.3882 36.3271 61.4329 36.1513 61.5225 36.0065C61.6136 35.8616 61.7381 35.7509 61.896 35.6744C62.0539 35.5979 62.2337 35.5597 62.4355 35.5597C62.639 35.5597 62.8197 35.5979 62.9775 35.6744C63.1354 35.7509 63.2591 35.8616 63.3486 36.0065C63.4398 36.1513 63.4854 36.3271 63.4854 36.5338ZM63.0337 36.5411C63.0337 36.4223 63.0085 36.3173 62.958 36.2262C62.9076 36.1351 62.8376 36.0634 62.748 36.0114C62.6585 35.9576 62.5544 35.9308 62.4355 35.9308C62.3167 35.9308 62.2126 35.956 62.123 36.0065C62.0352 36.0553 61.966 36.1253 61.9155 36.2164C61.8667 36.3076 61.8423 36.4158 61.8423 36.5411C61.8423 36.6632 61.8667 36.7698 61.9155 36.861C61.966 36.9521 62.036 37.0229 62.1255 37.0734C62.215 37.1238 62.3192 37.149 62.438 37.149C62.5568 37.149 62.6602 37.1238 62.748 37.0734C62.8376 37.0229 62.9076 36.9521 62.958 36.861C63.0085 36.7698 63.0337 36.6632 63.0337 36.5411Z" fill="#EEEEF7"/>
<rect x="67.145" y="33.4943" width="10.9836" height="8.65375" fill="white"/>
<path d="M70.9819 35.589V39.1632H70.5303V36.153L69.6196 36.485V36.0773L70.9111 35.589H70.9819ZM72.7593 38.7848H72.8057C73.0661 38.7848 73.2777 38.7482 73.4404 38.6749C73.6032 38.6017 73.7285 38.5032 73.8164 38.3795C73.9043 38.2558 73.9645 38.1167 73.9971 37.962C74.0296 37.8058 74.0459 37.6455 74.0459 37.4811V36.9366C74.0459 36.7755 74.0272 36.6323 73.9897 36.507C73.9539 36.3816 73.9035 36.2767 73.8384 36.192C73.7749 36.1074 73.7025 36.0431 73.6211 35.9991C73.5397 35.9552 73.4535 35.9332 73.3623 35.9332C73.2581 35.9332 73.1646 35.9544 73.0815 35.9967C73.0002 36.0374 72.931 36.0952 72.874 36.17C72.8187 36.2449 72.7764 36.3328 72.7471 36.4337C72.7178 36.5346 72.7031 36.6445 72.7031 36.7633C72.7031 36.8691 72.7161 36.9716 72.7422 37.0709C72.7682 37.1702 72.8081 37.2597 72.8618 37.3395C72.9155 37.4192 72.9823 37.4827 73.062 37.5299C73.1434 37.5755 73.2386 37.5983 73.3477 37.5983C73.4486 37.5983 73.543 37.5787 73.6309 37.5397C73.7204 37.499 73.7993 37.4445 73.8677 37.3761C73.9377 37.3061 73.993 37.2272 74.0337 37.1393C74.076 37.0514 74.1004 36.9594 74.1069 36.8634H74.3218C74.3218 36.9985 74.2949 37.132 74.2412 37.2638C74.1891 37.394 74.1159 37.5128 74.0215 37.6202C73.9271 37.7277 73.8164 37.8139 73.6895 37.879C73.5625 37.9425 73.4242 37.9742 73.2744 37.9742C73.0986 37.9742 72.9465 37.9401 72.8179 37.8717C72.6893 37.8033 72.5835 37.7122 72.5005 37.5983C72.4191 37.4843 72.3581 37.3574 72.3174 37.2174C72.2783 37.0758 72.2588 36.9326 72.2588 36.7877C72.2588 36.6184 72.2824 36.4598 72.3296 36.3116C72.3768 36.1635 72.4468 36.0333 72.5396 35.921C72.6323 35.8071 72.7471 35.7184 72.8838 35.6549C73.0221 35.5914 73.1816 35.5597 73.3623 35.5597C73.5658 35.5597 73.7391 35.6004 73.8823 35.6818C74.0256 35.7631 74.1419 35.8722 74.2314 36.0089C74.3226 36.1456 74.3893 36.2994 74.4316 36.4703C74.474 36.6412 74.4951 36.817 74.4951 36.9977V37.1613C74.4951 37.3452 74.4829 37.5323 74.4585 37.7228C74.4357 37.9116 74.391 38.0922 74.3242 38.2648C74.2591 38.4373 74.1639 38.5919 74.0386 38.7286C73.9132 38.8637 73.7497 38.9712 73.5479 39.0509C73.3477 39.129 73.1003 39.1681 72.8057 39.1681H72.7593V38.7848Z" fill="#172755"/>
<rect x="78.1284" y="33.4943" width="10.9836" height="8.65375" fill="white"/>
<path d="M82.8105 38.7921V39.1632H80.4839V38.8385L81.6484 37.5421C81.7917 37.3826 81.9023 37.2475 81.9805 37.1368C82.0602 37.0245 82.1156 36.9244 82.1465 36.8365C82.179 36.747 82.1953 36.6559 82.1953 36.5631C82.1953 36.4459 82.1709 36.3401 82.1221 36.2457C82.0749 36.1497 82.0049 36.0732 81.9121 36.0162C81.8193 35.9593 81.707 35.9308 81.5752 35.9308C81.4173 35.9308 81.2855 35.9617 81.1797 36.0236C81.0755 36.0838 80.9974 36.1684 80.9453 36.2775C80.8932 36.3865 80.8672 36.5118 80.8672 36.6534H80.4155C80.4155 36.4532 80.4595 36.2701 80.5474 36.1041C80.6353 35.9381 80.7655 35.8063 80.938 35.7086C81.1105 35.6093 81.3229 35.5597 81.5752 35.5597C81.7998 35.5597 81.9919 35.5996 82.1514 35.6793C82.3109 35.7574 82.4329 35.8681 82.5176 36.0114C82.6038 36.153 82.647 36.319 82.647 36.5094C82.647 36.6136 82.6291 36.7194 82.5933 36.8268C82.5591 36.9326 82.5111 37.0384 82.4492 37.1442C82.389 37.25 82.3182 37.3541 82.2368 37.4567C82.1571 37.5592 82.0716 37.6601 81.9805 37.7594L81.0283 38.7921H82.8105ZM85.5254 37.1027V37.6447C85.5254 37.936 85.4993 38.1818 85.4473 38.382C85.3952 38.5822 85.3203 38.7433 85.2227 38.8654C85.125 38.9874 85.007 39.0761 84.8687 39.1315C84.7319 39.1852 84.5773 39.212 84.4048 39.212C84.2681 39.212 84.1419 39.1949 84.0264 39.1608C83.9108 39.1266 83.8066 39.0721 83.7139 38.9972C83.6227 38.9207 83.5446 38.8214 83.4795 38.6993C83.4144 38.5773 83.3647 38.4292 83.3306 38.255C83.2964 38.0809 83.2793 37.8774 83.2793 37.6447V37.1027C83.2793 36.8113 83.3053 36.5672 83.3574 36.3702C83.4111 36.1733 83.4868 36.0154 83.5845 35.8966C83.6821 35.7762 83.7993 35.6899 83.936 35.6378C84.0744 35.5857 84.229 35.5597 84.3999 35.5597C84.5382 35.5597 84.6652 35.5768 84.7808 35.611C84.8979 35.6435 85.0021 35.6964 85.0933 35.7697C85.1844 35.8413 85.2617 35.9373 85.3252 36.0577C85.3903 36.1766 85.4399 36.3222 85.4741 36.4948C85.5083 36.6673 85.5254 36.8699 85.5254 37.1027ZM85.0713 37.7179V37.027C85.0713 36.8675 85.0615 36.7275 85.042 36.6071C85.0241 36.485 84.9972 36.3808 84.9614 36.2946C84.9256 36.2083 84.88 36.1383 84.8247 36.0846C84.771 36.0309 84.7083 35.9918 84.6367 35.9674C84.5667 35.9414 84.4878 35.9283 84.3999 35.9283C84.2925 35.9283 84.1973 35.9487 84.1143 35.9894C84.0312 36.0284 83.9613 36.0911 83.9043 36.1774C83.849 36.2636 83.8066 36.3767 83.7773 36.5167C83.748 36.6567 83.7334 36.8268 83.7334 37.027V37.7179C83.7334 37.8774 83.7424 38.0182 83.7603 38.1403C83.7798 38.2623 83.8083 38.3681 83.8457 38.4576C83.8831 38.5455 83.9287 38.618 83.9824 38.6749C84.0361 38.7319 84.098 38.7742 84.168 38.8019C84.2396 38.8279 84.3185 38.8409 84.4048 38.8409C84.5155 38.8409 84.6123 38.8198 84.6953 38.7775C84.7783 38.7351 84.8475 38.6692 84.9028 38.5797C84.9598 38.4886 85.0021 38.3722 85.0298 38.2306C85.0575 38.0874 85.0713 37.9165 85.0713 37.7179Z" fill="#172755"/>
<rect x="12.2271" y="42.1481" width="10.9836" height="8.65375" fill="white"/>
<path d="M16.9087 47.4458V47.8169H14.582V47.4922L15.7466 46.1958C15.8898 46.0363 16.0005 45.9012 16.0786 45.7905C16.1584 45.6782 16.2137 45.5781 16.2446 45.4902C16.2772 45.4007 16.2935 45.3096 16.2935 45.2168C16.2935 45.0996 16.269 44.9938 16.2202 44.8994C16.173 44.8034 16.103 44.7269 16.0103 44.6699C15.9175 44.613 15.8052 44.5845 15.6733 44.5845C15.5155 44.5845 15.3836 44.6154 15.2778 44.6772C15.1737 44.7375 15.0955 44.8221 15.0435 44.9312C14.9914 45.0402 14.9653 45.1655 14.9653 45.3071H14.5137C14.5137 45.1069 14.5576 44.9238 14.6455 44.7578C14.7334 44.5918 14.8636 44.46 15.0361 44.3623C15.2087 44.263 15.4211 44.2134 15.6733 44.2134C15.8979 44.2134 16.09 44.2533 16.2495 44.333C16.409 44.4111 16.5311 44.5218 16.6157 44.665C16.702 44.8066 16.7451 44.9727 16.7451 45.1631C16.7451 45.2673 16.7272 45.373 16.6914 45.4805C16.6572 45.5863 16.6092 45.6921 16.5474 45.7979C16.4871 45.9036 16.4163 46.0078 16.335 46.1104C16.2552 46.2129 16.1698 46.3138 16.0786 46.4131L15.1265 47.4458H16.9087ZM18.8765 44.2427V47.8169H18.4248V44.8066L17.5142 45.1387V44.731L18.8057 44.2427H18.8765Z" fill="#172755"/>
<rect x="23.2104" y="42.1481" width="10.9836" height="8.65375" fill="white"/>
<path d="M27.8926 47.4458V47.8169H25.5659V47.4922L26.7305 46.1958C26.8737 46.0363 26.9844 45.9012 27.0625 45.7905C27.1423 45.6782 27.1976 45.5781 27.2285 45.4902C27.2611 45.4007 27.2773 45.3096 27.2773 45.2168C27.2773 45.0996 27.2529 44.9938 27.2041 44.8994C27.1569 44.8034 27.0869 44.7269 26.9941 44.6699C26.9014 44.613 26.7891 44.5845 26.6572 44.5845C26.4993 44.5845 26.3675 44.6154 26.2617 44.6772C26.1576 44.7375 26.0794 44.8221 26.0273 44.9312C25.9753 45.0402 25.9492 45.1655 25.9492 45.3071H25.4976C25.4976 45.1069 25.5415 44.9238 25.6294 44.7578C25.7173 44.5918 25.8475 44.46 26.02 44.3623C26.1925 44.263 26.4049 44.2134 26.6572 44.2134C26.8818 44.2134 27.0739 44.2533 27.2334 44.333C27.3929 44.4111 27.515 44.5218 27.5996 44.665C27.6859 44.8066 27.729 44.9727 27.729 45.1631C27.729 45.2673 27.7111 45.373 27.6753 45.4805C27.6411 45.5863 27.5931 45.6921 27.5312 45.7979C27.471 45.9036 27.4002 46.0078 27.3188 46.1104C27.2391 46.2129 27.1536 46.3138 27.0625 46.4131L26.1104 47.4458H27.8926ZM30.7051 47.4458V47.8169H28.3784V47.4922L29.543 46.1958C29.6862 46.0363 29.7969 45.9012 29.875 45.7905C29.9548 45.6782 30.0101 45.5781 30.041 45.4902C30.0736 45.4007 30.0898 45.3096 30.0898 45.2168C30.0898 45.0996 30.0654 44.9938 30.0166 44.8994C29.9694 44.8034 29.8994 44.7269 29.8066 44.6699C29.7139 44.613 29.6016 44.5845 29.4697 44.5845C29.3118 44.5845 29.18 44.6154 29.0742 44.6772C28.9701 44.7375 28.8919 44.8221 28.8398 44.9312C28.7878 45.0402 28.7617 45.1655 28.7617 45.3071H28.3101C28.3101 45.1069 28.354 44.9238 28.4419 44.7578C28.5298 44.5918 28.66 44.46 28.8325 44.3623C29.005 44.263 29.2174 44.2134 29.4697 44.2134C29.6943 44.2134 29.8864 44.2533 30.0459 44.333C30.2054 44.4111 30.3275 44.5218 30.4121 44.665C30.4984 44.8066 30.5415 44.9727 30.5415 45.1631C30.5415 45.2673 30.5236 45.373 30.4878 45.4805C30.4536 45.5863 30.4056 45.6921 30.3438 45.7979C30.2835 45.9036 30.2127 46.0078 30.1313 46.1104C30.0516 46.2129 29.9661 46.3138 29.875 46.4131L28.9229 47.4458H30.7051Z" fill="#172755"/>
<rect x="34.1943" y="42.1481" width="10.9836" height="8.65375" fill="white"/>
<path d="M38.8765 47.4458V47.8169H36.5498V47.4922L37.7144 46.1958C37.8576 46.0363 37.9683 45.9012 38.0464 45.7905C38.1261 45.6782 38.1815 45.5781 38.2124 45.4902C38.245 45.4007 38.2612 45.3096 38.2612 45.2168C38.2612 45.0996 38.2368 44.9938 38.188 44.8994C38.1408 44.8034 38.0708 44.7269 37.978 44.6699C37.8853 44.613 37.7729 44.5845 37.6411 44.5845C37.4832 44.5845 37.3514 44.6154 37.2456 44.6772C37.1414 44.7375 37.0633 44.8221 37.0112 44.9312C36.9591 45.0402 36.9331 45.1655 36.9331 45.3071H36.4814C36.4814 45.1069 36.5254 44.9238 36.6133 44.7578C36.7012 44.5918 36.8314 44.46 37.0039 44.3623C37.1764 44.263 37.3888 44.2134 37.6411 44.2134C37.8657 44.2134 38.0578 44.2533 38.2173 44.333C38.3768 44.4111 38.4989 44.5218 38.5835 44.665C38.6698 44.8066 38.7129 44.9727 38.7129 45.1631C38.7129 45.2673 38.695 45.373 38.6592 45.4805C38.625 45.5863 38.577 45.6921 38.5151 45.7979C38.4549 45.9036 38.3841 46.0078 38.3027 46.1104C38.223 46.2129 38.1375 46.3138 38.0464 46.4131L37.0942 47.4458H38.8765ZM40.019 45.8174H40.3413C40.4992 45.8174 40.6294 45.7913 40.7319 45.7393C40.8361 45.6855 40.9134 45.6131 40.9639 45.522C41.016 45.4292 41.042 45.325 41.042 45.2095C41.042 45.0728 41.0192 44.958 40.9736 44.8652C40.9281 44.7725 40.8597 44.7025 40.7686 44.6553C40.6774 44.6081 40.5618 44.5845 40.4219 44.5845C40.2949 44.5845 40.1826 44.6097 40.085 44.6602C39.9889 44.709 39.9132 44.779 39.8579 44.8701C39.8042 44.9613 39.7773 45.0687 39.7773 45.1924H39.3257C39.3257 45.0117 39.3713 44.8473 39.4624 44.6992C39.5535 44.5511 39.6813 44.4331 39.8457 44.3452C40.0117 44.2573 40.2038 44.2134 40.4219 44.2134C40.6367 44.2134 40.8247 44.2516 40.9858 44.3281C41.147 44.403 41.2723 44.5153 41.3618 44.665C41.4513 44.8132 41.4961 44.9979 41.4961 45.2192C41.4961 45.3088 41.4749 45.4048 41.4326 45.5073C41.3919 45.6082 41.3276 45.7026 41.2397 45.7905C41.1535 45.8784 41.0412 45.9508 40.9028 46.0078C40.7645 46.0632 40.5985 46.0908 40.4048 46.0908H40.019V45.8174ZM40.019 46.1885V45.9175H40.4048C40.631 45.9175 40.8182 45.9443 40.9663 45.998C41.1144 46.0518 41.2308 46.1234 41.3154 46.2129C41.4017 46.3024 41.4619 46.4009 41.4961 46.5083C41.5319 46.6141 41.5498 46.7199 41.5498 46.8257C41.5498 46.9917 41.5213 47.139 41.4644 47.2676C41.409 47.3962 41.3301 47.5052 41.2275 47.5947C41.1266 47.6842 41.0078 47.7518 40.8711 47.7974C40.7344 47.8429 40.5854 47.8657 40.4243 47.8657C40.2697 47.8657 40.124 47.8438 39.9873 47.7998C39.8522 47.7559 39.7326 47.6924 39.6284 47.6094C39.5243 47.5247 39.4429 47.4214 39.3843 47.2993C39.3257 47.1756 39.2964 47.0348 39.2964 46.877H39.748C39.748 47.0007 39.7749 47.1089 39.8286 47.2017C39.884 47.2944 39.9621 47.3669 40.063 47.4189C40.1655 47.4694 40.286 47.4946 40.4243 47.4946C40.5627 47.4946 40.6815 47.471 40.7808 47.4238C40.8817 47.375 40.959 47.3018 41.0127 47.2041C41.068 47.1064 41.0957 46.9836 41.0957 46.8354C41.0957 46.6873 41.0648 46.5661 41.0029 46.4717C40.9411 46.3757 40.8532 46.3049 40.7393 46.2593C40.627 46.2121 40.4943 46.1885 40.3413 46.1885H40.019Z" fill="#172755"/>
<rect x="45.1777" y="42.1481" width="10.9836" height="8.65375" fill="white"/>
<path d="M49.8599 47.4458V47.8169H47.5332V47.4922L48.6978 46.1958C48.841 46.0363 48.9517 45.9012 49.0298 45.7905C49.1095 45.6782 49.1649 45.5781 49.1958 45.4902C49.2284 45.4007 49.2446 45.3096 49.2446 45.2168C49.2446 45.0996 49.2202 44.9938 49.1714 44.8994C49.1242 44.8034 49.0542 44.7269 48.9614 44.6699C48.8687 44.613 48.7563 44.5845 48.6245 44.5845C48.4666 44.5845 48.3348 44.6154 48.229 44.6772C48.1248 44.7375 48.0467 44.8221 47.9946 44.9312C47.9425 45.0402 47.9165 45.1655 47.9165 45.3071H47.4648C47.4648 45.1069 47.5088 44.9238 47.5967 44.7578C47.6846 44.5918 47.8148 44.46 47.9873 44.3623C48.1598 44.263 48.3722 44.2134 48.6245 44.2134C48.8491 44.2134 49.0412 44.2533 49.2007 44.333C49.3602 44.4111 49.4823 44.5218 49.5669 44.665C49.6532 44.8066 49.6963 44.9727 49.6963 45.1631C49.6963 45.2673 49.6784 45.373 49.6426 45.4805C49.6084 45.5863 49.5604 45.6921 49.4985 45.7979C49.4383 45.9036 49.3675 46.0078 49.2861 46.1104C49.2064 46.2129 49.1209 46.3138 49.0298 46.4131L48.0776 47.4458H49.8599ZM52.7456 46.6206V46.9917H50.1772V46.7256L51.769 44.2622H52.1377L51.7422 44.9751L50.6899 46.6206H52.7456ZM52.25 44.2622V47.8169H51.7983V44.2622H52.25Z" fill="#172755"/>
<rect x="56.1616" y="42.1481" width="10.9836" height="8.65375" fill="white"/>
<path d="M60.8438 47.4458V47.8169H58.5171V47.4922L59.6816 46.1958C59.8249 46.0363 59.9355 45.9012 60.0137 45.7905C60.0934 45.6782 60.1488 45.5781 60.1797 45.4902C60.2122 45.4007 60.2285 45.3096 60.2285 45.2168C60.2285 45.0996 60.2041 44.9938 60.1553 44.8994C60.1081 44.8034 60.0381 44.7269 59.9453 44.6699C59.8525 44.613 59.7402 44.5845 59.6084 44.5845C59.4505 44.5845 59.3187 44.6154 59.2129 44.6772C59.1087 44.7375 59.0306 44.8221 58.9785 44.9312C58.9264 45.0402 58.9004 45.1655 58.9004 45.3071H58.4487C58.4487 45.1069 58.4927 44.9238 58.5806 44.7578C58.6685 44.5918 58.7987 44.46 58.9712 44.3623C59.1437 44.263 59.3561 44.2134 59.6084 44.2134C59.833 44.2134 60.0251 44.2533 60.1846 44.333C60.3441 44.4111 60.4661 44.5218 60.5508 44.665C60.637 44.8066 60.6802 44.9727 60.6802 45.1631C60.6802 45.2673 60.6623 45.373 60.6265 45.4805C60.5923 45.5863 60.5443 45.6921 60.4824 45.7979C60.4222 45.9036 60.3514 46.0078 60.27 46.1104C60.1903 46.2129 60.1048 46.3138 60.0137 46.4131L59.0615 47.4458H60.8438ZM61.8984 46.125L61.5371 46.0322L61.7153 44.2622H63.5391V44.6797H62.0986L61.9912 45.6465C62.0563 45.609 62.1385 45.5741 62.2378 45.5415C62.3387 45.509 62.4543 45.4927 62.5845 45.4927C62.7489 45.4927 62.8962 45.5212 63.0264 45.5781C63.1566 45.6335 63.2673 45.7132 63.3584 45.8174C63.4512 45.9215 63.522 46.0469 63.5708 46.1934C63.6196 46.3398 63.644 46.5034 63.644 46.6841C63.644 46.855 63.6204 47.012 63.5732 47.1553C63.5277 47.2985 63.4585 47.4238 63.3657 47.5312C63.2729 47.637 63.1558 47.7192 63.0142 47.7778C62.8742 47.8364 62.709 47.8657 62.5186 47.8657C62.3753 47.8657 62.2394 47.8462 62.1108 47.8071C61.9839 47.7664 61.87 47.7054 61.769 47.624C61.6698 47.541 61.5884 47.4385 61.5249 47.3164C61.4631 47.1927 61.424 47.0479 61.4077 46.8818H61.8374C61.8569 47.0153 61.896 47.1276 61.9546 47.2188C62.0132 47.3099 62.0897 47.3791 62.1841 47.4263C62.2801 47.4718 62.3916 47.4946 62.5186 47.4946C62.626 47.4946 62.7212 47.4759 62.8042 47.4385C62.8872 47.401 62.9572 47.3473 63.0142 47.2773C63.0711 47.2074 63.1143 47.1227 63.1436 47.0234C63.1745 46.9242 63.1899 46.8127 63.1899 46.689C63.1899 46.5767 63.1745 46.4725 63.1436 46.3765C63.1126 46.2804 63.0662 46.1966 63.0044 46.125C62.9442 46.0534 62.8701 45.998 62.7822 45.959C62.6943 45.9183 62.5934 45.8979 62.4795 45.8979C62.3281 45.8979 62.2134 45.9183 62.1353 45.959C62.0588 45.9997 61.9798 46.055 61.8984 46.125Z" fill="#172755"/>
<rect x="67.145" y="42.1481" width="10.9836" height="8.65375" fill="white"/>
<path d="M71.8267 47.4458V47.8169H69.5V47.4922L70.6646 46.1958C70.8078 46.0363 70.9185 45.9012 70.9966 45.7905C71.0763 45.6782 71.1317 45.5781 71.1626 45.4902C71.1951 45.4007 71.2114 45.3096 71.2114 45.2168C71.2114 45.0996 71.187 44.9938 71.1382 44.8994C71.091 44.8034 71.021 44.7269 70.9282 44.6699C70.8354 44.613 70.7231 44.5845 70.5913 44.5845C70.4334 44.5845 70.3016 44.6154 70.1958 44.6772C70.0916 44.7375 70.0135 44.8221 69.9614 44.9312C69.9093 45.0402 69.8833 45.1655 69.8833 45.3071H69.4316C69.4316 45.1069 69.4756 44.9238 69.5635 44.7578C69.6514 44.5918 69.7816 44.46 69.9541 44.3623C70.1266 44.263 70.339 44.2134 70.5913 44.2134C70.8159 44.2134 71.008 44.2533 71.1675 44.333C71.327 44.4111 71.4491 44.5218 71.5337 44.665C71.62 44.8066 71.6631 44.9727 71.6631 45.1631C71.6631 45.2673 71.6452 45.373 71.6094 45.4805C71.5752 45.5863 71.5272 45.6921 71.4653 45.7979C71.4051 45.9036 71.3343 46.0078 71.2529 46.1104C71.1732 46.2129 71.0877 46.3138 70.9966 46.4131L70.0444 47.4458H71.8267ZM74.0435 44.2573H74.0825V44.6406H74.0435C73.8042 44.6406 73.604 44.6797 73.4429 44.7578C73.2817 44.8343 73.154 44.9377 73.0596 45.0679C72.9652 45.1965 72.8968 45.3413 72.8545 45.5024C72.8138 45.6636 72.7935 45.8271 72.7935 45.9932V46.5156C72.7935 46.6735 72.8122 46.8135 72.8496 46.9355C72.887 47.056 72.9383 47.1577 73.0034 47.2407C73.0685 47.3237 73.1418 47.3864 73.2231 47.4287C73.3062 47.471 73.3924 47.4922 73.4819 47.4922C73.5861 47.4922 73.6789 47.4727 73.7603 47.4336C73.8416 47.3929 73.91 47.3368 73.9653 47.2651C74.0223 47.1919 74.0654 47.1056 74.0947 47.0063C74.124 46.9071 74.1387 46.798 74.1387 46.6792C74.1387 46.5734 74.1257 46.4717 74.0996 46.374C74.0736 46.2747 74.0337 46.1868 73.98 46.1104C73.9263 46.0322 73.8587 45.9712 73.7773 45.9272C73.6976 45.8817 73.6024 45.8589 73.4917 45.8589C73.3664 45.8589 73.2492 45.8898 73.1401 45.9517C73.0327 46.0119 72.944 46.0916 72.874 46.1909C72.8057 46.2886 72.7666 46.3952 72.7568 46.5107L72.5176 46.5083C72.5404 46.326 72.5827 46.1706 72.6445 46.042C72.708 45.9118 72.7861 45.806 72.8789 45.7246C72.9733 45.6416 73.0783 45.5814 73.1938 45.5439C73.311 45.5049 73.4347 45.4854 73.5649 45.4854C73.7424 45.4854 73.8953 45.5187 74.0239 45.5854C74.1525 45.6522 74.2583 45.7417 74.3413 45.854C74.4243 45.9647 74.4854 46.09 74.5244 46.23C74.5651 46.3683 74.5854 46.5107 74.5854 46.6572C74.5854 46.8249 74.5618 46.9819 74.5146 47.1284C74.4674 47.2749 74.3966 47.4035 74.3022 47.5142C74.2095 47.6248 74.0947 47.7111 73.958 47.7729C73.8213 47.8348 73.6626 47.8657 73.4819 47.8657C73.2899 47.8657 73.1222 47.8267 72.979 47.7485C72.8358 47.6688 72.717 47.563 72.6226 47.4312C72.5282 47.2993 72.4574 47.1528 72.4102 46.9917C72.363 46.8306 72.3394 46.667 72.3394 46.501V46.2886C72.3394 46.0379 72.3646 45.7922 72.415 45.5513C72.4655 45.3104 72.5526 45.0923 72.6763 44.897C72.8016 44.7017 72.9749 44.5462 73.1963 44.4307C73.4176 44.3151 73.7 44.2573 74.0435 44.2573Z" fill="#172755"/>
<rect x="78.1284" y="42.1481" width="10.9836" height="8.65375" fill="white"/>
<path d="M82.8105 47.4458V47.8169H80.4839V47.4922L81.6484 46.1958C81.7917 46.0363 81.9023 45.9012 81.9805 45.7905C82.0602 45.6782 82.1156 45.5781 82.1465 45.4902C82.179 45.4007 82.1953 45.3096 82.1953 45.2168C82.1953 45.0996 82.1709 44.9938 82.1221 44.8994C82.0749 44.8034 82.0049 44.7269 81.9121 44.6699C81.8193 44.613 81.707 44.5845 81.5752 44.5845C81.4173 44.5845 81.2855 44.6154 81.1797 44.6772C81.0755 44.7375 80.9974 44.8221 80.9453 44.9312C80.8932 45.0402 80.8672 45.1655 80.8672 45.3071H80.4155C80.4155 45.1069 80.4595 44.9238 80.5474 44.7578C80.6353 44.5918 80.7655 44.46 80.938 44.3623C81.1105 44.263 81.3229 44.2134 81.5752 44.2134C81.7998 44.2134 81.9919 44.2533 82.1514 44.333C82.3109 44.4111 82.4329 44.5218 82.5176 44.665C82.6038 44.8066 82.647 44.9727 82.647 45.1631C82.647 45.2673 82.6291 45.373 82.5933 45.4805C82.5591 45.5863 82.5111 45.6921 82.4492 45.7979C82.389 45.9036 82.3182 46.0078 82.2368 46.1104C82.1571 46.2129 82.0716 46.3138 81.9805 46.4131L81.0283 47.4458H82.8105ZM85.5913 44.2622V44.5161L84.1191 47.8169H83.6431L85.1128 44.6333H83.189V44.2622H85.5913Z" fill="#172755"/>
<rect x="12.2271" y="50.8018" width="10.9836" height="8.65375" fill="white"/>
<path d="M16.9087 56.0996V56.4707H14.582V56.146L15.7466 54.8496C15.8898 54.6901 16.0005 54.555 16.0786 54.4443C16.1584 54.332 16.2137 54.2319 16.2446 54.144C16.2772 54.0545 16.2935 53.9634 16.2935 53.8706C16.2935 53.7534 16.269 53.6476 16.2202 53.5532C16.173 53.4572 16.103 53.3807 16.0103 53.3237C15.9175 53.2668 15.8052 53.2383 15.6733 53.2383C15.5155 53.2383 15.3836 53.2692 15.2778 53.3311C15.1737 53.3913 15.0955 53.4759 15.0435 53.585C14.9914 53.694 14.9653 53.8193 14.9653 53.9609H14.5137C14.5137 53.7607 14.5576 53.5776 14.6455 53.4116C14.7334 53.2456 14.8636 53.1138 15.0361 53.0161C15.2087 52.9168 15.4211 52.8672 15.6733 52.8672C15.8979 52.8672 16.09 52.9071 16.2495 52.9868C16.409 53.0649 16.5311 53.1756 16.6157 53.3188C16.702 53.4604 16.7451 53.6265 16.7451 53.8169C16.7451 53.9211 16.7272 54.0269 16.6914 54.1343C16.6572 54.2401 16.6092 54.3459 16.5474 54.4517C16.4871 54.5575 16.4163 54.6616 16.335 54.7642C16.2552 54.8667 16.1698 54.9676 16.0786 55.0669L15.1265 56.0996H16.9087ZM19.6333 55.5088C19.6333 55.7253 19.5828 55.9092 19.4819 56.0605C19.3826 56.2103 19.2476 56.3242 19.0767 56.4023C18.9074 56.4805 18.7161 56.5195 18.5029 56.5195C18.2897 56.5195 18.0977 56.4805 17.9268 56.4023C17.7559 56.3242 17.6208 56.2103 17.5215 56.0605C17.4222 55.9092 17.3726 55.7253 17.3726 55.5088C17.3726 55.3672 17.3994 55.2378 17.4531 55.1206C17.5085 55.0018 17.5858 54.8984 17.6851 54.8105C17.786 54.7227 17.9048 54.6551 18.0415 54.6079C18.1799 54.5591 18.332 54.5347 18.498 54.5347C18.7161 54.5347 18.9106 54.577 19.0815 54.6616C19.2524 54.7446 19.3867 54.8594 19.4844 55.0059C19.5837 55.1523 19.6333 55.32 19.6333 55.5088ZM19.1792 55.499C19.1792 55.3672 19.1507 55.2508 19.0938 55.1499C19.0368 55.0474 18.957 54.9676 18.8545 54.9106C18.752 54.8537 18.6331 54.8252 18.498 54.8252C18.3597 54.8252 18.2401 54.8537 18.1392 54.9106C18.0399 54.9676 17.9626 55.0474 17.9072 55.1499C17.8519 55.2508 17.8242 55.3672 17.8242 55.499C17.8242 55.6357 17.8511 55.7529 17.9048 55.8506C17.9601 55.9466 18.0382 56.0207 18.1392 56.0728C18.2417 56.1232 18.363 56.1484 18.5029 56.1484C18.6429 56.1484 18.7633 56.1232 18.8643 56.0728C18.9652 56.0207 19.0425 55.9466 19.0962 55.8506C19.1515 55.7529 19.1792 55.6357 19.1792 55.499ZM19.5503 53.8413C19.5503 54.0138 19.5047 54.1693 19.4136 54.3076C19.3224 54.446 19.1979 54.555 19.04 54.6348C18.8822 54.7145 18.7031 54.7544 18.5029 54.7544C18.2995 54.7544 18.118 54.7145 17.9585 54.6348C17.8006 54.555 17.6769 54.446 17.5874 54.3076C17.4979 54.1693 17.4531 54.0138 17.4531 53.8413C17.4531 53.6346 17.4979 53.4588 17.5874 53.314C17.6785 53.1691 17.8031 53.0584 17.9609 52.9819C18.1188 52.9054 18.2987 52.8672 18.5005 52.8672C18.7039 52.8672 18.8846 52.9054 19.0425 52.9819C19.2004 53.0584 19.3241 53.1691 19.4136 53.314C19.5047 53.4588 19.5503 53.6346 19.5503 53.8413ZM19.0986 53.8486C19.0986 53.7298 19.0734 53.6248 19.0229 53.5337C18.9725 53.4425 18.9025 53.3709 18.813 53.3188C18.7235 53.2651 18.6193 53.2383 18.5005 53.2383C18.3817 53.2383 18.2775 53.2635 18.188 53.314C18.1001 53.3628 18.0309 53.4328 17.9805 53.5239C17.9316 53.6151 17.9072 53.7233 17.9072 53.8486C17.9072 53.9707 17.9316 54.0773 17.9805 54.1685C18.0309 54.2596 18.1009 54.3304 18.1904 54.3809C18.2799 54.4313 18.3841 54.4565 18.5029 54.4565C18.6217 54.4565 18.7251 54.4313 18.813 54.3809C18.9025 54.3304 18.9725 54.2596 19.0229 54.1685C19.0734 54.0773 19.0986 53.9707 19.0986 53.8486Z" fill="#172755"/>
<rect x="23.2104" y="50.8018" width="10.9836" height="8.65375" fill="white"/>
<path d="M27.8926 56.0996V56.4707H25.5659V56.146L26.7305 54.8496C26.8737 54.6901 26.9844 54.555 27.0625 54.4443C27.1423 54.332 27.1976 54.2319 27.2285 54.144C27.2611 54.0545 27.2773 53.9634 27.2773 53.8706C27.2773 53.7534 27.2529 53.6476 27.2041 53.5532C27.1569 53.4572 27.0869 53.3807 26.9941 53.3237C26.9014 53.2668 26.7891 53.2383 26.6572 53.2383C26.4993 53.2383 26.3675 53.2692 26.2617 53.3311C26.1576 53.3913 26.0794 53.4759 26.0273 53.585C25.9753 53.694 25.9492 53.8193 25.9492 53.9609H25.4976C25.4976 53.7607 25.5415 53.5776 25.6294 53.4116C25.7173 53.2456 25.8475 53.1138 26.02 53.0161C26.1925 52.9168 26.4049 52.8672 26.6572 52.8672C26.8818 52.8672 27.0739 52.9071 27.2334 52.9868C27.3929 53.0649 27.515 53.1756 27.5996 53.3188C27.6859 53.4604 27.729 53.6265 27.729 53.8169C27.729 53.9211 27.7111 54.0269 27.6753 54.1343C27.6411 54.2401 27.5931 54.3459 27.5312 54.4517C27.471 54.5575 27.4002 54.6616 27.3188 54.7642C27.2391 54.8667 27.1536 54.9676 27.0625 55.0669L26.1104 56.0996H27.8926ZM28.8252 56.0923H28.8716C29.132 56.0923 29.3436 56.0557 29.5063 55.9824C29.6691 55.9092 29.7944 55.8107 29.8823 55.687C29.9702 55.5633 30.0304 55.4242 30.063 55.2695C30.0955 55.1133 30.1118 54.953 30.1118 54.7886V54.2441C30.1118 54.083 30.0931 53.9398 30.0557 53.8145C30.0199 53.6891 29.9694 53.5841 29.9043 53.4995C29.8408 53.4149 29.7684 53.3506 29.687 53.3066C29.6056 53.2627 29.5194 53.2407 29.4282 53.2407C29.3241 53.2407 29.2305 53.2619 29.1475 53.3042C29.0661 53.3449 28.9969 53.4027 28.9399 53.4775C28.8846 53.5524 28.8423 53.6403 28.813 53.7412C28.7837 53.8421 28.769 53.952 28.769 54.0708C28.769 54.1766 28.7821 54.2791 28.8081 54.3784C28.8341 54.4777 28.874 54.5672 28.9277 54.647C28.9814 54.7267 29.0482 54.7902 29.1279 54.8374C29.2093 54.883 29.3045 54.9058 29.4136 54.9058C29.5145 54.9058 29.6089 54.8862 29.6968 54.8472C29.7863 54.8065 29.8652 54.752 29.9336 54.6836C30.0036 54.6136 30.0589 54.5347 30.0996 54.4468C30.1419 54.3589 30.1663 54.2669 30.1729 54.1709H30.3877C30.3877 54.306 30.3608 54.4395 30.3071 54.5713C30.255 54.7015 30.1818 54.8203 30.0874 54.9277C29.993 55.0352 29.8823 55.1214 29.7554 55.1865C29.6284 55.25 29.4901 55.2817 29.3403 55.2817C29.1646 55.2817 29.0124 55.2476 28.8838 55.1792C28.7552 55.1108 28.6494 55.0197 28.5664 54.9058C28.485 54.7918 28.424 54.6649 28.3833 54.5249C28.3442 54.3833 28.3247 54.2401 28.3247 54.0952C28.3247 53.9259 28.3483 53.7673 28.3955 53.6191C28.4427 53.471 28.5127 53.3408 28.6055 53.2285C28.6982 53.1146 28.813 53.0259 28.9497 52.9624C29.0881 52.8989 29.2476 52.8672 29.4282 52.8672C29.6317 52.8672 29.805 52.9079 29.9482 52.9893C30.0915 53.0706 30.2078 53.1797 30.2974 53.3164C30.3885 53.4531 30.4552 53.6069 30.4976 53.7778C30.5399 53.9487 30.561 54.1245 30.561 54.3052V54.4688C30.561 54.6527 30.5488 54.8398 30.5244 55.0303C30.5016 55.2191 30.4569 55.3997 30.3901 55.5723C30.325 55.7448 30.2298 55.8994 30.1045 56.0361C29.9792 56.1712 29.8156 56.2786 29.6138 56.3584C29.4136 56.4365 29.1662 56.4756 28.8716 56.4756H28.8252V56.0923Z" fill="#172755"/>
<rect x="34.1943" y="50.8018" width="10.9836" height="8.65375" fill="white"/>
<path d="M37.2065 54.4712H37.5288C37.6867 54.4712 37.8169 54.4451 37.9194 54.3931C38.0236 54.3394 38.1009 54.2669 38.1514 54.1758C38.2035 54.083 38.2295 53.9788 38.2295 53.8633C38.2295 53.7266 38.2067 53.6118 38.1611 53.519C38.1156 53.4263 38.0472 53.3563 37.9561 53.3091C37.8649 53.2619 37.7493 53.2383 37.6094 53.2383C37.4824 53.2383 37.3701 53.2635 37.2725 53.314C37.1764 53.3628 37.1007 53.4328 37.0454 53.5239C36.9917 53.6151 36.9648 53.7225 36.9648 53.8462H36.5132C36.5132 53.6655 36.5588 53.5011 36.6499 53.353C36.741 53.2049 36.8688 53.0869 37.0332 52.999C37.1992 52.9111 37.3913 52.8672 37.6094 52.8672C37.8242 52.8672 38.0122 52.9054 38.1733 52.9819C38.3345 53.0568 38.4598 53.1691 38.5493 53.3188C38.6388 53.467 38.6836 53.6517 38.6836 53.873C38.6836 53.9626 38.6624 54.0586 38.6201 54.1611C38.5794 54.262 38.5151 54.3564 38.4272 54.4443C38.341 54.5322 38.2287 54.6047 38.0903 54.6616C37.952 54.717 37.786 54.7446 37.5923 54.7446H37.2065V54.4712ZM37.2065 54.8423V54.5713H37.5923C37.8185 54.5713 38.0057 54.5981 38.1538 54.6519C38.3019 54.7056 38.4183 54.7772 38.5029 54.8667C38.5892 54.9562 38.6494 55.0547 38.6836 55.1621C38.7194 55.2679 38.7373 55.3737 38.7373 55.4795C38.7373 55.6455 38.7088 55.7928 38.6519 55.9214C38.5965 56.05 38.5176 56.159 38.415 56.2485C38.3141 56.3381 38.1953 56.4056 38.0586 56.4512C37.9219 56.4967 37.7729 56.5195 37.6118 56.5195C37.4572 56.5195 37.3115 56.4976 37.1748 56.4536C37.0397 56.4097 36.9201 56.3462 36.8159 56.2632C36.7118 56.1785 36.6304 56.0752 36.5718 55.9531C36.5132 55.8294 36.4839 55.6886 36.4839 55.5308H36.9355C36.9355 55.6545 36.9624 55.7627 37.0161 55.8555C37.0715 55.9482 37.1496 56.0207 37.2505 56.0728C37.353 56.1232 37.4735 56.1484 37.6118 56.1484C37.7502 56.1484 37.869 56.1248 37.9683 56.0776C38.0692 56.0288 38.1465 55.9556 38.2002 55.8579C38.2555 55.7603 38.2832 55.6374 38.2832 55.4893C38.2832 55.3411 38.2523 55.2199 38.1904 55.1255C38.1286 55.0295 38.0407 54.9587 37.9268 54.9131C37.8145 54.8659 37.6818 54.8423 37.5288 54.8423H37.2065ZM41.5913 54.4102V54.9521C41.5913 55.2435 41.5653 55.4893 41.5132 55.6895C41.4611 55.8896 41.3862 56.0508 41.2886 56.1729C41.1909 56.2949 41.0729 56.3836 40.9346 56.439C40.7979 56.4927 40.6432 56.5195 40.4707 56.5195C40.334 56.5195 40.2078 56.5024 40.0923 56.4683C39.9767 56.4341 39.8726 56.3796 39.7798 56.3047C39.6886 56.2282 39.6105 56.1289 39.5454 56.0068C39.4803 55.8848 39.4307 55.7367 39.3965 55.5625C39.3623 55.3883 39.3452 55.1849 39.3452 54.9521V54.4102C39.3452 54.1188 39.3713 53.8747 39.4233 53.6777C39.4771 53.4808 39.5527 53.3229 39.6504 53.2041C39.748 53.0837 39.8652 52.9974 40.002 52.9453C40.1403 52.8932 40.2949 52.8672 40.4658 52.8672C40.6042 52.8672 40.7311 52.8843 40.8467 52.9185C40.9639 52.951 41.068 53.0039 41.1592 53.0771C41.2503 53.1488 41.3276 53.2448 41.3911 53.3652C41.4562 53.484 41.5059 53.6297 41.54 53.8022C41.5742 53.9748 41.5913 54.1774 41.5913 54.4102ZM41.1372 55.0254V54.3345C41.1372 54.175 41.1274 54.035 41.1079 53.9146C41.09 53.7925 41.0632 53.6883 41.0273 53.6021C40.9915 53.5158 40.946 53.4458 40.8906 53.3921C40.8369 53.3384 40.7743 53.2993 40.7026 53.2749C40.6326 53.2489 40.5537 53.2358 40.4658 53.2358C40.3584 53.2358 40.2632 53.2562 40.1802 53.2969C40.0972 53.3359 40.0272 53.3986 39.9702 53.4849C39.9149 53.5711 39.8726 53.6842 39.8433 53.8242C39.814 53.9642 39.7993 54.1343 39.7993 54.3345V55.0254C39.7993 55.1849 39.8083 55.3257 39.8262 55.4478C39.8457 55.5698 39.8742 55.6756 39.9116 55.7651C39.9491 55.853 39.9946 55.9255 40.0483 55.9824C40.1021 56.0394 40.1639 56.0817 40.2339 56.1094C40.3055 56.1354 40.3844 56.1484 40.4707 56.1484C40.5814 56.1484 40.6782 56.1273 40.7612 56.085C40.8442 56.0426 40.9134 55.9767 40.9688 55.8872C41.0257 55.7961 41.068 55.6797 41.0957 55.5381C41.1234 55.3949 41.1372 55.224 41.1372 55.0254Z" fill="#172755"/>
<rect x="45.1777" y="50.8018" width="10.9836" height="8.65375" fill="white"/>
<path d="M48.1899 54.4712H48.5122C48.6701 54.4712 48.8003 54.4451 48.9028 54.3931C49.007 54.3394 49.0843 54.2669 49.1348 54.1758C49.1868 54.083 49.2129 53.9788 49.2129 53.8633C49.2129 53.7266 49.1901 53.6118 49.1445 53.519C49.099 53.4263 49.0306 53.3563 48.9395 53.3091C48.8483 53.2619 48.7327 53.2383 48.5928 53.2383C48.4658 53.2383 48.3535 53.2635 48.2559 53.314C48.1598 53.3628 48.0841 53.4328 48.0288 53.5239C47.9751 53.6151 47.9482 53.7225 47.9482 53.8462H47.4966C47.4966 53.6655 47.5422 53.5011 47.6333 53.353C47.7244 53.2049 47.8522 53.0869 48.0166 52.999C48.1826 52.9111 48.3747 52.8672 48.5928 52.8672C48.8076 52.8672 48.9956 52.9054 49.1567 52.9819C49.3179 53.0568 49.4432 53.1691 49.5327 53.3188C49.6222 53.467 49.667 53.6517 49.667 53.873C49.667 53.9626 49.6458 54.0586 49.6035 54.1611C49.5628 54.262 49.4985 54.3564 49.4106 54.4443C49.3244 54.5322 49.2121 54.6047 49.0737 54.6616C48.9354 54.717 48.7694 54.7446 48.5757 54.7446H48.1899V54.4712ZM48.1899 54.8423V54.5713H48.5757C48.8019 54.5713 48.9891 54.5981 49.1372 54.6519C49.2853 54.7056 49.4017 54.7772 49.4863 54.8667C49.5726 54.9562 49.6328 55.0547 49.667 55.1621C49.7028 55.2679 49.7207 55.3737 49.7207 55.4795C49.7207 55.6455 49.6922 55.7928 49.6353 55.9214C49.5799 56.05 49.501 56.159 49.3984 56.2485C49.2975 56.3381 49.1787 56.4056 49.042 56.4512C48.9053 56.4967 48.7563 56.5195 48.5952 56.5195C48.4406 56.5195 48.2949 56.4976 48.1582 56.4536C48.0231 56.4097 47.9035 56.3462 47.7993 56.2632C47.6951 56.1785 47.6138 56.0752 47.5552 55.9531C47.4966 55.8294 47.4673 55.6886 47.4673 55.5308H47.9189C47.9189 55.6545 47.9458 55.7627 47.9995 55.8555C48.0549 55.9482 48.133 56.0207 48.2339 56.0728C48.3364 56.1232 48.4569 56.1484 48.5952 56.1484C48.7336 56.1484 48.8524 56.1248 48.9517 56.0776C49.0526 56.0288 49.1299 55.9556 49.1836 55.8579C49.2389 55.7603 49.2666 55.6374 49.2666 55.4893C49.2666 55.3411 49.2357 55.2199 49.1738 55.1255C49.112 55.0295 49.0241 54.9587 48.9102 54.9131C48.7979 54.8659 48.6652 54.8423 48.5122 54.8423H48.1899ZM51.8276 52.8965V56.4707H51.376V53.4604L50.4653 53.7925V53.3848L51.7568 52.8965H51.8276Z" fill="#172755"/>
<rect x="56.1616" y="50.8018" width="10.9836" height="8.65375" fill="white"/>
<rect x="67.145" y="50.8018" width="10.9836" height="8.65375" fill="white"/>
<rect x="78.1284" y="50.8018" width="10.9836" height="8.65375" fill="white"/>
<path d="M15.3378 9.27824H15.5201L15.9853 10.4357L16.4494 9.27824H16.6327L16.0555 10.698H15.9131L15.3378 9.27824ZM15.2783 9.27824H15.4392L15.4655 10.1441V10.698H15.2783V9.27824ZM16.5304 9.27824H16.6912V10.698H16.504V10.1441L16.5304 9.27824ZM18.1149 9.94327V10.033C18.1149 10.1396 18.1016 10.2351 18.0749 10.3197C18.0483 10.4042 18.0099 10.476 17.9599 10.5352C17.9098 10.5943 17.8497 10.6395 17.7795 10.6707C17.7099 10.7019 17.6319 10.7175 17.5454 10.7175C17.4616 10.7175 17.3845 10.7019 17.3143 10.6707C17.2448 10.6395 17.1843 10.5943 17.133 10.5352C17.0823 10.476 17.0429 10.4042 17.015 10.3197C16.987 10.2351 16.973 10.1396 16.973 10.033V9.94327C16.973 9.83665 16.9867 9.74142 17.014 9.65756C17.042 9.57305 17.0813 9.50122 17.132 9.44206C17.1827 9.38225 17.2428 9.33675 17.3124 9.30555C17.3826 9.27434 17.4596 9.25874 17.5435 9.25874C17.6299 9.25874 17.708 9.27434 17.7775 9.30555C17.8477 9.33675 17.9079 9.38225 17.9579 9.44206C18.0086 9.50122 18.0473 9.57305 18.0739 9.65756C18.1012 9.74142 18.1149 9.83665 18.1149 9.94327ZM17.9287 10.033V9.94131C17.9287 9.85681 17.9199 9.78205 17.9023 9.71704C17.8854 9.65203 17.8604 9.59743 17.8272 9.55322C17.7941 9.50902 17.7535 9.47554 17.7054 9.45279C17.6579 9.43003 17.6039 9.41866 17.5435 9.41866C17.485 9.41866 17.432 9.43003 17.3845 9.45279C17.3377 9.47554 17.2974 9.50902 17.2636 9.55322C17.2305 9.59743 17.2048 9.65203 17.1866 9.71704C17.1684 9.78205 17.1593 9.85681 17.1593 9.94131V10.033C17.1593 10.1181 17.1684 10.1935 17.1866 10.2592C17.2048 10.3242 17.2308 10.3791 17.2646 10.424C17.2991 10.4682 17.3397 10.5017 17.3865 10.5244C17.434 10.5472 17.4869 10.5586 17.5454 10.5586C17.6065 10.5586 17.6608 10.5472 17.7083 10.5244C17.7557 10.5017 17.7957 10.4682 17.8282 10.424C17.8614 10.3791 17.8864 10.3242 17.9033 10.2592C17.9202 10.1935 17.9287 10.1181 17.9287 10.033ZM19.4888 9.27824V10.698H19.2997L18.5849 9.60295V10.698H18.3967V9.27824H18.5849L19.3026 10.3762V9.27824H19.4888Z" fill="#8794BA"/>
<path d="M27.2478 9.27824V10.698H27.0625V9.27824H27.2478ZM27.7042 9.27824V9.43231H26.6072V9.27824H27.7042ZM28.727 9.27824H28.9143V10.2387C28.9143 10.3453 28.8905 10.4341 28.8431 10.5049C28.7956 10.5758 28.7326 10.6291 28.6539 10.6648C28.5759 10.6999 28.4911 10.7175 28.3994 10.7175C28.3032 10.7175 28.2161 10.6999 28.1381 10.6648C28.0607 10.6291 27.9993 10.5758 27.9538 10.5049C27.9089 10.4341 27.8865 10.3453 27.8865 10.2387V9.27824H28.0727V10.2387C28.0727 10.3128 28.0864 10.3739 28.1137 10.422C28.141 10.4701 28.179 10.5059 28.2278 10.5293C28.2772 10.5527 28.3344 10.5644 28.3994 10.5644C28.4651 10.5644 28.5223 10.5527 28.571 10.5293C28.6204 10.5059 28.6588 10.4701 28.6861 10.422C28.7134 10.3739 28.727 10.3128 28.727 10.2387V9.27824ZM30.1117 10.5449V10.698H29.3599V10.5449H30.1117ZM29.3979 9.27824V10.698H29.2097V9.27824H29.3979ZM30.0122 9.88866V10.0418H29.3599V9.88866H30.0122ZM30.1019 9.27824V9.43231H29.3599V9.27824H30.1019Z" fill="#8794BA"/>
<path d="M37.782 10.269L38.0638 9.27824H38.2003L38.1213 9.66341L37.8181 10.698H37.6825L37.782 10.269ZM37.4904 9.27824L37.7147 10.2494L37.782 10.698H37.6474L37.3032 9.27824H37.4904ZM38.565 10.2485L38.7844 9.27824H38.9726L38.6294 10.698H38.4948L38.565 10.2485ZM38.2208 9.27824L38.4948 10.269L38.5943 10.698H38.4587L38.1662 9.66341L38.0862 9.27824H38.2208ZM40.0832 10.5449V10.698H39.3314V10.5449H40.0832ZM39.3695 9.27824V10.698H39.1813V9.27824H39.3695ZM39.9838 9.88866V10.0418H39.3314V9.88866H39.9838ZM40.0735 9.27824V9.43231H39.3314V9.27824H40.0735ZM40.7005 10.698H40.4041L40.406 10.5449H40.7005C40.8019 10.5449 40.8864 10.5238 40.954 10.4815C41.0216 10.4386 41.0723 10.3788 41.1061 10.3021C41.1406 10.2247 41.1578 10.1344 41.1578 10.031V9.94424C41.1578 9.86298 41.1481 9.79082 41.1286 9.72777C41.1091 9.66406 41.0805 9.61043 41.0428 9.56687C41.005 9.52267 40.9589 9.48919 40.9043 9.46644C40.8503 9.44369 40.7882 9.43231 40.718 9.43231H40.3982V9.27824H40.718C40.811 9.27824 40.8958 9.29384 40.9725 9.32505C41.0493 9.3556 41.1152 9.40013 41.1705 9.45864C41.2264 9.51649 41.2693 9.5867 41.2992 9.66926C41.3291 9.75117 41.3441 9.84348 41.3441 9.94619V10.031C41.3441 10.1337 41.3291 10.2264 41.2992 10.3089C41.2693 10.3908 41.2261 10.4607 41.1695 10.5186C41.1136 10.5764 41.046 10.621 40.9667 10.6522C40.888 10.6827 40.7993 10.698 40.7005 10.698ZM40.5045 9.27824V10.698H40.3163V9.27824H40.5045Z" fill="#8794BA"/>
<path d="M49.0697 9.27824V10.698H48.8844V9.27824H49.0697ZM49.5261 9.27824V9.43231H48.4291V9.27824H49.5261ZM50.664 9.88866V10.0418H49.8956V9.88866H50.664ZM49.9249 9.27824V10.698H49.7367V9.27824H49.9249ZM50.8278 9.27824V10.698H50.6406V9.27824H50.8278ZM51.9746 9.27824H52.1618V10.2387C52.1618 10.3453 52.138 10.4341 52.0906 10.5049C52.0431 10.5758 51.9801 10.6291 51.9014 10.6648C51.8234 10.6999 51.7386 10.7175 51.6469 10.7175C51.5507 10.7175 51.4636 10.6999 51.3856 10.6648C51.3082 10.6291 51.2468 10.5758 51.2013 10.5049C51.1564 10.4341 51.134 10.3453 51.134 10.2387V9.27824H51.3203V10.2387C51.3203 10.3128 51.3339 10.3739 51.3612 10.422C51.3885 10.4701 51.4265 10.5059 51.4753 10.5293C51.5247 10.5527 51.5819 10.5644 51.6469 10.5644C51.7126 10.5644 51.7698 10.5527 51.8185 10.5293C51.8679 10.5059 51.9063 10.4701 51.9336 10.422C51.9609 10.3739 51.9746 10.3128 51.9746 10.2387V9.27824Z" fill="#8794BA"/>
<path d="M60.2338 9.27824V10.698H60.0456V9.27824H60.2338ZM60.8286 9.91694V10.071H60.1928V9.91694H60.8286ZM60.9251 9.27824V9.43231H60.1928V9.27824H60.9251ZM61.1494 9.27824H61.6194C61.726 9.27824 61.816 9.29449 61.8895 9.327C61.9636 9.3595 62.0198 9.40761 62.0582 9.47131C62.0972 9.53437 62.1167 9.61205 62.1167 9.70436C62.1167 9.76937 62.1034 9.82885 62.0767 9.88281C62.0507 9.93611 62.013 9.98162 61.9636 10.0193C61.9148 10.0564 61.8563 10.084 61.7881 10.1022L61.7354 10.1227H61.2937L61.2918 9.96959H61.6252C61.6928 9.96959 61.7491 9.95789 61.7939 9.93449C61.8388 9.91044 61.8726 9.87826 61.8953 9.83795C61.9181 9.79765 61.9295 9.75312 61.9295 9.70436C61.9295 9.64976 61.9187 9.60198 61.8973 9.56102C61.8758 9.52007 61.842 9.48854 61.7959 9.46644C61.7504 9.44369 61.6915 9.43231 61.6194 9.43231H61.3376V10.698H61.1494V9.27824ZM61.9792 10.698L61.634 10.0544L61.83 10.0535L62.1801 10.6863V10.698H61.9792ZM62.5818 9.27824V10.698H62.3936V9.27824H62.5818Z" fill="#8794BA"/>
<path d="M71.4486 10.3392C71.4486 10.306 71.4434 10.2768 71.433 10.2514C71.4232 10.2254 71.4057 10.202 71.3803 10.1812C71.3556 10.1604 71.3212 10.1406 71.277 10.1217C71.2334 10.1029 71.1781 10.0837 71.1112 10.0642C71.041 10.0434 70.9776 10.0203 70.921 9.99495C70.8645 9.96894 70.8161 9.93936 70.7758 9.90621C70.7354 9.87306 70.7046 9.83503 70.6831 9.79212C70.6617 9.74922 70.6509 9.70014 70.6509 9.64488C70.6509 9.58963 70.6623 9.5386 70.6851 9.49179C70.7078 9.44499 70.7403 9.40436 70.7826 9.3699C70.8255 9.3348 70.8765 9.3075 70.9357 9.28799C70.9948 9.26849 71.0608 9.25874 71.1336 9.25874C71.2402 9.25874 71.3306 9.27922 71.4047 9.32017C71.4795 9.36048 71.5363 9.41346 71.5753 9.47911C71.6143 9.54412 71.6338 9.61368 71.6338 9.68779H71.4466C71.4466 9.63448 71.4353 9.58735 71.4125 9.5464C71.3897 9.50479 71.3553 9.47229 71.3091 9.44889C71.263 9.42483 71.2045 9.41281 71.1336 9.41281C71.0667 9.41281 71.0114 9.42288 70.9678 9.44304C70.9243 9.46319 70.8918 9.49049 70.8703 9.52494C70.8495 9.5594 70.8391 9.59873 70.8391 9.64293C70.8391 9.67284 70.8453 9.70014 70.8577 9.72484C70.8707 9.74889 70.8905 9.77132 70.9171 9.79212C70.9444 9.81293 70.9789 9.8321 71.0205 9.84965C71.0628 9.86721 71.1131 9.88411 71.1716 9.90036C71.2523 9.92311 71.3218 9.94847 71.3803 9.97642C71.4388 10.0044 71.4869 10.0359 71.5246 10.071C71.563 10.1055 71.5913 10.1448 71.6095 10.189C71.6283 10.2325 71.6377 10.282 71.6377 10.3372C71.6377 10.3951 71.626 10.4474 71.6026 10.4942C71.5792 10.541 71.5458 10.581 71.5022 10.6141C71.4587 10.6473 71.4063 10.673 71.3452 10.6912C71.2848 10.7087 71.2172 10.7175 71.1424 10.7175C71.0767 10.7175 71.0121 10.7084 70.9483 10.6902C70.8853 10.672 70.8278 10.6447 70.7758 10.6083C70.7244 10.5719 70.6831 10.527 70.6519 10.4737C70.6214 10.4198 70.6061 10.3574 70.6061 10.2865H70.7933C70.7933 10.3353 70.8027 10.3772 70.8216 10.4123C70.8404 10.4467 70.8661 10.4753 70.8986 10.4981C70.9318 10.5209 70.9691 10.5378 71.0108 10.5488C71.053 10.5592 71.0969 10.5644 71.1424 10.5644C71.2081 10.5644 71.2636 10.5553 71.3091 10.5371C71.3546 10.5189 71.3891 10.4929 71.4125 10.4591C71.4366 10.4253 71.4486 10.3853 71.4486 10.3392ZM72.4032 9.40403L71.9332 10.698H71.7411L72.2823 9.27824H72.4061L72.4032 9.40403ZM72.7971 10.698L72.3262 9.40403L72.3232 9.27824H72.4471L72.9902 10.698H72.7971ZM72.7728 10.1724V10.3265H71.9751V10.1724H72.7728ZM73.5782 9.27824V10.698H73.3929V9.27824H73.5782ZM74.0346 9.27824V9.43231H72.9376V9.27824H74.0346Z" fill="#8794BA"/>
<path d="M82.2559 10.3392C82.2559 10.306 82.2507 10.2768 82.2403 10.2514C82.2305 10.2254 82.213 10.202 82.1876 10.1812C82.1629 10.1604 82.1285 10.1406 82.0843 10.1217C82.0407 10.1029 81.9855 10.0837 81.9185 10.0642C81.8483 10.0434 81.7849 10.0203 81.7284 9.99495C81.6718 9.96894 81.6234 9.93936 81.5831 9.90621C81.5428 9.87306 81.5119 9.83503 81.4904 9.79212C81.469 9.74922 81.4582 9.70014 81.4582 9.64488C81.4582 9.58963 81.4696 9.5386 81.4924 9.49179C81.5151 9.44499 81.5476 9.40436 81.5899 9.3699C81.6328 9.3348 81.6838 9.3075 81.743 9.28799C81.8021 9.26849 81.8681 9.25874 81.9409 9.25874C82.0475 9.25874 82.1379 9.27922 82.212 9.32017C82.2868 9.36048 82.3436 9.41346 82.3826 9.47911C82.4217 9.54412 82.4412 9.61368 82.4412 9.68779H82.2539C82.2539 9.63448 82.2426 9.58735 82.2198 9.5464C82.1971 9.50479 82.1626 9.47229 82.1164 9.44889C82.0703 9.42483 82.0118 9.41281 81.9409 9.41281C81.874 9.41281 81.8187 9.42288 81.7752 9.44304C81.7316 9.46319 81.6991 9.49049 81.6776 9.52494C81.6568 9.5594 81.6464 9.59873 81.6464 9.64293C81.6464 9.67284 81.6526 9.70014 81.665 9.72484C81.678 9.74889 81.6978 9.77132 81.7245 9.79212C81.7518 9.81293 81.7862 9.8321 81.8278 9.84965C81.8701 9.86721 81.9204 9.88411 81.979 9.90036C82.0596 9.92311 82.1291 9.94847 82.1876 9.97642C82.2461 10.0044 82.2942 10.0359 82.3319 10.071C82.3703 10.1055 82.3986 10.1448 82.4168 10.189C82.4356 10.2325 82.4451 10.282 82.4451 10.3372C82.4451 10.3951 82.4334 10.4474 82.41 10.4942C82.3865 10.541 82.3531 10.581 82.3095 10.6141C82.266 10.6473 82.2136 10.673 82.1525 10.6912C82.0921 10.7087 82.0245 10.7175 81.9497 10.7175C81.884 10.7175 81.8194 10.7084 81.7557 10.6902C81.6926 10.672 81.6351 10.6447 81.5831 10.6083C81.5317 10.5719 81.4904 10.527 81.4592 10.4737C81.4287 10.4198 81.4134 10.3574 81.4134 10.2865H81.6006C81.6006 10.3353 81.61 10.3772 81.6289 10.4123C81.6477 10.4467 81.6734 10.4753 81.7059 10.4981C81.7391 10.5209 81.7765 10.5378 81.8181 10.5488C81.8603 10.5592 81.9042 10.5644 81.9497 10.5644C82.0154 10.5644 82.0709 10.5553 82.1164 10.5371C82.1619 10.5189 82.1964 10.4929 82.2198 10.4591C82.2439 10.4253 82.2559 10.3853 82.2559 10.3392ZM83.4972 9.27824H83.6844V10.2387C83.6844 10.3453 83.6607 10.4341 83.6132 10.5049C83.5658 10.5758 83.5027 10.6291 83.4241 10.6648C83.3461 10.6999 83.2612 10.7175 83.1696 10.7175C83.0733 10.7175 82.9862 10.6999 82.9082 10.6648C82.8309 10.6291 82.7694 10.5758 82.7239 10.5049C82.6791 10.4341 82.6567 10.3453 82.6567 10.2387V9.27824H82.8429V10.2387C82.8429 10.3128 82.8565 10.3739 82.8839 10.422C82.9112 10.4701 82.9492 10.5059 82.9979 10.5293C83.0473 10.5527 83.1046 10.5644 83.1696 10.5644C83.2352 10.5644 83.2924 10.5527 83.3412 10.5293C83.3906 10.5059 83.4289 10.4701 83.4562 10.422C83.4835 10.3739 83.4972 10.3128 83.4972 10.2387V9.27824ZM85.072 9.27824V10.698H84.8828L84.1681 9.60295V10.698H83.9799V9.27824H84.1681L84.8857 10.3762V9.27824H85.072Z" fill="#8794BA"/>
</svg>
