<svg width="101" height="69" viewBox="0 0 101 69" fill="none" xmlns="http://www.w3.org/2000/svg">
<rect x="0.65625" y="0.604065" width="99.851" height="68.2315" rx="4.99255" fill="white"/>
<rect x="10.8081" y="58.3512" width="0.166419" height="79.5479" transform="rotate(-90 10.8081 58.3512)" fill="#EEEEF7"/>
<rect x="10.8076" y="51.5281" width="0.166419" height="79.5479" transform="rotate(-90 10.8076 51.5281)" fill="#EEEEF7"/>
<rect x="10.8076" y="44.7049" width="0.166419" height="79.5479" transform="rotate(-90 10.8076 44.7049)" fill="#EEEEF7"/>
<rect x="10.8076" y="37.8818" width="0.166419" height="79.5479" transform="rotate(-90 10.8076 37.8818)" fill="#EEEEF7"/>
<rect x="10.8076" y="31.0587" width="0.166419" height="79.5479" transform="rotate(-90 10.8076 31.0587)" fill="#EEEEF7"/>
<rect x="10.8076" y="24.2355" width="0.166419" height="79.5479" transform="rotate(-90 10.8076 24.2355)" fill="#EEEEF7"/>
<rect x="10.8076" y="17.4123" width="0.166419" height="79.5479" transform="rotate(-90 10.8076 17.4123)" fill="#EEEEF7"/>
<rect x="10.8076" y="10.5892" width="0.166419" height="79.5479" transform="rotate(-90 10.8076 10.5892)" fill="#EEEEF7"/>
<path d="M10.8002 60.0886V61.5161H10.6198V60.3138L10.2561 60.4464V60.2836L10.7719 60.0886H10.8002ZM12.2258 61.1319C12.2258 61.2184 12.2057 61.2918 12.1654 61.3523C12.1257 61.4121 12.0717 61.4576 12.0035 61.4888C11.9359 61.52 11.8595 61.5356 11.7743 61.5356C11.6892 61.5356 11.6125 61.52 11.5442 61.4888C11.476 61.4576 11.422 61.4121 11.3823 61.3523C11.3427 61.2918 11.3229 61.2184 11.3229 61.1319C11.3229 61.0754 11.3336 61.0237 11.355 60.9769C11.3771 60.9294 11.408 60.8881 11.4477 60.853C11.488 60.8179 11.5354 60.791 11.59 60.7721C11.6453 60.7526 11.7061 60.7429 11.7724 60.7429C11.8595 60.7429 11.9372 60.7598 12.0054 60.7936C12.0737 60.8267 12.1273 60.8725 12.1663 60.931C12.206 60.9896 12.2258 61.0565 12.2258 61.1319ZM12.0444 61.128C12.0444 61.0754 12.0331 61.0289 12.0103 60.9886C11.9876 60.9476 11.9557 60.9158 11.9147 60.893C11.8738 60.8703 11.8263 60.8589 11.7724 60.8589C11.7171 60.8589 11.6693 60.8703 11.629 60.893C11.5894 60.9158 11.5585 60.9476 11.5364 60.9886C11.5143 61.0289 11.5033 61.0754 11.5033 61.128C11.5033 61.1826 11.514 61.2294 11.5354 61.2684C11.5575 61.3068 11.5887 61.3364 11.629 61.3572C11.67 61.3773 11.7184 61.3874 11.7743 61.3874C11.8302 61.3874 11.8783 61.3773 11.9186 61.3572C11.959 61.3364 11.9898 61.3068 12.0113 61.2684C12.0334 61.2294 12.0444 61.1826 12.0444 61.128ZM12.1927 60.4659C12.1927 60.5348 12.1745 60.5969 12.138 60.6522C12.1016 60.7074 12.0519 60.751 11.9889 60.7828C11.9258 60.8147 11.8543 60.8306 11.7743 60.8306C11.6931 60.8306 11.6206 60.8147 11.5569 60.7828C11.4938 60.751 11.4444 60.7074 11.4087 60.6522C11.3729 60.5969 11.355 60.5348 11.355 60.4659C11.355 60.3834 11.3729 60.3132 11.4087 60.2553C11.4451 60.1974 11.4948 60.1532 11.5579 60.1227C11.6209 60.0921 11.6927 60.0769 11.7734 60.0769C11.8546 60.0769 11.9268 60.0921 11.9898 60.1227C12.0529 60.1532 12.1023 60.1974 12.138 60.2553C12.1745 60.3132 12.1927 60.3834 12.1927 60.4659ZM12.0123 60.4688C12.0123 60.4214 12.0022 60.3795 11.982 60.3431C11.9619 60.3067 11.9339 60.2781 11.8982 60.2572C11.8624 60.2358 11.8208 60.2251 11.7734 60.2251C11.7259 60.2251 11.6843 60.2351 11.6485 60.2553C11.6134 60.2748 11.5858 60.3028 11.5657 60.3392C11.5462 60.3756 11.5364 60.4188 11.5364 60.4688C11.5364 60.5176 11.5462 60.5602 11.5657 60.5966C11.5858 60.633 11.6138 60.6613 11.6495 60.6814C11.6853 60.7016 11.7269 60.7116 11.7743 60.7116C11.8218 60.7116 11.8631 60.7016 11.8982 60.6814C11.9339 60.6613 11.9619 60.633 11.982 60.5966C12.0022 60.5602 12.0123 60.5176 12.0123 60.4688ZM12.8489 60.8384V60.9866H12.373V60.8384H12.8489ZM13.9361 61.3679V61.5161H13.0069V61.3864L13.472 60.8686C13.5292 60.8049 13.5734 60.751 13.6046 60.7068C13.6365 60.6619 13.6586 60.6219 13.6709 60.5868C13.6839 60.5511 13.6904 60.5147 13.6904 60.4776C13.6904 60.4308 13.6807 60.3886 13.6612 60.3509C13.6423 60.3125 13.6144 60.282 13.5773 60.2592C13.5403 60.2364 13.4954 60.2251 13.4427 60.2251C13.3797 60.2251 13.327 60.2374 13.2848 60.2621C13.2432 60.2862 13.212 60.32 13.1912 60.3635C13.1704 60.4071 13.16 60.4571 13.16 60.5137H12.9796C12.9796 60.4337 12.9971 60.3606 13.0322 60.2943C13.0673 60.228 13.1193 60.1753 13.1882 60.1363C13.2571 60.0967 13.342 60.0769 13.4427 60.0769C13.5325 60.0769 13.6092 60.0928 13.6729 60.1246C13.7366 60.1558 13.7853 60.2 13.8191 60.2572C13.8536 60.3138 13.8708 60.3801 13.8708 60.4562C13.8708 60.4978 13.8637 60.54 13.8494 60.5829C13.8357 60.6252 13.8165 60.6674 13.7918 60.7097C13.7678 60.752 13.7395 60.7936 13.707 60.8345C13.6751 60.8755 13.641 60.9158 13.6046 60.9554L13.2243 61.3679H13.9361ZM15.0887 61.0383V61.1865H14.0629V61.0802L14.6987 60.0964H14.8459L14.688 60.3811L14.2677 61.0383H15.0887ZM14.8908 60.0964V61.5161H14.7104V60.0964H14.8908Z" fill="#8794BA"/>
<path d="M48.414 60.7175H48.5427C48.6057 60.7175 48.6578 60.7071 48.6987 60.6863C48.7403 60.6648 48.7712 60.6359 48.7913 60.5995C48.8121 60.5625 48.8225 60.5209 48.8225 60.4747C48.8225 60.4201 48.8134 60.3743 48.7952 60.3372C48.777 60.3002 48.7497 60.2722 48.7133 60.2533C48.6769 60.2345 48.6308 60.2251 48.5749 60.2251C48.5242 60.2251 48.4793 60.2351 48.4403 60.2553C48.4019 60.2748 48.3717 60.3028 48.3496 60.3392C48.3282 60.3756 48.3174 60.4185 48.3174 60.4679H48.137C48.137 60.3957 48.1552 60.3301 48.1917 60.2709C48.2281 60.2117 48.2791 60.1646 48.3447 60.1295C48.411 60.0944 48.4878 60.0769 48.5749 60.0769C48.6607 60.0769 48.7358 60.0921 48.8001 60.1227C48.8645 60.1526 48.9145 60.1974 48.9503 60.2572C48.986 60.3164 49.0039 60.3902 49.0039 60.4786C49.0039 60.5144 48.9955 60.5527 48.9786 60.5937C48.9623 60.634 48.9366 60.6717 48.9015 60.7068C48.8671 60.7419 48.8222 60.7708 48.767 60.7936C48.7117 60.8157 48.6454 60.8267 48.568 60.8267H48.414V60.7175ZM48.414 60.8657V60.7575H48.568C48.6584 60.7575 48.7332 60.7682 48.7923 60.7897C48.8515 60.8111 48.898 60.8397 48.9318 60.8755C48.9662 60.9112 48.9903 60.9506 49.0039 60.9935C49.0182 61.0357 49.0254 61.078 49.0254 61.1202C49.0254 61.1865 49.014 61.2454 48.9912 61.2967C48.9691 61.3481 48.9376 61.3916 48.8967 61.4274C48.8563 61.4631 48.8089 61.4901 48.7543 61.5083C48.6997 61.5265 48.6402 61.5356 48.5758 61.5356C48.5141 61.5356 48.4559 61.5268 48.4013 61.5093C48.3473 61.4917 48.2996 61.4664 48.258 61.4332C48.2164 61.3994 48.1838 61.3581 48.1604 61.3094C48.137 61.26 48.1253 61.2038 48.1253 61.1407H48.3057C48.3057 61.1901 48.3165 61.2333 48.3379 61.2704C48.36 61.3074 48.3912 61.3364 48.4315 61.3572C48.4725 61.3773 48.5206 61.3874 48.5758 61.3874C48.6311 61.3874 48.6786 61.378 48.7182 61.3591C48.7585 61.3396 48.7894 61.3104 48.8108 61.2714C48.8329 61.2324 48.844 61.1833 48.844 61.1241C48.844 61.065 48.8316 61.0165 48.8069 60.9788C48.7822 60.9405 48.7471 60.9122 48.7016 60.894C48.6568 60.8751 48.6038 60.8657 48.5427 60.8657H48.414ZM49.5022 60.8404L49.3579 60.8033L49.4291 60.0964H50.1575V60.2631H49.5822L49.5392 60.6492C49.5653 60.6343 49.5981 60.6203 49.6377 60.6073C49.678 60.5943 49.7242 60.5878 49.7762 60.5878C49.8419 60.5878 49.9007 60.5992 49.9527 60.6219C50.0047 60.644 50.0489 60.6759 50.0853 60.7175C50.1224 60.7591 50.1506 60.8092 50.1701 60.8677C50.1896 60.9262 50.1994 60.9915 50.1994 61.0637C50.1994 61.1319 50.19 61.1947 50.1711 61.2519C50.1529 61.3091 50.1253 61.3591 50.0882 61.402C50.0512 61.4443 50.0044 61.4771 49.9478 61.5005C49.8919 61.5239 49.8259 61.5356 49.7499 61.5356C49.6927 61.5356 49.6384 61.5278 49.587 61.5122C49.5363 61.496 49.4908 61.4716 49.4505 61.4391C49.4109 61.4059 49.3784 61.365 49.353 61.3162C49.3283 61.2668 49.3127 61.209 49.3062 61.1426H49.4778C49.4856 61.196 49.5012 61.2408 49.5246 61.2772C49.548 61.3136 49.5786 61.3412 49.6163 61.3601C49.6546 61.3783 49.6992 61.3874 49.7499 61.3874C49.7928 61.3874 49.8308 61.3799 49.864 61.365C49.8971 61.35 49.9251 61.3286 49.9478 61.3006C49.9706 61.2727 49.9878 61.2389 49.9995 61.1992C50.0119 61.1595 50.018 61.115 50.018 61.0656C50.018 61.0208 50.0119 60.9792 49.9995 60.9408C49.9871 60.9024 49.9686 60.869 49.9439 60.8404C49.9199 60.8118 49.8903 60.7897 49.8552 60.7741C49.8201 60.7578 49.7798 60.7497 49.7343 60.7497C49.6738 60.7497 49.628 60.7578 49.5968 60.7741C49.5662 60.7903 49.5347 60.8124 49.5022 60.8404ZM50.7923 60.8384V60.9866H50.3164V60.8384H50.7923ZM51.9088 61.0383V61.1865H50.8829V61.0802L51.5187 60.0964H51.666L51.508 60.3811L51.0877 61.0383H51.9088ZM51.7108 60.0964V61.5161H51.5304V60.0964H51.7108ZM53.0321 61.0383V61.1865H52.0063V61.0802L52.642 60.0964H52.7893L52.6313 60.3811L52.211 61.0383H53.0321ZM52.8341 60.0964V61.5161H52.6537V60.0964H52.8341Z" fill="#8794BA"/>
<path d="M87.7862 60.0944H87.8018V60.2475H87.7862C87.6907 60.2475 87.6107 60.2631 87.5463 60.2943C87.482 60.3249 87.431 60.3661 87.3932 60.4181C87.3555 60.4695 87.3282 60.5274 87.3113 60.5917C87.2951 60.6561 87.287 60.7214 87.287 60.7877V60.9964C87.287 61.0594 87.2944 61.1153 87.3094 61.1641C87.3243 61.2122 87.3448 61.2528 87.3708 61.286C87.3968 61.3191 87.4261 61.3442 87.4586 61.3611C87.4917 61.378 87.5262 61.3864 87.5619 61.3864C87.6035 61.3864 87.6406 61.3786 87.6731 61.363C87.7056 61.3468 87.7329 61.3243 87.755 61.2957C87.7778 61.2665 87.795 61.232 87.8067 61.1924C87.8184 61.1527 87.8242 61.1092 87.8242 61.0617C87.8242 61.0195 87.819 60.9788 87.8086 60.9398C87.7982 60.9002 87.7823 60.8651 87.7609 60.8345C87.7394 60.8033 87.7124 60.7789 87.6799 60.7614C87.6481 60.7432 87.61 60.7341 87.5658 60.7341C87.5158 60.7341 87.469 60.7464 87.4254 60.7711C87.3825 60.7952 87.3471 60.827 87.3191 60.8667C87.2918 60.9057 87.2762 60.9483 87.2723 60.9944L87.1768 60.9935C87.1859 60.9206 87.2028 60.8586 87.2275 60.8072C87.2528 60.7552 87.284 60.713 87.3211 60.6804C87.3588 60.6473 87.4007 60.6232 87.4469 60.6083C87.4937 60.5927 87.5431 60.5849 87.5951 60.5849C87.666 60.5849 87.7271 60.5982 87.7784 60.6249C87.8298 60.6515 87.872 60.6873 87.9052 60.7321C87.9383 60.7763 87.9627 60.8264 87.9783 60.8823C87.9946 60.9375 88.0027 60.9944 88.0027 61.0529C88.0027 61.1199 87.9933 61.1826 87.9744 61.2411C87.9556 61.2996 87.9273 61.351 87.8896 61.3952C87.8525 61.4394 87.8067 61.4739 87.7521 61.4986C87.6975 61.5233 87.6341 61.5356 87.5619 61.5356C87.4852 61.5356 87.4183 61.52 87.3611 61.4888C87.3039 61.457 87.2564 61.4147 87.2187 61.362C87.181 61.3094 87.1527 61.2509 87.1339 61.1865C87.115 61.1222 87.1056 61.0568 87.1056 60.9905V60.9057C87.1056 60.8056 87.1157 60.7074 87.1358 60.6112C87.156 60.515 87.1908 60.4279 87.2402 60.3499C87.2902 60.2719 87.3594 60.2098 87.4479 60.1636C87.5363 60.1175 87.6491 60.0944 87.7862 60.0944ZM88.4454 60.8404L88.3011 60.8033L88.3723 60.0964H89.1007V60.2631H88.5253L88.4824 60.6492C88.5084 60.6343 88.5413 60.6203 88.5809 60.6073C88.6212 60.5943 88.6674 60.5878 88.7194 60.5878C88.7851 60.5878 88.8439 60.5992 88.8959 60.6219C88.9479 60.644 88.9921 60.6759 89.0285 60.7175C89.0656 60.7591 89.0938 60.8092 89.1133 60.8677C89.1328 60.9262 89.1426 60.9915 89.1426 61.0637C89.1426 61.1319 89.1332 61.1947 89.1143 61.2519C89.0961 61.3091 89.0685 61.3591 89.0314 61.402C88.9944 61.4443 88.9476 61.4771 88.891 61.5005C88.8351 61.5239 88.7691 61.5356 88.6931 61.5356C88.6359 61.5356 88.5816 61.5278 88.5302 61.5122C88.4795 61.496 88.434 61.4716 88.3937 61.4391C88.3541 61.4059 88.3216 61.365 88.2962 61.3162C88.2715 61.2668 88.2559 61.209 88.2494 61.1426H88.421C88.4288 61.196 88.4444 61.2408 88.4678 61.2772C88.4912 61.3136 88.5218 61.3412 88.5595 61.3601C88.5978 61.3783 88.6424 61.3874 88.6931 61.3874C88.736 61.3874 88.774 61.3799 88.8072 61.365C88.8403 61.35 88.8683 61.3286 88.891 61.3006C88.9138 61.2727 88.931 61.2389 88.9427 61.1992C88.955 61.1595 88.9612 61.115 88.9612 61.0656C88.9612 61.0208 88.955 60.9792 88.9427 60.9408C88.9303 60.9024 88.9118 60.869 88.8871 60.8404C88.8631 60.8118 88.8335 60.7897 88.7984 60.7741C88.7633 60.7578 88.723 60.7497 88.6775 60.7497C88.617 60.7497 88.5712 60.7578 88.54 60.7741C88.5094 60.7903 88.4779 60.8124 88.4454 60.8404ZM90.2718 60.7546V60.9242H89.2986V60.7546H90.2718ZM89.8759 60.3401V61.3737H89.6955V60.3401H89.8759Z" fill="#8794BA"/>
<path opacity="0.1" d="M61.049 33.8877L72.53 35.3022L81.526 28.7443L90.522 19.9918V58.1848H10.8076V54.115L17.8536 49.8366L25.3162 45.7807L37.4421 48.1652L49.5681 48.3756L61.049 33.8877Z" fill="#EF2A82"/>
<path d="M90.6052 19.9918L81.5259 28.3127L72.53 35.1358L61.049 33.8877L49.5681 48.4177L37.4421 48.206L25.3162 45.8075L17.8536 49.8872L10.8076 54.1907" stroke="#EF2A82" stroke-width="0.665673"/>
<path d="M90.6054 15.9977L81.5262 17.0795L72.5302 29.8105L61.0493 26.8981L49.5683 41.1269L37.4424 44.6217L25.3164 39.962L17.8539 38.654L10.8911 48.6157" stroke="#0088F0" stroke-width="0.665673"/>
</svg>
