<svg width="101" height="69" viewBox="0 0 101 69" fill="none" xmlns="http://www.w3.org/2000/svg">
<rect x="0.47998" y="0.484375" width="99.851" height="68.2315" rx="4.99255" fill="white"/>
<path d="M18.955 23.7958L37.0922 13.3244L55.2293 23.7958V44.7388L37.0922 55.2103L18.955 44.7388V23.7958Z" stroke="#EEEEF7" stroke-width="0.332837"/>
<path d="M25.2963 27.457L37.092 20.6468L48.8878 27.457V41.0776L37.092 47.8879L25.2963 41.0776V27.457Z" stroke="#EEEEF7" stroke-width="0.332837"/>
<path d="M27.5085 28.7781L37.1525 20.836L50.7516 26.1784L51.7253 42.4889L37.1495 51.1534L26.454 39.9718L27.5085 28.7781Z" stroke="#0088F0" stroke-width="0.665673"/>
<path d="M23.1994 26.3445L36.9855 18.73L44.6204 30.1012L49.6467 41.5897H37.1374L28.403 39.1496L23.1994 26.3445Z" stroke="#EF2A82" stroke-width="0.665673"/>
<path d="M33.0786 31.9503L37.0918 29.6333L41.1049 31.9503V36.5843L37.0918 38.9013L33.0786 36.5843V31.9503Z" stroke="#EEEEF7" stroke-width="0.332837"/>
<path d="M77.1199 23.1649H77.5428C77.75 23.1649 77.9209 23.1308 78.0555 23.0624C78.1922 22.9919 78.2936 22.8969 78.3598 22.7773C78.4282 22.6555 78.4624 22.5188 78.4624 22.3672C78.4624 22.1877 78.4325 22.0371 78.3727 21.9154C78.3128 21.7936 78.2231 21.7018 78.1035 21.6399C77.9839 21.5779 77.8323 21.5469 77.6486 21.5469C77.482 21.5469 77.3346 21.5801 77.2064 21.6463C77.0804 21.7103 76.9811 21.8022 76.9085 21.9218C76.838 22.0414 76.8027 22.1824 76.8027 22.3447H76.21C76.21 22.1076 76.2698 21.8919 76.3894 21.6975C76.509 21.5032 76.6767 21.3483 76.8924 21.233C77.1103 21.1176 77.3624 21.0599 77.6486 21.0599C77.9305 21.0599 78.1772 21.1101 78.3887 21.2105C78.6001 21.3088 78.7646 21.4562 78.8821 21.6527C78.9996 21.847 79.0583 22.0895 79.0583 22.38C79.0583 22.4974 79.0305 22.6235 78.975 22.758C78.9216 22.8905 78.8372 23.0143 78.7219 23.1297C78.6087 23.245 78.4613 23.3401 78.2797 23.4148C78.0982 23.4875 77.8803 23.5238 77.6261 23.5238H77.1199V23.1649ZM77.1199 23.6519V23.2963H77.6261C77.923 23.2963 78.1687 23.3315 78.363 23.402C78.5574 23.4725 78.7101 23.5665 78.8212 23.684C78.9344 23.8014 79.0134 23.9307 79.0583 24.0716C79.1053 24.2105 79.1288 24.3493 79.1288 24.4881C79.1288 24.706 79.0914 24.8993 79.0166 25.0681C78.944 25.2368 78.8404 25.3799 78.7059 25.4974C78.5734 25.6149 78.4175 25.7035 78.2381 25.7633C78.0587 25.8231 77.8632 25.853 77.6518 25.853C77.4489 25.853 77.2577 25.8242 77.0783 25.7665C76.901 25.7088 76.744 25.6255 76.6073 25.5166C76.4706 25.4055 76.3638 25.2699 76.2869 25.1097C76.21 24.9474 76.1716 24.7626 76.1716 24.5554H76.7643C76.7643 24.7178 76.7995 24.8598 76.87 24.9816C76.9426 25.1033 77.0452 25.1984 77.1776 25.2667C77.3122 25.3329 77.4702 25.366 77.6518 25.366C77.8333 25.366 77.9893 25.3351 78.1195 25.2731C78.252 25.209 78.3534 25.1129 78.4239 24.9848C78.4965 24.8566 78.5329 24.6953 78.5329 24.501C78.5329 24.3066 78.4923 24.1475 78.4111 24.0236C78.3299 23.8976 78.2146 23.8046 78.0651 23.7448C77.9177 23.6829 77.7436 23.6519 77.5428 23.6519H77.1199ZM83.0984 24.219V24.706H79.7279V24.3568L81.8169 21.124H82.3007L81.7816 22.0596L80.4007 24.219H83.0984ZM82.448 21.124V25.7889H81.8553V21.124H82.448ZM83.5854 22.2678V22.0211C83.5854 21.8438 83.6239 21.6826 83.7008 21.5373C83.7777 21.3921 83.8877 21.2757 84.0308 21.1881C84.1739 21.1005 84.3437 21.0567 84.5402 21.0567C84.741 21.0567 84.9119 21.1005 85.0528 21.1881C85.1959 21.2757 85.3059 21.3921 85.3828 21.5373C85.4597 21.6826 85.4982 21.8438 85.4982 22.0211V22.2678C85.4982 22.4408 85.4597 22.6 85.3828 22.7452C85.3081 22.8905 85.1991 23.0069 85.056 23.0944C84.9151 23.182 84.7453 23.2258 84.5466 23.2258C84.348 23.2258 84.176 23.182 84.0308 23.0944C83.8877 23.0069 83.7777 22.8905 83.7008 22.7452C83.6239 22.6 83.5854 22.4408 83.5854 22.2678ZM84.0308 22.0211V22.2678C84.0308 22.3661 84.0489 22.459 84.0853 22.5466C84.1237 22.6341 84.1814 22.7057 84.2583 22.7612C84.3352 22.8146 84.4313 22.8413 84.5466 22.8413C84.662 22.8413 84.757 22.8146 84.8318 22.7612C84.9065 22.7057 84.9621 22.6341 84.9984 22.5466C85.0347 22.459 85.0528 22.3661 85.0528 22.2678V22.0211C85.0528 21.9207 85.0336 21.8268 84.9952 21.7392C84.9589 21.6495 84.9023 21.5779 84.8254 21.5245C84.7506 21.469 84.6555 21.4412 84.5402 21.4412C84.427 21.4412 84.332 21.469 84.2551 21.5245C84.1803 21.5779 84.1237 21.6495 84.0853 21.7392C84.0489 21.8268 84.0308 21.9207 84.0308 22.0211ZM85.857 24.895V24.6451C85.857 24.47 85.8955 24.3098 85.9724 24.1646C86.0493 24.0193 86.1593 23.9029 86.3024 23.8153C86.4455 23.7277 86.6153 23.684 86.8118 23.684C87.0126 23.684 87.1834 23.7277 87.3244 23.8153C87.4675 23.9029 87.5775 24.0193 87.6544 24.1646C87.7313 24.3098 87.7698 24.47 87.7698 24.6451V24.895C87.7698 25.0702 87.7313 25.2304 87.6544 25.3756C87.5797 25.5209 87.4707 25.6373 87.3276 25.7249C87.1866 25.8124 87.0168 25.8562 86.8182 25.8562C86.6196 25.8562 86.4487 25.8124 86.3056 25.7249C86.1625 25.6373 86.0514 25.5209 85.9724 25.3756C85.8955 25.2304 85.857 25.0702 85.857 24.895ZM86.3024 24.6451V24.895C86.3024 24.9933 86.3205 25.0873 86.3568 25.177C86.3953 25.2646 86.453 25.3361 86.5298 25.3917C86.6067 25.4451 86.7029 25.4718 86.8182 25.4718C86.9335 25.4718 87.0286 25.4451 87.1033 25.3917C87.1802 25.3361 87.2368 25.2646 87.2732 25.177C87.3095 25.0894 87.3276 24.9954 87.3276 24.895V24.6451C87.3276 24.5448 87.3084 24.4508 87.27 24.3632C87.2336 24.2756 87.177 24.2051 87.1001 24.1517C87.0254 24.0962 86.9293 24.0684 86.8118 24.0684C86.6986 24.0684 86.6035 24.0962 86.5266 24.1517C86.4519 24.2051 86.3953 24.2756 86.3568 24.3632C86.3205 24.4508 86.3024 24.5448 86.3024 24.6451ZM86.9592 21.7872L84.6812 25.4333L84.348 25.2218L86.626 21.5758L86.9592 21.7872Z" fill="#EF2A82"/>
<path d="M76.0018 29.8368V29.8032C76.0018 29.6891 76.0183 29.5833 76.0515 29.4858C76.0846 29.3873 76.1324 29.302 76.1948 29.2298C76.2572 29.1567 76.3328 29.1002 76.4215 29.0602C76.5103 29.0192 76.6097 28.9987 76.7199 28.9987C76.8311 28.9987 76.931 29.0192 77.0198 29.0602C77.1095 29.1002 77.1855 29.1567 77.2479 29.2298C77.3113 29.302 77.3596 29.3873 77.3927 29.4858C77.4259 29.5833 77.4425 29.6891 77.4425 29.8032V29.8368C77.4425 29.9509 77.4259 30.0567 77.3927 30.1542C77.3596 30.2518 77.3113 30.3371 77.2479 30.4102C77.1855 30.4824 77.11 30.5389 77.0212 30.5799C76.9335 30.6199 76.834 30.6398 76.7228 30.6398C76.6117 30.6398 76.5117 30.6199 76.423 30.5799C76.3343 30.5389 76.2582 30.4824 76.1948 30.4102C76.1324 30.3371 76.0846 30.2518 76.0515 30.1542C76.0183 30.0567 76.0018 29.9509 76.0018 29.8368ZM76.2723 29.8032V29.8368C76.2723 29.9158 76.2816 29.9904 76.3001 30.0606C76.3187 30.1299 76.3465 30.1913 76.3835 30.2449C76.4215 30.2986 76.4688 30.341 76.5254 30.3722C76.5819 30.4024 76.6478 30.4175 76.7228 30.4175C76.797 30.4175 76.8618 30.4024 76.9174 30.3722C76.9739 30.341 77.0207 30.2986 77.0578 30.2449C77.0948 30.1913 77.1226 30.1299 77.1412 30.0606C77.1607 29.9904 77.1704 29.9158 77.1704 29.8368V29.8032C77.1704 29.7252 77.1607 29.6516 77.1412 29.5823C77.1226 29.5121 77.0944 29.4502 77.0563 29.3966C77.0193 29.342 76.9725 29.2991 76.9159 29.2679C76.8603 29.2367 76.795 29.2211 76.7199 29.2211C76.6458 29.2211 76.5805 29.2367 76.5239 29.2679C76.4683 29.2991 76.4215 29.342 76.3835 29.3966C76.3465 29.4502 76.3187 29.5121 76.3001 29.5823C76.2816 29.6516 76.2723 29.7252 76.2723 29.8032ZM78.0524 29.3322V31.2191H77.7803V29.028H78.029L78.0524 29.3322ZM79.1187 29.8061V29.8368C79.1187 29.9519 79.105 30.0587 79.0777 30.1572C79.0504 30.2547 79.0104 30.3395 78.9578 30.4117C78.9061 30.4838 78.8422 30.5399 78.7662 30.5799C78.6901 30.6199 78.6029 30.6398 78.5044 30.6398C78.4039 30.6398 78.3152 30.6233 78.2382 30.5901C78.1611 30.557 78.0958 30.5087 78.0422 30.4453C77.9885 30.3819 77.9456 30.3059 77.9134 30.2171C77.8822 30.1284 77.8608 30.0285 77.8491 29.9173V29.7535C77.8608 29.6365 77.8827 29.5316 77.9149 29.439C77.9471 29.3464 77.9895 29.2674 78.0422 29.2021C78.0958 29.1357 78.1606 29.0855 78.2367 29.0514C78.3128 29.0163 78.4005 28.9987 78.5 28.9987C78.5994 28.9987 78.6877 29.0182 78.7647 29.0573C78.8418 29.0953 78.9066 29.1499 78.9593 29.2211C79.0119 29.2923 79.0514 29.3776 79.0777 29.477C79.105 29.5755 79.1187 29.6852 79.1187 29.8061ZM78.8466 29.8368V29.8061C78.8466 29.7271 78.8383 29.653 78.8218 29.5838C78.8052 29.5136 78.7793 29.4522 78.7442 29.3995C78.7101 29.3459 78.6662 29.304 78.6126 29.2737C78.559 29.2425 78.4951 29.2269 78.421 29.2269C78.3527 29.2269 78.2933 29.2386 78.2425 29.262C78.1928 29.2854 78.1504 29.3171 78.1153 29.3571C78.0802 29.3961 78.0514 29.441 78.029 29.4917C78.0075 29.5414 77.9915 29.5931 77.9807 29.6467V30.0255C78.0002 30.0938 78.0275 30.1581 78.0626 30.2186C78.0977 30.2781 78.1446 30.3264 78.2031 30.3634C78.2616 30.3995 78.3352 30.4175 78.4239 30.4175C78.4971 30.4175 78.5599 30.4024 78.6126 30.3722C78.6662 30.341 78.7101 30.2986 78.7442 30.2449C78.7793 30.1913 78.8052 30.1299 78.8218 30.0606C78.8383 29.9904 78.8466 29.9158 78.8466 29.8368ZM80.1265 29.028V29.2357H79.2708V29.028H80.1265ZM79.5604 28.6433H79.831V30.2186C79.831 30.2722 79.8393 30.3127 79.8559 30.34C79.8724 30.3673 79.8939 30.3853 79.9202 30.3941C79.9465 30.4029 79.9748 30.4073 80.0051 30.4073C80.0275 30.4073 80.0509 30.4053 80.0753 30.4014C80.1006 30.3966 80.1196 30.3927 80.1323 30.3897L80.1338 30.6106C80.1123 30.6174 80.084 30.6238 80.0489 30.6296C80.0148 30.6364 79.9734 30.6398 79.9246 30.6398C79.8583 30.6398 79.7974 30.6267 79.7418 30.6004C79.6862 30.574 79.6418 30.5301 79.6087 30.4687C79.5765 30.4063 79.5604 30.3225 79.5604 30.2171V28.6433ZM80.7378 29.028V30.6106H80.4658V29.028H80.7378ZM80.4453 28.6082C80.4453 28.5643 80.4585 28.5273 80.4848 28.4971C80.5121 28.4668 80.5521 28.4517 80.6047 28.4517C80.6564 28.4517 80.6959 28.4668 80.7232 28.4971C80.7515 28.5273 80.7656 28.5643 80.7656 28.6082C80.7656 28.6501 80.7515 28.6862 80.7232 28.7165C80.6959 28.7457 80.6564 28.7603 80.6047 28.7603C80.5521 28.7603 80.5121 28.7457 80.4848 28.7165C80.4585 28.6862 80.4453 28.6501 80.4453 28.6082ZM81.1006 29.8368V29.8032C81.1006 29.6891 81.1172 29.5833 81.1503 29.4858C81.1835 29.3873 81.2313 29.302 81.2937 29.2298C81.3561 29.1567 81.4316 29.1002 81.5204 29.0602C81.6091 29.0192 81.7086 28.9987 81.8188 28.9987C81.9299 28.9987 82.0299 29.0192 82.1186 29.0602C82.2083 29.1002 82.2844 29.1567 82.3468 29.2298C82.4102 29.302 82.4584 29.3873 82.4916 29.4858C82.5247 29.5833 82.5413 29.6891 82.5413 29.8032V29.8368C82.5413 29.9509 82.5247 30.0567 82.4916 30.1542C82.4584 30.2518 82.4102 30.3371 82.3468 30.4102C82.2844 30.4824 82.2088 30.5389 82.1201 30.5799C82.0323 30.6199 81.9328 30.6398 81.8217 30.6398C81.7105 30.6398 81.6106 30.6199 81.5218 30.5799C81.4331 30.5389 81.357 30.4824 81.2937 30.4102C81.2313 30.3371 81.1835 30.2518 81.1503 30.1542C81.1172 30.0567 81.1006 29.9509 81.1006 29.8368ZM81.3712 29.8032V29.8368C81.3712 29.9158 81.3804 29.9904 81.399 30.0606C81.4175 30.1299 81.4453 30.1913 81.4823 30.2449C81.5204 30.2986 81.5677 30.341 81.6242 30.3722C81.6808 30.4024 81.7466 30.4175 81.8217 30.4175C81.8958 30.4175 81.9606 30.4024 82.0162 30.3722C82.0728 30.341 82.1196 30.2986 82.1566 30.2449C82.1937 30.1913 82.2215 30.1299 82.24 30.0606C82.2595 29.9904 82.2693 29.9158 82.2693 29.8368V29.8032C82.2693 29.7252 82.2595 29.6516 82.24 29.5823C82.2215 29.5121 82.1932 29.4502 82.1552 29.3966C82.1181 29.342 82.0713 29.2991 82.0148 29.2679C81.9592 29.2367 81.8938 29.2211 81.8188 29.2211C81.7446 29.2211 81.6793 29.2367 81.6228 29.2679C81.5672 29.2991 81.5204 29.342 81.4823 29.3966C81.4453 29.4502 81.4175 29.5121 81.399 29.5823C81.3804 29.6516 81.3712 29.7252 81.3712 29.8032ZM83.1512 29.3659V30.6106H82.8806V29.028H83.1366L83.1512 29.3659ZM83.0869 29.7593L82.9743 29.7549C82.9752 29.6467 82.9913 29.5468 83.0225 29.4551C83.0537 29.3625 83.0976 29.282 83.1542 29.2138C83.2107 29.1455 83.278 29.0928 83.356 29.0558C83.435 29.0178 83.5223 28.9987 83.6178 28.9987C83.6958 28.9987 83.766 29.0095 83.8285 29.0309C83.8909 29.0514 83.944 29.0846 83.9879 29.1304C84.0327 29.1762 84.0669 29.2357 84.0903 29.3088C84.1137 29.381 84.1254 29.4692 84.1254 29.5736V30.6106H83.8533V29.5706C83.8533 29.4878 83.8411 29.4215 83.8167 29.3717C83.7924 29.321 83.7568 29.2844 83.71 29.262C83.6632 29.2386 83.6056 29.2269 83.5374 29.2269C83.4701 29.2269 83.4087 29.2411 83.3531 29.2693C83.2985 29.2976 83.2512 29.3366 83.2112 29.3863C83.1722 29.4361 83.1415 29.4931 83.1191 29.5575C83.0976 29.6209 83.0869 29.6881 83.0869 29.7593ZM86.1395 28.4693V30.6106H85.8689V28.8071L85.3233 29.0061V28.7618L86.097 28.4693H86.1395Z" fill="#8794BA"/>
<path d="M79.3114 43.9407V44.4277H76.2581V44.0016L77.7863 42.3003C77.9743 42.091 78.1195 41.9137 78.2221 41.7685C78.3267 41.6211 78.3994 41.4897 78.4399 41.3744C78.4827 41.2569 78.504 41.1373 78.504 41.0156C78.504 40.8618 78.472 40.7229 78.4079 40.599C78.346 40.473 78.2541 40.3726 78.1324 40.2979C78.0106 40.2231 77.8632 40.1857 77.6902 40.1857C77.483 40.1857 77.31 40.2263 77.1712 40.3075C77.0345 40.3865 76.932 40.4976 76.8636 40.6407C76.7953 40.7838 76.7611 40.9483 76.7611 41.1341H76.1684C76.1684 40.8714 76.226 40.6311 76.3414 40.4132C76.4567 40.1954 76.6276 40.0223 76.854 39.8942C77.0804 39.7639 77.3591 39.6987 77.6902 39.6987C77.985 39.6987 78.237 39.7511 78.4463 39.8557C78.6557 39.9583 78.8159 40.1035 78.9269 40.2915C79.0401 40.4773 79.0967 40.6952 79.0967 40.9451C79.0967 41.0818 79.0732 41.2206 79.0263 41.3616C78.9814 41.5004 78.9184 41.6393 78.8372 41.7781C78.7582 41.9169 78.6653 42.0536 78.5585 42.1882C78.4538 42.3228 78.3417 42.4552 78.2221 42.5855L76.9725 43.9407H79.3114ZM80.5353 43.9311H80.5962C80.9379 43.9311 81.2156 43.8831 81.4292 43.7869C81.6428 43.6908 81.8073 43.5616 81.9226 43.3993C82.0379 43.2369 82.117 43.0543 82.1597 42.8514C82.2024 42.6464 82.2238 42.436 82.2238 42.2202V41.5058C82.2238 41.2943 82.1992 41.1063 82.1501 40.9419C82.1031 40.7774 82.0369 40.6396 81.9514 40.5286C81.8681 40.4175 81.7731 40.3331 81.6663 40.2754C81.5595 40.2178 81.4463 40.1889 81.3267 40.1889C81.19 40.1889 81.0672 40.2167 80.9582 40.2722C80.8514 40.3256 80.7606 40.4015 80.6859 40.4997C80.6133 40.598 80.5577 40.7133 80.5193 40.8457C80.4808 40.9782 80.4616 41.1224 80.4616 41.2783C80.4616 41.4171 80.4787 41.5517 80.5129 41.682C80.5471 41.8123 80.5994 41.9297 80.6699 42.0344C80.7404 42.1391 80.8279 42.2224 80.9326 42.2843C81.0394 42.3441 81.1643 42.374 81.3074 42.374C81.4399 42.374 81.5638 42.3484 81.6791 42.2971C81.7966 42.2437 81.9002 42.1722 81.9899 42.0825C82.0817 41.9906 82.1544 41.887 82.2078 41.7717C82.2633 41.6563 82.2953 41.5357 82.3039 41.4096H82.5858C82.5858 41.5869 82.5506 41.7621 82.4801 41.9351C82.4117 42.106 82.3156 42.2619 82.1917 42.4029C82.0678 42.5438 81.9226 42.657 81.756 42.7425C81.5894 42.8258 81.4078 42.8674 81.2113 42.8674C80.9806 42.8674 80.7809 42.8226 80.6122 42.7329C80.4435 42.6431 80.3046 42.5235 80.1957 42.374C80.0889 42.2245 80.0088 42.0579 79.9554 41.8742C79.9041 41.6884 79.8785 41.5004 79.8785 41.3103C79.8785 41.0882 79.9095 40.8799 79.9714 40.6856C80.0334 40.4912 80.1252 40.3203 80.247 40.1729C80.3687 40.0234 80.5193 39.907 80.6987 39.8237C80.8803 39.7404 81.0896 39.6987 81.3267 39.6987C81.5937 39.6987 81.8211 39.7521 82.0091 39.8589C82.1971 39.9657 82.3498 40.1088 82.4673 40.2883C82.5869 40.4677 82.6745 40.6695 82.73 40.8938C82.7855 41.1181 82.8133 41.3488 82.8133 41.5859V41.8005C82.8133 42.0419 82.7973 42.2875 82.7652 42.5374C82.7353 42.7852 82.6766 43.0223 82.589 43.2487C82.5036 43.4751 82.3786 43.678 82.2142 43.8574C82.0497 44.0347 81.835 44.1757 81.5702 44.2804C81.3074 44.3829 80.9828 44.4341 80.5962 44.4341H80.5353V43.9311ZM83.5854 40.9066V40.6599C83.5854 40.4826 83.6239 40.3214 83.7008 40.1761C83.7777 40.0309 83.8877 39.9145 84.0308 39.8269C84.1739 39.7393 84.3437 39.6955 84.5402 39.6955C84.741 39.6955 84.9119 39.7393 85.0528 39.8269C85.1959 39.9145 85.3059 40.0309 85.3828 40.1761C85.4597 40.3214 85.4982 40.4826 85.4982 40.6599V40.9066C85.4982 41.0796 85.4597 41.2388 85.3828 41.384C85.3081 41.5293 85.1991 41.6457 85.056 41.7332C84.9151 41.8208 84.7453 41.8646 84.5466 41.8646C84.348 41.8646 84.176 41.8208 84.0308 41.7332C83.8877 41.6457 83.7777 41.5293 83.7008 41.384C83.6239 41.2388 83.5854 41.0796 83.5854 40.9066ZM84.0308 40.6599V40.9066C84.0308 41.0049 84.0489 41.0978 84.0853 41.1854C84.1237 41.2729 84.1814 41.3445 84.2583 41.4C84.3352 41.4534 84.4313 41.4801 84.5466 41.4801C84.662 41.4801 84.757 41.4534 84.8318 41.4C84.9065 41.3445 84.9621 41.2729 84.9984 41.1854C85.0347 41.0978 85.0528 41.0049 85.0528 40.9066V40.6599C85.0528 40.5595 85.0336 40.4655 84.9952 40.378C84.9589 40.2883 84.9023 40.2167 84.8254 40.1633C84.7506 40.1078 84.6555 40.08 84.5402 40.08C84.427 40.08 84.332 40.1078 84.2551 40.1633C84.1803 40.2167 84.1237 40.2883 84.0853 40.378C84.0489 40.4655 84.0308 40.5595 84.0308 40.6599ZM85.857 43.5338V43.2839C85.857 43.1088 85.8955 42.9486 85.9724 42.8033C86.0493 42.6581 86.1593 42.5417 86.3024 42.4541C86.4455 42.3665 86.6153 42.3228 86.8118 42.3228C87.0126 42.3228 87.1834 42.3665 87.3244 42.4541C87.4675 42.5417 87.5775 42.6581 87.6544 42.8033C87.7313 42.9486 87.7698 43.1088 87.7698 43.2839V43.5338C87.7698 43.709 87.7313 43.8692 87.6544 44.0144C87.5797 44.1597 87.4707 44.2761 87.3276 44.3637C87.1866 44.4512 87.0168 44.495 86.8182 44.495C86.6196 44.495 86.4487 44.4512 86.3056 44.3637C86.1625 44.2761 86.0514 44.1597 85.9724 44.0144C85.8955 43.8692 85.857 43.709 85.857 43.5338ZM86.3024 43.2839V43.5338C86.3024 43.6321 86.3205 43.7261 86.3568 43.8158C86.3953 43.9034 86.453 43.9749 86.5298 44.0304C86.6067 44.0838 86.7029 44.1105 86.8182 44.1105C86.9335 44.1105 87.0286 44.0838 87.1033 44.0304C87.1802 43.9749 87.2368 43.9034 87.2732 43.8158C87.3095 43.7282 87.3276 43.6342 87.3276 43.5338V43.2839C87.3276 43.1835 87.3084 43.0896 87.27 43.002C87.2336 42.9144 87.177 42.8439 87.1001 42.7905C87.0254 42.735 86.9293 42.7072 86.8118 42.7072C86.6986 42.7072 86.6035 42.735 86.5266 42.7905C86.4519 42.8439 86.3953 42.9144 86.3568 43.002C86.3205 43.0896 86.3024 43.1835 86.3024 43.2839ZM86.9592 40.426L84.6812 44.0721L84.348 43.8606L86.626 40.2146L86.9592 40.426Z" fill="#0088F0"/>
<path d="M76.0018 48.4756V48.442C76.0018 48.3279 76.0183 48.2221 76.0515 48.1246C76.0846 48.0261 76.1324 47.9408 76.1948 47.8686C76.2572 47.7955 76.3328 47.7389 76.4215 47.699C76.5103 47.658 76.6097 47.6375 76.7199 47.6375C76.8311 47.6375 76.931 47.658 77.0198 47.699C77.1095 47.7389 77.1855 47.7955 77.2479 47.8686C77.3113 47.9408 77.3596 48.0261 77.3927 48.1246C77.4259 48.2221 77.4425 48.3279 77.4425 48.442V48.4756C77.4425 48.5897 77.4259 48.6955 77.3927 48.793C77.3596 48.8906 77.3113 48.9759 77.2479 49.049C77.1855 49.1212 77.11 49.1777 77.0212 49.2187C76.9335 49.2587 76.834 49.2786 76.7228 49.2786C76.6117 49.2786 76.5117 49.2587 76.423 49.2187C76.3343 49.1777 76.2582 49.1212 76.1948 49.049C76.1324 48.9759 76.0846 48.8906 76.0515 48.793C76.0183 48.6955 76.0018 48.5897 76.0018 48.4756ZM76.2723 48.442V48.4756C76.2723 48.5546 76.2816 48.6292 76.3001 48.6994C76.3187 48.7687 76.3465 48.8301 76.3835 48.8837C76.4215 48.9374 76.4688 48.9798 76.5254 49.011C76.5819 49.0412 76.6478 49.0563 76.7228 49.0563C76.797 49.0563 76.8618 49.0412 76.9174 49.011C76.9739 48.9798 77.0207 48.9374 77.0578 48.8837C77.0948 48.8301 77.1226 48.7687 77.1412 48.6994C77.1607 48.6292 77.1704 48.5546 77.1704 48.4756V48.442C77.1704 48.364 77.1607 48.2904 77.1412 48.2211C77.1226 48.1509 77.0944 48.089 77.0563 48.0354C77.0193 47.9808 76.9725 47.9379 76.9159 47.9067C76.8603 47.8755 76.795 47.8599 76.7199 47.8599C76.6458 47.8599 76.5805 47.8755 76.5239 47.9067C76.4683 47.9379 76.4215 47.9808 76.3835 48.0354C76.3465 48.089 76.3187 48.1509 76.3001 48.2211C76.2816 48.2904 76.2723 48.364 76.2723 48.442ZM78.0524 47.971V49.8579H77.7803V47.6668H78.029L78.0524 47.971ZM79.1187 48.4449V48.4756C79.1187 48.5907 79.105 48.6975 79.0777 48.796C79.0504 48.8935 79.0104 48.9783 78.9578 49.0505C78.9061 49.1226 78.8422 49.1787 78.7662 49.2187C78.6901 49.2587 78.6029 49.2786 78.5044 49.2786C78.4039 49.2786 78.3152 49.2621 78.2382 49.2289C78.1611 49.1958 78.0958 49.1475 78.0422 49.0841C77.9885 49.0207 77.9456 48.9447 77.9134 48.8559C77.8822 48.7672 77.8608 48.6673 77.8491 48.5561V48.3923C77.8608 48.2753 77.8827 48.1704 77.9149 48.0778C77.9471 47.9852 77.9895 47.9062 78.0422 47.8408C78.0958 47.7745 78.1606 47.7243 78.2367 47.6902C78.3128 47.6551 78.4005 47.6375 78.5 47.6375C78.5994 47.6375 78.6877 47.657 78.7647 47.696C78.8418 47.7341 78.9066 47.7887 78.9593 47.8599C79.0119 47.931 79.0514 48.0164 79.0777 48.1158C79.105 48.2143 79.1187 48.324 79.1187 48.4449ZM78.8466 48.4756V48.4449C78.8466 48.3659 78.8383 48.2918 78.8218 48.2226C78.8052 48.1524 78.7793 48.091 78.7442 48.0383C78.7101 47.9847 78.6662 47.9427 78.6126 47.9125C78.559 47.8813 78.4951 47.8657 78.421 47.8657C78.3527 47.8657 78.2933 47.8774 78.2425 47.9008C78.1928 47.9242 78.1504 47.9559 78.1153 47.9959C78.0802 48.0349 78.0514 48.0797 78.029 48.1305C78.0075 48.1802 77.9915 48.2319 77.9807 48.2855V48.6643C78.0002 48.7326 78.0275 48.7969 78.0626 48.8574C78.0977 48.9169 78.1446 48.9651 78.2031 49.0022C78.2616 49.0383 78.3352 49.0563 78.4239 49.0563C78.4971 49.0563 78.5599 49.0412 78.6126 49.011C78.6662 48.9798 78.7101 48.9374 78.7442 48.8837C78.7793 48.8301 78.8052 48.7687 78.8218 48.6994C78.8383 48.6292 78.8466 48.5546 78.8466 48.4756ZM80.1265 47.6668V47.8745H79.2708V47.6668H80.1265ZM79.5604 47.2821H79.831V48.8574C79.831 48.911 79.8393 48.9515 79.8559 48.9788C79.8724 49.0061 79.8939 49.0241 79.9202 49.0329C79.9465 49.0417 79.9748 49.0461 80.0051 49.0461C80.0275 49.0461 80.0509 49.0441 80.0753 49.0402C80.1006 49.0354 80.1196 49.0315 80.1323 49.0285L80.1338 49.2494C80.1123 49.2562 80.084 49.2626 80.0489 49.2684C80.0148 49.2752 79.9734 49.2786 79.9246 49.2786C79.8583 49.2786 79.7974 49.2655 79.7418 49.2392C79.6862 49.2128 79.6418 49.1689 79.6087 49.1075C79.5765 49.0451 79.5604 48.9612 79.5604 48.8559V47.2821ZM80.7378 47.6668V49.2494H80.4658V47.6668H80.7378ZM80.4453 47.247C80.4453 47.2031 80.4585 47.1661 80.4848 47.1358C80.5121 47.1056 80.5521 47.0905 80.6047 47.0905C80.6564 47.0905 80.6959 47.1056 80.7232 47.1358C80.7515 47.1661 80.7656 47.2031 80.7656 47.247C80.7656 47.2889 80.7515 47.325 80.7232 47.3552C80.6959 47.3845 80.6564 47.3991 80.6047 47.3991C80.5521 47.3991 80.5121 47.3845 80.4848 47.3552C80.4585 47.325 80.4453 47.2889 80.4453 47.247ZM81.1006 48.4756V48.442C81.1006 48.3279 81.1172 48.2221 81.1503 48.1246C81.1835 48.0261 81.2313 47.9408 81.2937 47.8686C81.3561 47.7955 81.4316 47.7389 81.5204 47.699C81.6091 47.658 81.7086 47.6375 81.8188 47.6375C81.9299 47.6375 82.0299 47.658 82.1186 47.699C82.2083 47.7389 82.2844 47.7955 82.3468 47.8686C82.4102 47.9408 82.4584 48.0261 82.4916 48.1246C82.5247 48.2221 82.5413 48.3279 82.5413 48.442V48.4756C82.5413 48.5897 82.5247 48.6955 82.4916 48.793C82.4584 48.8906 82.4102 48.9759 82.3468 49.049C82.2844 49.1212 82.2088 49.1777 82.1201 49.2187C82.0323 49.2587 81.9328 49.2786 81.8217 49.2786C81.7105 49.2786 81.6106 49.2587 81.5218 49.2187C81.4331 49.1777 81.357 49.1212 81.2937 49.049C81.2313 48.9759 81.1835 48.8906 81.1503 48.793C81.1172 48.6955 81.1006 48.5897 81.1006 48.4756ZM81.3712 48.442V48.4756C81.3712 48.5546 81.3804 48.6292 81.399 48.6994C81.4175 48.7687 81.4453 48.8301 81.4823 48.8837C81.5204 48.9374 81.5677 48.9798 81.6242 49.011C81.6808 49.0412 81.7466 49.0563 81.8217 49.0563C81.8958 49.0563 81.9606 49.0412 82.0162 49.011C82.0728 48.9798 82.1196 48.9374 82.1566 48.8837C82.1937 48.8301 82.2215 48.7687 82.24 48.6994C82.2595 48.6292 82.2693 48.5546 82.2693 48.4756V48.442C82.2693 48.364 82.2595 48.2904 82.24 48.2211C82.2215 48.1509 82.1932 48.089 82.1552 48.0354C82.1181 47.9808 82.0713 47.9379 82.0148 47.9067C81.9592 47.8755 81.8938 47.8599 81.8188 47.8599C81.7446 47.8599 81.6793 47.8755 81.6228 47.9067C81.5672 47.9379 81.5204 47.9808 81.4823 48.0354C81.4453 48.089 81.4175 48.1509 81.399 48.2211C81.3804 48.2904 81.3712 48.364 81.3712 48.442ZM83.1512 48.0047V49.2494H82.8806V47.6668H83.1366L83.1512 48.0047ZM83.0869 48.3981L82.9743 48.3937C82.9752 48.2855 82.9913 48.1855 83.0225 48.0939C83.0537 48.0013 83.0976 47.9208 83.1542 47.8525C83.2107 47.7843 83.278 47.7316 83.356 47.6946C83.435 47.6566 83.5223 47.6375 83.6178 47.6375C83.6958 47.6375 83.766 47.6483 83.8285 47.6697C83.8909 47.6902 83.944 47.7233 83.9879 47.7692C84.0327 47.815 84.0669 47.8745 84.0903 47.9476C84.1137 48.0198 84.1254 48.108 84.1254 48.2124V49.2494H83.8533V48.2094C83.8533 48.1266 83.8411 48.0602 83.8167 48.0105C83.7924 47.9598 83.7568 47.9232 83.71 47.9008C83.6632 47.8774 83.6056 47.8657 83.5374 47.8657C83.4701 47.8657 83.4087 47.8799 83.3531 47.9081C83.2985 47.9364 83.2512 47.9754 83.2112 48.0251C83.1722 48.0749 83.1415 48.1319 83.1191 48.1963C83.0976 48.2597 83.0869 48.3269 83.0869 48.3981ZM86.6455 49.0271V49.2494H85.2516V49.0549L85.9493 48.2782C86.0351 48.1826 86.1014 48.1017 86.1482 48.0354C86.196 47.9681 86.2292 47.9081 86.2477 47.8555C86.2672 47.8018 86.2769 47.7472 86.2769 47.6917C86.2769 47.6214 86.2623 47.5581 86.2331 47.5015C86.2048 47.444 86.1629 47.3981 86.1073 47.364C86.0517 47.3299 85.9844 47.3128 85.9054 47.3128C85.8108 47.3128 85.7319 47.3314 85.6685 47.3684C85.6061 47.4045 85.5593 47.4552 85.5281 47.5205C85.4969 47.5859 85.4813 47.6609 85.4813 47.7458H85.2107C85.2107 47.6258 85.237 47.5161 85.2896 47.4167C85.3423 47.3172 85.4203 47.2382 85.5237 47.1797C85.627 47.1202 85.7543 47.0905 85.9054 47.0905C86.04 47.0905 86.1551 47.1144 86.2506 47.1622C86.3462 47.209 86.4193 47.2753 86.47 47.3611C86.5217 47.4459 86.5475 47.5454 86.5475 47.6595C86.5475 47.7219 86.5368 47.7853 86.5154 47.8496C86.4949 47.913 86.4661 47.9764 86.4291 48.0398C86.393 48.1032 86.3506 48.1656 86.3018 48.227C86.254 48.2884 86.2028 48.3489 86.1482 48.4084L85.5778 49.0271H86.6455Z" fill="#8794BA"/>
<path d="M35.3634 9.54412V10.9717H35.183V9.76937L34.8193 9.90199V9.73914L35.3352 9.54412H35.3634ZM36.789 10.5875C36.789 10.6739 36.7689 10.7474 36.7286 10.8079C36.6889 10.8677 36.635 10.9132 36.5667 10.9444C36.4991 10.9756 36.4227 10.9912 36.3376 10.9912C36.2524 10.9912 36.1757 10.9756 36.1074 10.9444C36.0392 10.9132 35.9852 10.8677 35.9456 10.8079C35.9059 10.7474 35.8861 10.6739 35.8861 10.5875C35.8861 10.5309 35.8968 10.4793 35.9183 10.4324C35.9404 10.385 35.9713 10.3437 36.0109 10.3086C36.0512 10.2735 36.0987 10.2465 36.1533 10.2277C36.2085 10.2082 36.2693 10.1984 36.3356 10.1984C36.4227 10.1984 36.5004 10.2153 36.5687 10.2491C36.6369 10.2823 36.6906 10.3281 36.7296 10.3866C36.7692 10.4451 36.789 10.5121 36.789 10.5875ZM36.6077 10.5836C36.6077 10.5309 36.5963 10.4845 36.5735 10.4441C36.5508 10.4032 36.5189 10.3713 36.478 10.3486C36.437 10.3258 36.3896 10.3145 36.3356 10.3145C36.2804 10.3145 36.2326 10.3258 36.1923 10.3486C36.1526 10.3713 36.1217 10.4032 36.0996 10.4441C36.0775 10.4845 36.0665 10.5309 36.0665 10.5836C36.0665 10.6382 36.0772 10.685 36.0987 10.724C36.1208 10.7624 36.152 10.7919 36.1923 10.8127C36.2332 10.8329 36.2817 10.843 36.3376 10.843C36.3935 10.843 36.4416 10.8329 36.4819 10.8127C36.5222 10.7919 36.5531 10.7624 36.5745 10.724C36.5966 10.685 36.6077 10.6382 36.6077 10.5836ZM36.7559 9.92149C36.7559 9.9904 36.7377 10.0525 36.7013 10.1077C36.6649 10.163 36.6151 10.2065 36.5521 10.2384C36.489 10.2703 36.4175 10.2862 36.3376 10.2862C36.2563 10.2862 36.1838 10.2703 36.1201 10.2384C36.0571 10.2065 36.0077 10.163 35.9719 10.1077C35.9362 10.0525 35.9183 9.9904 35.9183 9.92149C35.9183 9.83893 35.9362 9.76872 35.9719 9.71087C36.0083 9.65301 36.058 9.6088 36.1211 9.57825C36.1842 9.5477 36.256 9.53242 36.3366 9.53242C36.4179 9.53242 36.49 9.5477 36.5531 9.57825C36.6161 9.6088 36.6655 9.65301 36.7013 9.71087C36.7377 9.76872 36.7559 9.83893 36.7559 9.92149ZM36.5755 9.92441C36.5755 9.87696 36.5654 9.83503 36.5453 9.79863C36.5251 9.76222 36.4972 9.73362 36.4614 9.71282C36.4257 9.69136 36.384 9.68064 36.3366 9.68064C36.2891 9.68064 36.2475 9.69071 36.2118 9.71087C36.1767 9.73037 36.149 9.75832 36.1289 9.79473C36.1094 9.83113 36.0996 9.87436 36.0996 9.92441C36.0996 9.97317 36.1094 10.0157 36.1289 10.0522C36.149 10.0886 36.177 10.1168 36.2128 10.137C36.2485 10.1571 36.2901 10.1672 36.3376 10.1672C36.385 10.1672 36.4263 10.1571 36.4614 10.137C36.4972 10.1168 36.5251 10.0886 36.5453 10.0522C36.5654 10.0157 36.5755 9.97317 36.5755 9.92441ZM37.4121 10.294V10.4422H36.9363V10.294H37.4121ZM38.4994 10.8235V10.9717H37.5701V10.842L38.0352 10.3242C38.0924 10.2605 38.1366 10.2065 38.1678 10.1623C38.1997 10.1175 38.2218 10.0775 38.2342 10.0424C38.2472 10.0066 38.2537 9.97024 38.2537 9.93319C38.2537 9.88639 38.2439 9.84413 38.2244 9.80643C38.2055 9.76807 38.1776 9.73752 38.1405 9.71477C38.1035 9.69201 38.0586 9.68064 38.006 9.68064C37.9429 9.68064 37.8903 9.69299 37.848 9.71769C37.8064 9.74174 37.7752 9.77555 37.7544 9.8191C37.7336 9.86266 37.7232 9.91271 37.7232 9.96927H37.5428C37.5428 9.88931 37.5604 9.81618 37.5955 9.74987C37.6306 9.68356 37.6826 9.63091 37.7515 9.5919C37.8204 9.55225 37.9052 9.53242 38.006 9.53242C38.0957 9.53242 38.1724 9.54835 38.2361 9.5802C38.2998 9.61141 38.3486 9.65561 38.3824 9.71282C38.4168 9.76937 38.434 9.83568 38.434 9.91174C38.434 9.95334 38.4269 9.9956 38.4126 10.0385C38.3989 10.0808 38.3798 10.123 38.3551 10.1653C38.331 10.2075 38.3027 10.2491 38.2702 10.2901C38.2384 10.331 38.2042 10.3713 38.1678 10.411L37.7876 10.8235H38.4994ZM39.652 10.4939V10.6421H38.6261V10.5358L39.2619 9.55192H39.4092L39.2512 9.83665L38.8309 10.4939H39.652ZM39.454 9.55192V10.9717H39.2736V9.55192H39.454Z" fill="#8794BA"/>
<path d="M59.1657 23.8041V23.9523H58.2364V23.8226L58.7015 23.3048C58.7587 23.2411 58.8029 23.1871 58.8341 23.1429C58.866 23.0981 58.8881 23.0581 58.9004 23.023C58.9134 22.9872 58.9199 22.9508 58.9199 22.9138C58.9199 22.867 58.9102 22.8247 58.8907 22.787C58.8718 22.7487 58.8439 22.7181 58.8068 22.6954C58.7698 22.6726 58.7249 22.6612 58.6723 22.6612C58.6092 22.6612 58.5566 22.6736 58.5143 22.6983C58.4727 22.7223 58.4415 22.7561 58.4207 22.7997C58.3999 22.8432 58.3895 22.8933 58.3895 22.9499H58.2091C58.2091 22.8699 58.2266 22.7968 58.2617 22.7305C58.2968 22.6642 58.3489 22.6115 58.4178 22.5725C58.4867 22.5328 58.5715 22.513 58.6723 22.513C58.762 22.513 58.8387 22.5289 58.9024 22.5608C58.9661 22.592 59.0149 22.6362 59.0487 22.6934C59.0831 22.75 59.1003 22.8163 59.1003 22.8923C59.1003 22.9339 59.0932 22.9762 59.0789 23.0191C59.0652 23.0613 59.0461 23.1036 59.0214 23.1459C58.9973 23.1881 58.969 23.2297 58.9365 23.2707C58.9047 23.3116 58.8705 23.3519 58.8341 23.3916L58.4538 23.8041H59.1657ZM59.5869 23.2765L59.4426 23.2395L59.5138 22.5325H60.2422V22.6993H59.6669L59.624 23.0854C59.65 23.0704 59.6828 23.0565 59.7225 23.0435C59.7628 23.0305 59.8089 23.024 59.8609 23.024C59.9266 23.024 59.9854 23.0353 60.0374 23.0581C60.0894 23.0802 60.1336 23.1121 60.17 23.1537C60.2071 23.1953 60.2354 23.2453 60.2549 23.3038C60.2744 23.3623 60.2841 23.4277 60.2841 23.4998C60.2841 23.5681 60.2747 23.6308 60.2558 23.688C60.2376 23.7452 60.21 23.7953 60.173 23.8382C60.1359 23.8804 60.0891 23.9133 60.0325 23.9367C59.9766 23.9601 59.9107 23.9718 59.8346 23.9718C59.7774 23.9718 59.7231 23.964 59.6717 23.9484C59.621 23.9321 59.5755 23.9077 59.5352 23.8752C59.4956 23.8421 59.4631 23.8011 59.4377 23.7524C59.413 23.703 59.3974 23.6451 59.3909 23.5788H59.5625C59.5703 23.6321 59.5859 23.677 59.6093 23.7134C59.6327 23.7498 59.6633 23.7774 59.701 23.7963C59.7394 23.8145 59.7839 23.8236 59.8346 23.8236C59.8775 23.8236 59.9155 23.8161 59.9487 23.8011C59.9818 23.7862 60.0098 23.7647 60.0325 23.7368C60.0553 23.7088 60.0725 23.675 60.0842 23.6354C60.0966 23.5957 60.1027 23.5512 60.1027 23.5018C60.1027 23.4569 60.0966 23.4153 60.0842 23.377C60.0719 23.3386 60.0533 23.3051 60.0286 23.2765C60.0046 23.2479 59.975 23.2258 59.9399 23.2102C59.9048 23.194 59.8645 23.1858 59.819 23.1858C59.7585 23.1858 59.7127 23.194 59.6815 23.2102C59.6509 23.2265 59.6194 23.2486 59.5869 23.2765ZM60.877 23.2746V23.4228H60.4011V23.2746H60.877ZM61.2973 23.1537H61.426C61.489 23.1537 61.541 23.1433 61.582 23.1225C61.6236 23.101 61.6545 23.0721 61.6746 23.0357C61.6954 22.9986 61.7058 22.957 61.7058 22.9109C61.7058 22.8563 61.6967 22.8104 61.6785 22.7734C61.6603 22.7363 61.633 22.7084 61.5966 22.6895C61.5602 22.6707 61.5141 22.6612 61.4581 22.6612C61.4074 22.6612 61.3626 22.6713 61.3236 22.6915C61.2852 22.711 61.255 22.7389 61.2329 22.7753C61.2114 22.8117 61.2007 22.8546 61.2007 22.904H61.0203C61.0203 22.8319 61.0385 22.7662 61.0749 22.7071C61.1113 22.6479 61.1624 22.6008 61.228 22.5657C61.2943 22.5306 61.371 22.513 61.4581 22.513C61.544 22.513 61.619 22.5283 61.6834 22.5588C61.7478 22.5887 61.7978 22.6336 61.8336 22.6934C61.8693 22.7526 61.8872 22.8263 61.8872 22.9148C61.8872 22.9505 61.8787 22.9889 61.8618 23.0298C61.8456 23.0701 61.8199 23.1078 61.7848 23.1429C61.7504 23.178 61.7055 23.207 61.6502 23.2297C61.595 23.2518 61.5287 23.2629 61.4513 23.2629H61.2973V23.1537ZM61.2973 23.3019V23.1936H61.4513C61.5417 23.1936 61.6164 23.2044 61.6756 23.2258C61.7348 23.2473 61.7812 23.2759 61.815 23.3116C61.8495 23.3474 61.8735 23.3867 61.8872 23.4296C61.9015 23.4719 61.9086 23.5141 61.9086 23.5564C61.9086 23.6227 61.8973 23.6815 61.8745 23.7329C61.8524 23.7842 61.8209 23.8278 61.7799 23.8635C61.7396 23.8993 61.6922 23.9263 61.6376 23.9445C61.583 23.9627 61.5235 23.9718 61.4591 23.9718C61.3974 23.9718 61.3392 23.963 61.2846 23.9454C61.2306 23.9279 61.1828 23.9025 61.1412 23.8694C61.0996 23.8356 61.0671 23.7943 61.0437 23.7455C61.0203 23.6961 61.0086 23.6399 61.0086 23.5769H61.189C61.189 23.6263 61.1997 23.6695 61.2212 23.7065C61.2433 23.7436 61.2745 23.7725 61.3148 23.7933C61.3558 23.8135 61.4039 23.8236 61.4591 23.8236C61.5144 23.8236 61.5618 23.8141 61.6015 23.7953C61.6418 23.7758 61.6727 23.7465 61.6941 23.7075C61.7162 23.6685 61.7273 23.6194 61.7273 23.5603C61.7273 23.5011 61.7149 23.4527 61.6902 23.415C61.6655 23.3766 61.6304 23.3484 61.5849 23.3302C61.5401 23.3113 61.4871 23.3019 61.426 23.3019H61.2973ZM63.1168 23.4745V23.6227H62.091V23.5164L62.7268 22.5325H62.874L62.716 22.8172L62.2958 23.4745H63.1168ZM62.9189 22.5325V23.9523H62.7385V22.5325H62.9189Z" fill="#8794BA"/>
<path d="M58.4987 44.9546H58.6274C58.6905 44.9546 58.7425 44.9442 58.7834 44.9234C58.825 44.9019 58.8559 44.873 58.8761 44.8366C58.8969 44.7995 58.9073 44.7579 58.9073 44.7118C58.9073 44.6572 58.8982 44.6113 58.88 44.5743C58.8618 44.5372 58.8345 44.5093 58.7981 44.4904C58.7616 44.4716 58.7155 44.4621 58.6596 44.4621C58.6089 44.4621 58.564 44.4722 58.525 44.4924C58.4867 44.5119 58.4564 44.5398 58.4343 44.5762C58.4129 44.6126 58.4022 44.6555 58.4022 44.7049H58.2218C58.2218 44.6328 58.24 44.5671 58.2764 44.508C58.3128 44.4488 58.3638 44.4017 58.4295 44.3666C58.4958 44.3315 58.5725 44.3139 58.6596 44.3139C58.7454 44.3139 58.8205 44.3292 58.8848 44.3597C58.9492 44.3896 58.9992 44.4345 59.035 44.4943C59.0708 44.5535 59.0886 44.6273 59.0886 44.7157C59.0886 44.7514 59.0802 44.7898 59.0633 44.8307C59.047 44.871 59.0214 44.9087 58.9862 44.9438C58.9518 44.9789 58.9069 45.0079 58.8517 45.0306C58.7964 45.0527 58.7301 45.0638 58.6528 45.0638H58.4987V44.9546ZM58.4987 45.1028V44.9945H58.6528C58.7431 44.9945 58.8179 45.0053 58.877 45.0267C58.9362 45.0482 58.9827 45.0768 59.0165 45.1125C59.0509 45.1483 59.075 45.1876 59.0886 45.2305C59.1029 45.2728 59.1101 45.315 59.1101 45.3573C59.1101 45.4236 59.0987 45.4824 59.076 45.5338C59.0539 45.5851 59.0223 45.6287 58.9814 45.6644C58.9411 45.7002 58.8936 45.7272 58.839 45.7454C58.7844 45.7636 58.7249 45.7727 58.6606 45.7727C58.5988 45.7727 58.5406 45.7639 58.486 45.7463C58.4321 45.7288 58.3843 45.7034 58.3427 45.6703C58.3011 45.6365 58.2686 45.5952 58.2452 45.5465C58.2218 45.497 58.2101 45.4408 58.2101 45.3778H58.3905C58.3905 45.4272 58.4012 45.4704 58.4226 45.5074C58.4447 45.5445 58.4759 45.5734 58.5162 45.5942C58.5572 45.6144 58.6053 45.6245 58.6606 45.6245C58.7158 45.6245 58.7633 45.615 58.8029 45.5962C58.8432 45.5767 58.8741 45.5474 58.8956 45.5084C58.9177 45.4694 58.9287 45.4203 58.9287 45.3612C58.9287 45.302 58.9164 45.2536 58.8917 45.2159C58.867 45.1775 58.8319 45.1493 58.7864 45.1311C58.7415 45.1122 58.6885 45.1028 58.6274 45.1028H58.4987ZM59.5869 45.0774L59.4426 45.0404L59.5138 44.3334H60.2422V44.5002H59.6669L59.624 44.8863C59.65 44.8714 59.6828 44.8574 59.7225 44.8444C59.7628 44.8314 59.8089 44.8249 59.8609 44.8249C59.9266 44.8249 59.9854 44.8362 60.0374 44.859C60.0894 44.8811 60.1336 44.913 60.17 44.9546C60.2071 44.9962 60.2354 45.0462 60.2549 45.1047C60.2744 45.1632 60.2841 45.2286 60.2841 45.3007C60.2841 45.369 60.2747 45.4317 60.2558 45.4889C60.2376 45.5461 60.21 45.5962 60.173 45.6391C60.1359 45.6813 60.0891 45.7142 60.0325 45.7376C59.9766 45.761 59.9107 45.7727 59.8346 45.7727C59.7774 45.7727 59.7231 45.7649 59.6717 45.7493C59.621 45.733 59.5755 45.7086 59.5352 45.6761C59.4956 45.643 59.4631 45.602 59.4377 45.5533C59.413 45.5039 59.3974 45.446 59.3909 45.3797H59.5625C59.5703 45.433 59.5859 45.4779 59.6093 45.5143C59.6327 45.5507 59.6633 45.5783 59.701 45.5972C59.7394 45.6154 59.7839 45.6245 59.8346 45.6245C59.8775 45.6245 59.9155 45.617 59.9487 45.602C59.9818 45.5871 60.0098 45.5656 60.0325 45.5377C60.0553 45.5097 60.0725 45.4759 60.0842 45.4363C60.0966 45.3966 60.1027 45.3521 60.1027 45.3027C60.1027 45.2578 60.0966 45.2162 60.0842 45.1779C60.0719 45.1395 60.0533 45.106 60.0286 45.0774C60.0046 45.0488 59.975 45.0267 59.9399 45.0111C59.9048 44.9949 59.8645 44.9867 59.819 44.9867C59.7585 44.9867 59.7127 44.9949 59.6815 45.0111C59.6509 45.0274 59.6194 45.0495 59.5869 45.0774ZM60.877 45.0755V45.2237H60.4011V45.0755H60.877ZM61.9935 45.2754V45.4236H60.9677V45.3173L61.6034 44.3334H61.7507L61.5927 44.6181L61.1724 45.2754H61.9935ZM61.7955 44.3334V45.7532H61.6151V44.3334H61.7955ZM63.1168 45.2754V45.4236H62.091V45.3173L62.7268 44.3334H62.874L62.716 44.6181L62.2958 45.2754H63.1168ZM62.9189 44.3334V45.7532H62.7385V44.3334H62.9189Z" fill="#8794BA"/>
<path d="M35.7301 59.4209V59.5691H34.7043V59.4628L35.34 58.4789H35.4873L35.3293 58.7637L34.909 59.4209H35.7301ZM35.5321 58.4789V59.8987H35.3517V58.4789H35.5321ZM36.1221 59.2229L35.9778 59.1859L36.0489 58.4789H36.7773V58.6457H36.202L36.1591 59.0318C36.1851 59.0169 36.218 59.0029 36.2576 58.9899C36.2979 58.9769 36.3441 58.9704 36.3961 58.9704C36.4617 58.9704 36.5206 58.9818 36.5726 59.0045C36.6246 59.0266 36.6688 59.0585 36.7052 59.1001C36.7422 59.1417 36.7705 59.1917 36.79 59.2502C36.8095 59.3087 36.8193 59.3741 36.8193 59.4462C36.8193 59.5145 36.8098 59.5772 36.791 59.6344C36.7728 59.6916 36.7452 59.7417 36.7081 59.7846C36.6711 59.8268 36.6243 59.8597 36.5677 59.8831C36.5118 59.9065 36.4458 59.9182 36.3697 59.9182C36.3125 59.9182 36.2583 59.9104 36.2069 59.8948C36.1562 59.8785 36.1107 59.8542 36.0704 59.8216C36.0307 59.7885 35.9982 59.7475 35.9729 59.6988C35.9482 59.6494 35.9326 59.5915 35.9261 59.5252H36.0977C36.1055 59.5785 36.1211 59.6234 36.1445 59.6598C36.1679 59.6962 36.1985 59.7238 36.2362 59.7427C36.2745 59.7609 36.319 59.77 36.3697 59.77C36.4127 59.77 36.4507 59.7625 36.4838 59.7475C36.517 59.7326 36.5449 59.7111 36.5677 59.6832C36.5904 59.6552 36.6077 59.6214 36.6194 59.5818C36.6317 59.5421 36.6379 59.4976 36.6379 59.4482C36.6379 59.4033 36.6317 59.3617 36.6194 59.3234C36.607 59.285 36.5885 59.2515 36.5638 59.2229C36.5397 59.1943 36.5102 59.1722 36.4751 59.1566C36.44 59.1404 36.3997 59.1322 36.3541 59.1322C36.2937 59.1322 36.2479 59.1404 36.2167 59.1566C36.1861 59.1729 36.1546 59.195 36.1221 59.2229ZM37.4121 59.221V59.3692H36.9363V59.221H37.4121ZM37.7973 59.2229L37.653 59.1859L37.7242 58.4789H38.4526V58.6457H37.8773L37.8344 59.0318C37.8604 59.0169 37.8932 59.0029 37.9328 58.9899C37.9731 58.9769 38.0193 58.9704 38.0713 58.9704C38.137 58.9704 38.1958 58.9818 38.2478 59.0045C38.2998 59.0266 38.344 59.0585 38.3804 59.1001C38.4175 59.1417 38.4458 59.1917 38.4653 59.2502C38.4848 59.3087 38.4945 59.3741 38.4945 59.4462C38.4945 59.5145 38.4851 59.5772 38.4662 59.6344C38.448 59.6916 38.4204 59.7417 38.3833 59.7846C38.3463 59.8268 38.2995 59.8597 38.2429 59.8831C38.187 59.9065 38.121 59.9182 38.045 59.9182C37.9878 59.9182 37.9335 59.9104 37.8821 59.8948C37.8314 59.8785 37.7859 59.8542 37.7456 59.8216C37.706 59.7885 37.6735 59.7475 37.6481 59.6988C37.6234 59.6494 37.6078 59.5915 37.6013 59.5252H37.7729C37.7807 59.5785 37.7963 59.6234 37.8197 59.6598C37.8431 59.6962 37.8737 59.7238 37.9114 59.7427C37.9497 59.7609 37.9943 59.77 38.045 59.77C38.0879 59.77 38.1259 59.7625 38.1591 59.7475C38.1922 59.7326 38.2202 59.7111 38.2429 59.6832C38.2657 59.6552 38.2829 59.6214 38.2946 59.5818C38.307 59.5421 38.3131 59.4976 38.3131 59.4482C38.3131 59.4033 38.307 59.3617 38.2946 59.3234C38.2823 59.285 38.2637 59.2515 38.239 59.2229C38.215 59.1943 38.1854 59.1722 38.1503 59.1566C38.1152 59.1404 38.0749 59.1322 38.0294 59.1322C37.9689 59.1322 37.9231 59.1404 37.8919 59.1566C37.8613 59.1729 37.8298 59.195 37.7973 59.2229ZM39.652 59.4209V59.5691H38.6261V59.4628L39.2619 58.4789H39.4092L39.2512 58.7637L38.8309 59.4209H39.652ZM39.454 58.4789V59.8987H39.2736V58.4789H39.454Z" fill="#8794BA"/>
<path d="M11.5339 45.0774L11.3896 45.0404L11.4608 44.3334H12.1892V44.5002H11.6139L11.571 44.8863C11.597 44.8714 11.6298 44.8574 11.6694 44.8444C11.7097 44.8314 11.7559 44.8249 11.8079 44.8249C11.8736 44.8249 11.9324 44.8362 11.9844 44.859C12.0364 44.8811 12.0806 44.913 12.117 44.9546C12.1541 44.9962 12.1823 45.0462 12.2019 45.1047C12.2214 45.1632 12.2311 45.2286 12.2311 45.3007C12.2311 45.369 12.2217 45.4317 12.2028 45.4889C12.1846 45.5461 12.157 45.5962 12.1199 45.6391C12.0829 45.6813 12.0361 45.7142 11.9795 45.7376C11.9236 45.761 11.8576 45.7727 11.7816 45.7727C11.7244 45.7727 11.6701 45.7649 11.6187 45.7493C11.568 45.733 11.5225 45.7086 11.4822 45.6761C11.4426 45.643 11.4101 45.602 11.3847 45.5533C11.36 45.5039 11.3444 45.446 11.3379 45.3797H11.5095C11.5173 45.433 11.5329 45.4779 11.5563 45.5143C11.5797 45.5507 11.6103 45.5783 11.648 45.5972C11.6863 45.6154 11.7309 45.6245 11.7816 45.6245C11.8245 45.6245 11.8625 45.617 11.8957 45.602C11.9288 45.5871 11.9568 45.5656 11.9795 45.5377C12.0023 45.5097 12.0195 45.4759 12.0312 45.4363C12.0436 45.3966 12.0497 45.3521 12.0497 45.3027C12.0497 45.2578 12.0436 45.2162 12.0312 45.1779C12.0189 45.1395 12.0003 45.106 11.9756 45.0774C11.9516 45.0488 11.922 45.0267 11.8869 45.0111C11.8518 44.9949 11.8115 44.9867 11.766 44.9867C11.7055 44.9867 11.6597 44.9949 11.6285 45.0111C11.5979 45.0274 11.5664 45.0495 11.5339 45.0774ZM12.6572 45.0774L12.5129 45.0404L12.5841 44.3334H13.3125V44.5002H12.7372L12.6943 44.8863C12.7203 44.8714 12.7531 44.8574 12.7928 44.8444C12.8331 44.8314 12.8792 44.8249 12.9312 44.8249C12.9969 44.8249 13.0557 44.8362 13.1077 44.859C13.1597 44.8811 13.2039 44.913 13.2403 44.9546C13.2774 44.9962 13.3057 45.0462 13.3252 45.1047C13.3447 45.1632 13.3544 45.2286 13.3544 45.3007C13.3544 45.369 13.345 45.4317 13.3262 45.4889C13.3079 45.5461 13.2803 45.5962 13.2433 45.6391C13.2062 45.6813 13.1594 45.7142 13.1029 45.7376C13.0469 45.761 12.981 45.7727 12.9049 45.7727C12.8477 45.7727 12.7934 45.7649 12.7421 45.7493C12.6914 45.733 12.6459 45.7086 12.6055 45.6761C12.5659 45.643 12.5334 45.602 12.508 45.5533C12.4833 45.5039 12.4677 45.446 12.4612 45.3797H12.6328C12.6407 45.433 12.6563 45.4779 12.6797 45.5143C12.7031 45.5507 12.7336 45.5783 12.7713 45.5972C12.8097 45.6154 12.8542 45.6245 12.9049 45.6245C12.9478 45.6245 12.9858 45.617 13.019 45.602C13.0521 45.5871 13.0801 45.5656 13.1029 45.5377C13.1256 45.5097 13.1428 45.4759 13.1545 45.4363C13.1669 45.3966 13.1731 45.3521 13.1731 45.3027C13.1731 45.2578 13.1669 45.2162 13.1545 45.1779C13.1422 45.1395 13.1237 45.106 13.099 45.0774C13.0749 45.0488 13.0453 45.0267 13.0102 45.0111C12.9751 44.9949 12.9348 44.9867 12.8893 44.9867C12.8288 44.9867 12.783 44.9949 12.7518 45.0111C12.7213 45.0274 12.6897 45.0495 12.6572 45.0774ZM13.9473 45.0755V45.2237H13.4714V45.0755H13.9473ZM14.7966 44.3315H14.8122V44.4846H14.7966C14.7011 44.4846 14.6211 44.5002 14.5567 44.5314C14.4924 44.5619 14.4413 44.6032 14.4036 44.6552C14.3659 44.7066 14.3386 44.7644 14.3217 44.8288C14.3055 44.8931 14.2974 44.9585 14.2974 45.0248V45.2334C14.2974 45.2965 14.3048 45.3524 14.3198 45.4012C14.3347 45.4493 14.3552 45.4899 14.3812 45.523C14.4072 45.5562 14.4365 45.5812 14.469 45.5981C14.5021 45.615 14.5366 45.6235 14.5723 45.6235C14.6139 45.6235 14.651 45.6157 14.6835 45.6001C14.716 45.5838 14.7433 45.5614 14.7654 45.5328C14.7882 45.5035 14.8054 45.4691 14.8171 45.4294C14.8288 45.3898 14.8346 45.3462 14.8346 45.2988C14.8346 45.2565 14.8294 45.2159 14.819 45.1769C14.8086 45.1372 14.7927 45.1021 14.7713 45.0716C14.7498 45.0404 14.7228 45.016 14.6903 44.9984C14.6585 44.9802 14.6204 44.9711 14.5762 44.9711C14.5262 44.9711 14.4794 44.9835 14.4358 45.0082C14.3929 45.0322 14.3575 45.0641 14.3295 45.1038C14.3022 45.1428 14.2866 45.1853 14.2827 45.2315L14.1872 45.2305C14.1963 45.1577 14.2132 45.0956 14.2379 45.0443C14.2632 44.9923 14.2944 44.95 14.3315 44.9175C14.3692 44.8844 14.4111 44.8603 14.4573 44.8453C14.5041 44.8297 14.5535 44.8219 14.6055 44.8219C14.6763 44.8219 14.7375 44.8353 14.7888 44.8619C14.8402 44.8886 14.8824 44.9243 14.9156 44.9692C14.9487 45.0134 14.9731 45.0634 14.9887 45.1194C15.005 45.1746 15.0131 45.2315 15.0131 45.29C15.0131 45.357 15.0037 45.4197 14.9848 45.4782C14.966 45.5367 14.9377 45.5881 14.9 45.6323C14.8629 45.6765 14.8171 45.7109 14.7625 45.7356C14.7079 45.7603 14.6445 45.7727 14.5723 45.7727C14.4956 45.7727 14.4287 45.7571 14.3715 45.7259C14.3143 45.694 14.2668 45.6518 14.2291 45.5991C14.1914 45.5465 14.1631 45.4879 14.1443 45.4236C14.1254 45.3592 14.116 45.2939 14.116 45.2276V45.1428C14.116 45.0426 14.1261 44.9445 14.1462 44.8483C14.1664 44.7521 14.2011 44.665 14.2506 44.5869C14.3006 44.5089 14.3698 44.4469 14.4582 44.4007C14.5467 44.3545 14.6594 44.3315 14.7966 44.3315ZM16.1871 45.2754V45.4236H15.1613V45.3173L15.7971 44.3334H15.9443L15.7863 44.6181L15.3661 45.2754H16.1871ZM15.9892 44.3334V45.7532H15.8088V44.3334H15.9892Z" fill="#8794BA"/>
<path d="M12.8307 22.5306H12.8463V22.6837H12.8307C12.7352 22.6837 12.6552 22.6993 12.5909 22.7305C12.5265 22.761 12.4755 22.8023 12.4378 22.8543C12.4001 22.9057 12.3728 22.9635 12.3559 23.0279C12.3396 23.0922 12.3315 23.1576 12.3315 23.2239V23.4325C12.3315 23.4956 12.339 23.5515 12.3539 23.6003C12.3689 23.6484 12.3893 23.689 12.4153 23.7221C12.4413 23.7553 12.4706 23.7803 12.5031 23.7972C12.5363 23.8141 12.5707 23.8226 12.6065 23.8226C12.6481 23.8226 12.6851 23.8148 12.7176 23.7992C12.7501 23.7829 12.7774 23.7605 12.7995 23.7319C12.8223 23.7026 12.8395 23.6682 12.8512 23.6285C12.8629 23.5889 12.8688 23.5453 12.8688 23.4979C12.8688 23.4556 12.8636 23.415 12.8532 23.376C12.8428 23.3363 12.8268 23.3012 12.8054 23.2707C12.7839 23.2395 12.757 23.2151 12.7244 23.1975C12.6926 23.1793 12.6546 23.1702 12.6104 23.1702C12.5603 23.1702 12.5135 23.1826 12.4699 23.2073C12.427 23.2313 12.3916 23.2632 12.3637 23.3028C12.3364 23.3419 12.3208 23.3844 12.3169 23.4306L12.2213 23.4296C12.2304 23.3568 12.2473 23.2947 12.272 23.2434C12.2974 23.1914 12.3286 23.1491 12.3656 23.1166C12.4033 23.0835 12.4452 23.0594 12.4914 23.0444C12.5382 23.0288 12.5876 23.021 12.6396 23.021C12.7105 23.021 12.7716 23.0344 12.8229 23.061C12.8743 23.0877 12.9165 23.1234 12.9497 23.1683C12.9829 23.2125 13.0072 23.2625 13.0228 23.3185C13.0391 23.3737 13.0472 23.4306 13.0472 23.4891C13.0472 23.5561 13.0378 23.6188 13.0189 23.6773C13.0001 23.7358 12.9718 23.7872 12.9341 23.8314C12.897 23.8756 12.8512 23.91 12.7966 23.9347C12.742 23.9594 12.6786 23.9718 12.6065 23.9718C12.5298 23.9718 12.4628 23.9562 12.4056 23.925C12.3484 23.8931 12.3009 23.8509 12.2632 23.7982C12.2255 23.7455 12.1972 23.687 12.1784 23.6227C12.1595 23.5583 12.1501 23.493 12.1501 23.4267V23.3419C12.1501 23.2417 12.1602 23.1436 12.1803 23.0474C12.2005 22.9512 12.2353 22.8641 12.2847 22.786C12.3347 22.708 12.404 22.646 12.4924 22.5998C12.5808 22.5536 12.6936 22.5306 12.8307 22.5306ZM13.4899 23.2765L13.3456 23.2395L13.4168 22.5325H14.1452V22.6993H13.5699L13.527 23.0854C13.553 23.0704 13.5858 23.0565 13.6254 23.0435C13.6658 23.0305 13.7119 23.024 13.7639 23.024C13.8296 23.024 13.8884 23.0353 13.9404 23.0581C13.9924 23.0802 14.0366 23.1121 14.073 23.1537C14.1101 23.1953 14.1384 23.2453 14.1579 23.3038C14.1774 23.3623 14.1871 23.4277 14.1871 23.4998C14.1871 23.5681 14.1777 23.6308 14.1588 23.688C14.1406 23.7452 14.113 23.7953 14.0759 23.8382C14.0389 23.8804 13.9921 23.9133 13.9355 23.9367C13.8796 23.9601 13.8136 23.9718 13.7376 23.9718C13.6804 23.9718 13.6261 23.964 13.5747 23.9484C13.524 23.9321 13.4785 23.9077 13.4382 23.8752C13.3986 23.8421 13.3661 23.8011 13.3407 23.7524C13.316 23.703 13.3004 23.6451 13.2939 23.5788H13.4655C13.4733 23.6321 13.4889 23.677 13.5123 23.7134C13.5357 23.7498 13.5663 23.7774 13.604 23.7963C13.6424 23.8145 13.6869 23.8236 13.7376 23.8236C13.7805 23.8236 13.8185 23.8161 13.8517 23.8011C13.8848 23.7862 13.9128 23.7647 13.9355 23.7368C13.9583 23.7088 13.9755 23.675 13.9872 23.6354C13.9996 23.5957 14.0057 23.5512 14.0057 23.5018C14.0057 23.4569 13.9996 23.4153 13.9872 23.377C13.9749 23.3386 13.9563 23.3051 13.9316 23.2765C13.9076 23.2479 13.878 23.2258 13.8429 23.2102C13.8078 23.194 13.7675 23.1858 13.722 23.1858C13.6615 23.1858 13.6157 23.194 13.5845 23.2102C13.5539 23.2265 13.5224 23.2486 13.4899 23.2765ZM15.3163 23.1907V23.3604H14.3431V23.1907H15.3163ZM14.9204 22.7763V23.8099H14.74V22.7763H14.9204Z" fill="#8794BA"/>
</svg>
