<svg width="101" height="69" viewBox="0 0 101 69" fill="none" xmlns="http://www.w3.org/2000/svg">
<rect x="0.83252" y="0.604065" width="99.851" height="68.2315" rx="4.99255" fill="white"/>
<rect x="10.9844" y="58.3512" width="0.166419" height="79.5479" transform="rotate(-90 10.9844 58.3512)" fill="#EEEEF7"/>
<rect x="10.9844" y="51.5281" width="0.166419" height="79.5479" transform="rotate(-90 10.9844 51.5281)" fill="#EEEEF7"/>
<rect x="10.9844" y="44.7049" width="0.166419" height="79.5479" transform="rotate(-90 10.9844 44.7049)" fill="#EEEEF7"/>
<rect x="10.9844" y="37.8818" width="0.166419" height="79.5479" transform="rotate(-90 10.9844 37.8818)" fill="#EEEEF7"/>
<rect x="10.9844" y="31.0587" width="0.166419" height="79.5479" transform="rotate(-90 10.9844 31.0587)" fill="#EEEEF7"/>
<rect x="10.9844" y="24.2355" width="0.166419" height="79.5479" transform="rotate(-90 10.9844 24.2355)" fill="#EEEEF7"/>
<rect x="10.9844" y="17.4123" width="0.166419" height="79.5479" transform="rotate(-90 10.9844 17.4123)" fill="#EEEEF7"/>
<rect x="10.9844" y="10.5892" width="0.166419" height="79.5479" transform="rotate(-90 10.9844 10.5892)" fill="#EEEEF7"/>
<path d="M29.6151 60.0886V61.5161H29.4347V60.3138L29.071 60.4464V60.2836L29.5869 60.0886H29.6151ZM31.0407 61.1319C31.0407 61.2184 31.0206 61.2918 30.9803 61.3523C30.9406 61.4121 30.8867 61.4576 30.8184 61.4888C30.7508 61.52 30.6744 61.5356 30.5893 61.5356C30.5041 61.5356 30.4274 61.52 30.3591 61.4888C30.2909 61.4576 30.2369 61.4121 30.1973 61.3523C30.1576 61.2918 30.1378 61.2184 30.1378 61.1319C30.1378 61.0754 30.1485 61.0237 30.17 60.9769C30.1921 60.9294 30.223 60.8881 30.2626 60.853C30.3029 60.8179 30.3504 60.791 30.405 60.7721C30.4602 60.7526 30.521 60.7429 30.5873 60.7429C30.6744 60.7429 30.7521 60.7598 30.8204 60.7936C30.8886 60.8267 30.9423 60.8725 30.9813 60.931C31.0209 60.9896 31.0407 61.0565 31.0407 61.1319ZM30.8594 61.128C30.8594 61.0754 30.848 61.0289 30.8253 60.9886C30.8025 60.9476 30.7706 60.9158 30.7297 60.893C30.6887 60.8703 30.6413 60.8589 30.5873 60.8589C30.5321 60.8589 30.4843 60.8703 30.444 60.893C30.4043 60.9158 30.3735 60.9476 30.3513 60.9886C30.3292 61.0289 30.3182 61.0754 30.3182 61.128C30.3182 61.1826 30.3289 61.2294 30.3504 61.2684C30.3725 61.3068 30.4037 61.3364 30.444 61.3572C30.4849 61.3773 30.5334 61.3874 30.5893 61.3874C30.6452 61.3874 30.6933 61.3773 30.7336 61.3572C30.7739 61.3364 30.8048 61.3068 30.8262 61.2684C30.8483 61.2294 30.8594 61.1826 30.8594 61.128ZM31.0076 60.4659C31.0076 60.5348 30.9894 60.5969 30.953 60.6522C30.9166 60.7074 30.8669 60.751 30.8038 60.7828C30.7407 60.8147 30.6692 60.8306 30.5893 60.8306C30.508 60.8306 30.4355 60.8147 30.3718 60.7828C30.3088 60.751 30.2594 60.7074 30.2236 60.6522C30.1879 60.5969 30.17 60.5348 30.17 60.4659C30.17 60.3834 30.1879 60.3132 30.2236 60.2553C30.26 60.1974 30.3097 60.1532 30.3728 60.1227C30.4359 60.0921 30.5077 60.0769 30.5883 60.0769C30.6696 60.0769 30.7417 60.0921 30.8048 60.1227C30.8678 60.1532 30.9172 60.1974 30.953 60.2553C30.9894 60.3132 31.0076 60.3834 31.0076 60.4659ZM30.8272 60.4688C30.8272 60.4214 30.8171 60.3795 30.797 60.3431C30.7768 60.3067 30.7489 60.2781 30.7131 60.2572C30.6774 60.2358 30.6358 60.2251 30.5883 60.2251C30.5408 60.2251 30.4992 60.2351 30.4635 60.2553C30.4284 60.2748 30.4008 60.3028 30.3806 60.3392C30.3611 60.3756 30.3513 60.4188 30.3513 60.4688C30.3513 60.5176 30.3611 60.5602 30.3806 60.5966C30.4008 60.633 30.4287 60.6613 30.4645 60.6814C30.5002 60.7016 30.5418 60.7116 30.5893 60.7116C30.6367 60.7116 30.678 60.7016 30.7131 60.6814C30.7489 60.6613 30.7768 60.633 30.797 60.5966C30.8171 60.5602 30.8272 60.5176 30.8272 60.4688ZM31.6638 60.8384V60.9866H31.188V60.8384H31.6638ZM32.7511 61.3679V61.5161H31.8218V61.3864L32.2869 60.8686C32.3441 60.8049 32.3883 60.751 32.4196 60.7068C32.4514 60.6619 32.4735 60.6219 32.4859 60.5868C32.4989 60.5511 32.5054 60.5147 32.5054 60.4776C32.5054 60.4308 32.4956 60.3886 32.4761 60.3509C32.4573 60.3125 32.4293 60.282 32.3922 60.2592C32.3552 60.2364 32.3103 60.2251 32.2577 60.2251C32.1946 60.2251 32.142 60.2374 32.0997 60.2621C32.0581 60.2862 32.0269 60.32 32.0061 60.3635C31.9853 60.4071 31.9749 60.4571 31.9749 60.5137H31.7945C31.7945 60.4337 31.8121 60.3606 31.8472 60.2943C31.8823 60.228 31.9343 60.1753 32.0032 60.1363C32.0721 60.0967 32.1569 60.0769 32.2577 60.0769C32.3474 60.0769 32.4241 60.0928 32.4878 60.1246C32.5515 60.1558 32.6003 60.2 32.6341 60.2572C32.6685 60.3138 32.6858 60.3801 32.6858 60.4562C32.6858 60.4978 32.6786 60.54 32.6643 60.5829C32.6507 60.6252 32.6315 60.6674 32.6068 60.7097C32.5827 60.752 32.5544 60.7936 32.5219 60.8345C32.4901 60.8755 32.456 60.9158 32.4196 60.9554L32.0393 61.3679H32.7511ZM33.9037 61.0383V61.1865H32.8779V61.0802L33.5136 60.0964H33.6609L33.5029 60.3811L33.0826 61.0383H33.9037ZM33.7057 60.0964V61.5161H33.5253V60.0964H33.7057Z" fill="#8794BA"/>
<path d="M50.4208 60.7175H50.5495C50.6126 60.7175 50.6646 60.7071 50.7055 60.6863C50.7471 60.6648 50.778 60.6359 50.7982 60.5995C50.819 60.5625 50.8294 60.5209 50.8294 60.4747C50.8294 60.4201 50.8203 60.3743 50.8021 60.3372C50.7839 60.3002 50.7566 60.2722 50.7202 60.2533C50.6838 60.2345 50.6376 60.2251 50.5817 60.2251C50.531 60.2251 50.4861 60.2351 50.4471 60.2553C50.4088 60.2748 50.3786 60.3028 50.3565 60.3392C50.335 60.3756 50.3243 60.4185 50.3243 60.4679H50.1439C50.1439 60.3957 50.1621 60.3301 50.1985 60.2709C50.2349 60.2117 50.2859 60.1646 50.3516 60.1295C50.4179 60.0944 50.4946 60.0769 50.5817 60.0769C50.6675 60.0769 50.7426 60.0921 50.807 60.1227C50.8713 60.1526 50.9214 60.1974 50.9571 60.2572C50.9929 60.3164 51.0108 60.3902 51.0108 60.4786C51.0108 60.5144 51.0023 60.5527 50.9854 60.5937C50.9691 60.634 50.9435 60.6717 50.9084 60.7068C50.8739 60.7419 50.8291 60.7708 50.7738 60.7936C50.7185 60.8157 50.6522 60.8267 50.5749 60.8267H50.4208V60.7175ZM50.4208 60.8657V60.7575H50.5749C50.6652 60.7575 50.74 60.7682 50.7992 60.7897C50.8583 60.8111 50.9048 60.8397 50.9386 60.8755C50.973 60.9112 50.9971 60.9506 51.0108 60.9935C51.0251 61.0357 51.0322 61.078 51.0322 61.1202C51.0322 61.1865 51.0208 61.2454 50.9981 61.2967C50.976 61.3481 50.9444 61.3916 50.9035 61.4274C50.8632 61.4631 50.8157 61.4901 50.7611 61.5083C50.7065 61.5265 50.647 61.5356 50.5827 61.5356C50.5209 61.5356 50.4627 61.5268 50.4081 61.5093C50.3542 61.4917 50.3064 61.4664 50.2648 61.4332C50.2232 61.3994 50.1907 61.3581 50.1673 61.3094C50.1439 61.26 50.1322 61.2038 50.1322 61.1407H50.3126C50.3126 61.1901 50.3233 61.2333 50.3448 61.2704C50.3669 61.3074 50.3981 61.3364 50.4384 61.3572C50.4793 61.3773 50.5274 61.3874 50.5827 61.3874C50.6379 61.3874 50.6854 61.378 50.725 61.3591C50.7653 61.3396 50.7962 61.3104 50.8177 61.2714C50.8398 61.2324 50.8508 61.1833 50.8508 61.1241C50.8508 61.065 50.8385 61.0165 50.8138 60.9788C50.7891 60.9405 50.754 60.9122 50.7085 60.894C50.6636 60.8751 50.6106 60.8657 50.5495 60.8657H50.4208ZM51.509 60.8404L51.3647 60.8033L51.4359 60.0964H52.1643V60.2631H51.589L51.5461 60.6492C51.5721 60.6343 51.6049 60.6203 51.6446 60.6073C51.6849 60.5943 51.731 60.5878 51.783 60.5878C51.8487 60.5878 51.9075 60.5992 51.9595 60.6219C52.0115 60.644 52.0557 60.6759 52.0921 60.7175C52.1292 60.7591 52.1575 60.8092 52.177 60.8677C52.1965 60.9262 52.2062 60.9915 52.2062 61.0637C52.2062 61.1319 52.1968 61.1947 52.178 61.2519C52.1598 61.3091 52.1321 61.3591 52.0951 61.402C52.058 61.4443 52.0112 61.4771 51.9547 61.5005C51.8987 61.5239 51.8328 61.5356 51.7567 61.5356C51.6995 61.5356 51.6452 61.5278 51.5939 61.5122C51.5432 61.496 51.4977 61.4716 51.4573 61.4391C51.4177 61.4059 51.3852 61.365 51.3598 61.3162C51.3351 61.2668 51.3195 61.209 51.313 61.1426H51.4847C51.4925 61.196 51.5081 61.2408 51.5315 61.2772C51.5549 61.3136 51.5854 61.3412 51.6231 61.3601C51.6615 61.3783 51.706 61.3874 51.7567 61.3874C51.7996 61.3874 51.8376 61.3799 51.8708 61.365C51.9039 61.35 51.9319 61.3286 51.9547 61.3006C51.9774 61.2727 51.9946 61.2389 52.0063 61.1992C52.0187 61.1595 52.0249 61.115 52.0249 61.0656C52.0249 61.0208 52.0187 60.9792 52.0063 60.9408C51.994 60.9024 51.9755 60.869 51.9508 60.8404C51.9267 60.8118 51.8971 60.7897 51.862 60.7741C51.8269 60.7578 51.7866 60.7497 51.7411 60.7497C51.6806 60.7497 51.6348 60.7578 51.6036 60.7741C51.5731 60.7903 51.5415 60.8124 51.509 60.8404ZM52.7991 60.8384V60.9866H52.3232V60.8384H52.7991ZM53.9156 61.0383V61.1865H52.8898V61.0802L53.5256 60.0964H53.6728L53.5148 60.3811L53.0946 61.0383H53.9156ZM53.7176 60.0964V61.5161H53.5373V60.0964H53.7176ZM55.0389 61.0383V61.1865H54.0131V61.0802L54.6489 60.0964H54.7961L54.6381 60.3811L54.2179 61.0383H55.0389ZM54.841 60.0964V61.5161H54.6606V60.0964H54.841Z" fill="#8794BA"/>
<path d="M71.9864 60.0944H72.002V60.2475H71.9864C71.8909 60.2475 71.8109 60.2631 71.7465 60.2943C71.6822 60.3249 71.6311 60.3661 71.5934 60.4181C71.5557 60.4695 71.5284 60.5274 71.5115 60.5917C71.4953 60.6561 71.4872 60.7214 71.4872 60.7877V60.9964C71.4872 61.0594 71.4946 61.1153 71.5096 61.1641C71.5245 61.2122 71.545 61.2528 71.571 61.286C71.597 61.3191 71.6263 61.3442 71.6588 61.3611C71.6919 61.378 71.7264 61.3864 71.7621 61.3864C71.8037 61.3864 71.8408 61.3786 71.8733 61.363C71.9058 61.3468 71.9331 61.3243 71.9552 61.2957C71.978 61.2665 71.9952 61.232 72.0069 61.1924C72.0186 61.1527 72.0244 61.1092 72.0244 61.0617C72.0244 61.0195 72.0192 60.9788 72.0088 60.9398C71.9984 60.9002 71.9825 60.8651 71.9611 60.8345C71.9396 60.8033 71.9126 60.7789 71.8801 60.7614C71.8483 60.7432 71.8102 60.7341 71.766 60.7341C71.716 60.7341 71.6692 60.7464 71.6256 60.7711C71.5827 60.7952 71.5473 60.827 71.5193 60.8667C71.492 60.9057 71.4764 60.9483 71.4725 60.9944L71.377 60.9935C71.3861 60.9206 71.403 60.8586 71.4277 60.8072C71.453 60.7552 71.4842 60.713 71.5213 60.6804C71.559 60.6473 71.6009 60.6232 71.6471 60.6083C71.6939 60.5927 71.7433 60.5849 71.7953 60.5849C71.8661 60.5849 71.9273 60.5982 71.9786 60.6249C72.03 60.6515 72.0722 60.6873 72.1054 60.7321C72.1385 60.7763 72.1629 60.8264 72.1785 60.8823C72.1948 60.9375 72.2029 60.9944 72.2029 61.0529C72.2029 61.1199 72.1935 61.1826 72.1746 61.2411C72.1558 61.2996 72.1275 61.351 72.0898 61.3952C72.0527 61.4394 72.0069 61.4739 71.9523 61.4986C71.8977 61.5233 71.8343 61.5356 71.7621 61.5356C71.6854 61.5356 71.6185 61.52 71.5613 61.4888C71.5041 61.457 71.4566 61.4147 71.4189 61.362C71.3812 61.3094 71.3529 61.2509 71.3341 61.1865C71.3152 61.1222 71.3058 61.0568 71.3058 60.9905V60.9057C71.3058 60.8056 71.3159 60.7074 71.336 60.6112C71.3562 60.515 71.3909 60.4279 71.4404 60.3499C71.4904 60.2719 71.5596 60.2098 71.648 60.1636C71.7365 60.1175 71.8492 60.0944 71.9864 60.0944ZM72.6456 60.8404L72.5013 60.8033L72.5725 60.0964H73.3009V60.2631H72.7255L72.6826 60.6492C72.7086 60.6343 72.7415 60.6203 72.7811 60.6073C72.8214 60.5943 72.8676 60.5878 72.9196 60.5878C72.9852 60.5878 73.0441 60.5992 73.0961 60.6219C73.1481 60.644 73.1923 60.6759 73.2287 60.7175C73.2658 60.7591 73.294 60.8092 73.3135 60.8677C73.333 60.9262 73.3428 60.9915 73.3428 61.0637C73.3428 61.1319 73.3334 61.1947 73.3145 61.2519C73.2963 61.3091 73.2687 61.3591 73.2316 61.402C73.1946 61.4443 73.1478 61.4771 73.0912 61.5005C73.0353 61.5239 72.9693 61.5356 72.8933 61.5356C72.8361 61.5356 72.7818 61.5278 72.7304 61.5122C72.6797 61.496 72.6342 61.4716 72.5939 61.4391C72.5542 61.4059 72.5217 61.365 72.4964 61.3162C72.4717 61.2668 72.4561 61.209 72.4496 61.1426H72.6212C72.629 61.196 72.6446 61.2408 72.668 61.2772C72.6914 61.3136 72.722 61.3412 72.7597 61.3601C72.798 61.3783 72.8426 61.3874 72.8933 61.3874C72.9362 61.3874 72.9742 61.3799 73.0073 61.365C73.0405 61.35 73.0685 61.3286 73.0912 61.3006C73.114 61.2727 73.1312 61.2389 73.1429 61.1992C73.1552 61.1595 73.1614 61.115 73.1614 61.0656C73.1614 61.0208 73.1552 60.9792 73.1429 60.9408C73.1305 60.9024 73.112 60.869 73.0873 60.8404C73.0633 60.8118 73.0337 60.7897 72.9986 60.7741C72.9635 60.7578 72.9232 60.7497 72.8777 60.7497C72.8172 60.7497 72.7714 60.7578 72.7402 60.7741C72.7096 60.7903 72.6781 60.8124 72.6456 60.8404ZM74.472 60.7546V60.9242H73.4988V60.7546H74.472ZM74.0761 60.3401V61.3737H73.8957V60.3401H74.0761Z" fill="#8794BA"/>
<g style="mix-blend-mode:multiply" opacity="0.45">
<circle cx="26.6271" cy="25.4004" r="8.32091" fill="#0088F0"/>
</g>
<g style="mix-blend-mode:multiply">
<circle cx="32.369" cy="33.6381" r="5.57501" fill="#EF2A82"/>
</g>
<g style="mix-blend-mode:multiply">
<circle cx="70.9778" cy="32.3068" r="12.2317" fill="#EF2A82"/>
</g>
<g style="mix-blend-mode:multiply" opacity="0.6">
<circle cx="58.9955" cy="41.127" r="6.4071" fill="#0088F0"/>
</g>
<g style="mix-blend-mode:multiply">
<circle cx="50.675" cy="17.9948" r="2.91232" fill="#0088F0"/>
</g>
<g style="mix-blend-mode:multiply">
<circle cx="24.547" cy="51.4449" r="1.24814" fill="#EF2A82"/>
</g>
<g style="mix-blend-mode:multiply">
<circle cx="80.1307" cy="44.4553" r="5.57501" fill="#0088F0"/>
</g>
</svg>
