<svg width="101" height="69" viewBox="0 0 101 69" fill="none" xmlns="http://www.w3.org/2000/svg">
<rect x="0.65625" y="0.484375" width="99.851" height="68.2315" rx="4.99255" fill="white"/>
<rect x="17.1318" y="12.4664" width="0.166418" height="45.0994" fill="#EEEEF7"/>
<rect x="27.6162" y="12.4664" width="0.166418" height="45.0994" fill="#EEEEF7"/>
<rect x="38.1006" y="12.4664" width="0.166418" height="45.0994" fill="#EEEEF7"/>
<rect x="48.5845" y="12.4664" width="0.166418" height="45.0994" fill="#EEEEF7"/>
<rect x="59.0688" y="12.4664" width="0.166418" height="45.0994" fill="#EEEEF7"/>
<rect x="69.5532" y="12.4664" width="0.166418" height="45.0994" fill="#EEEEF7"/>
<rect x="80.0376" y="12.4664" width="0.166418" height="45.0994" fill="#EEEEF7"/>
<rect x="90.522" y="12.4664" width="0.166418" height="45.0994" fill="#EEEEF7"/>
<path d="M10.602 15.7878L10.4577 15.7507L10.5289 15.0437H11.2573V15.2105H10.682L10.6391 15.5966C10.6651 15.5817 10.6979 15.5677 10.7376 15.5547C10.7779 15.5417 10.824 15.5352 10.876 15.5352C10.9417 15.5352 11.0005 15.5466 11.0525 15.5693C11.1045 15.5914 11.1487 15.6233 11.1851 15.6649C11.2222 15.7065 11.2505 15.7565 11.27 15.8151C11.2895 15.8736 11.2992 15.9389 11.2992 16.0111C11.2992 16.0793 11.2898 16.142 11.2709 16.1992C11.2527 16.2565 11.2251 16.3065 11.1881 16.3494C11.151 16.3917 11.1042 16.4245 11.0476 16.4479C10.9917 16.4713 10.9258 16.483 10.8497 16.483C10.7925 16.483 10.7382 16.4752 10.6868 16.4596C10.6361 16.4433 10.5906 16.419 10.5503 16.3865C10.5107 16.3533 10.4782 16.3124 10.4528 16.2636C10.4281 16.2142 10.4125 16.1563 10.406 16.09H10.5776C10.5854 16.1433 10.601 16.1882 10.6244 16.2246C10.6478 16.261 10.6784 16.2886 10.7161 16.3075C10.7545 16.3257 10.799 16.3348 10.8497 16.3348C10.8926 16.3348 10.9306 16.3273 10.9638 16.3124C10.9969 16.2974 11.0249 16.276 11.0476 16.248C11.0704 16.22 11.0876 16.1862 11.0993 16.1466C11.1117 16.1069 11.1178 16.0624 11.1178 16.013C11.1178 15.9681 11.1117 15.9265 11.0993 15.8882C11.087 15.8498 11.0684 15.8164 11.0437 15.7878C11.0197 15.7591 10.9901 15.737 10.955 15.7214C10.9199 15.7052 10.8796 15.6971 10.8341 15.6971C10.7736 15.6971 10.7278 15.7052 10.6966 15.7214C10.666 15.7377 10.6345 15.7598 10.602 15.7878ZM12.4567 15.9857V16.1339H11.4309V16.0276L12.0666 15.0437H12.2139L12.0559 15.3285L11.6356 15.9857H12.4567ZM12.2587 15.0437V16.4635H12.0783V15.0437H12.2587ZM13.0154 15.7858V15.934H12.5396V15.7858H13.0154ZM13.8647 15.0418H13.8803V15.1949H13.8647C13.7692 15.1949 13.6892 15.2105 13.6248 15.2417C13.5605 15.2722 13.5095 15.3135 13.4718 15.3655C13.4341 15.4169 13.4067 15.4747 13.3898 15.5391C13.3736 15.6035 13.3655 15.6688 13.3655 15.7351V15.9438C13.3655 16.0068 13.3729 16.0627 13.3879 16.1115C13.4028 16.1596 13.4233 16.2002 13.4493 16.2334C13.4753 16.2665 13.5046 16.2916 13.5371 16.3085C13.5702 16.3254 13.6047 16.3338 13.6404 16.3338C13.6821 16.3338 13.7191 16.326 13.7516 16.3104C13.7841 16.2942 13.8114 16.2717 13.8335 16.2431C13.8563 16.2139 13.8735 16.1794 13.8852 16.1398C13.8969 16.1001 13.9028 16.0566 13.9028 16.0091C13.9028 15.9668 13.8976 15.9262 13.8872 15.8872C13.8768 15.8476 13.8608 15.8125 13.8394 15.7819C13.8179 15.7507 13.7909 15.7263 13.7584 15.7088C13.7266 15.6906 13.6886 15.6815 13.6443 15.6815C13.5943 15.6815 13.5475 15.6938 13.5039 15.7185C13.461 15.7426 13.4256 15.7744 13.3976 15.8141C13.3703 15.8531 13.3547 15.8957 13.3508 15.9418L13.2553 15.9408C13.2644 15.868 13.2813 15.806 13.306 15.7546C13.3313 15.7026 13.3625 15.6603 13.3996 15.6278C13.4373 15.5947 13.4792 15.5706 13.5254 15.5557C13.5722 15.5401 13.6216 15.5323 13.6736 15.5323C13.7445 15.5323 13.8056 15.5456 13.8569 15.5723C13.9083 15.5989 13.9505 15.6347 13.9837 15.6795C14.0168 15.7237 14.0412 15.7738 14.0568 15.8297C14.0731 15.8849 14.0812 15.9418 14.0812 16.0003C14.0812 16.0673 14.0718 16.13 14.0529 16.1885C14.0341 16.247 14.0058 16.2984 13.9681 16.3426C13.931 16.3868 13.8852 16.4212 13.8306 16.4459C13.776 16.4707 13.7126 16.483 13.6404 16.483C13.5637 16.483 13.4968 16.4674 13.4396 16.4362C13.3824 16.4043 13.3349 16.3621 13.2972 16.3094C13.2595 16.2568 13.2312 16.1983 13.2124 16.1339C13.1935 16.0696 13.1841 16.0042 13.1841 15.9379V15.8531C13.1841 15.753 13.1942 15.6548 13.2143 15.5586C13.2345 15.4624 13.2693 15.3753 13.3187 15.2973C13.3687 15.2193 13.438 15.1572 13.5264 15.111C13.6148 15.0649 13.7276 15.0418 13.8647 15.0418ZM14.5239 15.7878L14.3796 15.7507L14.4508 15.0437H15.1792V15.2105H14.6039L14.561 15.5966C14.587 15.5817 14.6198 15.5677 14.6594 15.5547C14.6997 15.5417 14.7459 15.5352 14.7979 15.5352C14.8636 15.5352 14.9224 15.5466 14.9744 15.5693C15.0264 15.5914 15.0706 15.6233 15.107 15.6649C15.1441 15.7065 15.1723 15.7565 15.1918 15.8151C15.2113 15.8736 15.2211 15.9389 15.2211 16.0111C15.2211 16.0793 15.2117 16.142 15.1928 16.1992C15.1746 16.2565 15.147 16.3065 15.1099 16.3494C15.0729 16.3917 15.0261 16.4245 14.9695 16.4479C14.9136 16.4713 14.8476 16.483 14.7716 16.483C14.7144 16.483 14.6601 16.4752 14.6087 16.4596C14.558 16.4433 14.5125 16.419 14.4722 16.3865C14.4326 16.3533 14.4001 16.3124 14.3747 16.2636C14.35 16.2142 14.3344 16.1563 14.3279 16.09H14.4995C14.5073 16.1433 14.5229 16.1882 14.5463 16.2246C14.5697 16.261 14.6003 16.2886 14.638 16.3075C14.6763 16.3257 14.7209 16.3348 14.7716 16.3348C14.8145 16.3348 14.8525 16.3273 14.8857 16.3124C14.9188 16.2974 14.9468 16.276 14.9695 16.248C14.9923 16.22 15.0095 16.1862 15.0212 16.1466C15.0336 16.1069 15.0397 16.0624 15.0397 16.013C15.0397 15.9681 15.0336 15.9265 15.0212 15.8882C15.0088 15.8498 14.9903 15.8164 14.9656 15.7878C14.9416 15.7591 14.912 15.737 14.8769 15.7214C14.8418 15.7052 14.8015 15.6971 14.756 15.6971C14.6955 15.6971 14.6497 15.7052 14.6185 15.7214C14.5879 15.7377 14.5564 15.7598 14.5239 15.7878Z" fill="#8794BA"/>
<path d="M11.3333 25.3052V25.4534H10.3075V25.3471L10.9433 24.3632H11.0905L10.9326 24.6479L10.5123 25.3052H11.3333ZM11.1354 24.3632V25.783H10.955V24.3632H11.1354ZM11.7253 25.1072L11.581 25.0702L11.6522 24.3632H12.3806V24.5299H11.8053L11.7624 24.9161C11.7884 24.9011 11.8212 24.8872 11.8609 24.8742C11.9012 24.8612 11.9473 24.8547 11.9993 24.8547C12.065 24.8547 12.1238 24.866 12.1758 24.8888C12.2278 24.9109 12.272 24.9427 12.3085 24.9843C12.3455 25.026 12.3738 25.076 12.3933 25.1345C12.4128 25.193 12.4225 25.2584 12.4225 25.3305C12.4225 25.3988 12.4131 25.4615 12.3943 25.5187C12.3761 25.5759 12.3484 25.626 12.3114 25.6689C12.2743 25.7111 12.2275 25.744 12.171 25.7674C12.1151 25.7908 12.0491 25.8025 11.973 25.8025C11.9158 25.8025 11.8615 25.7947 11.8102 25.7791C11.7595 25.7628 11.714 25.7384 11.6737 25.7059C11.634 25.6728 11.6015 25.6318 11.5761 25.5831C11.5514 25.5337 11.5358 25.4758 11.5293 25.4095H11.701C11.7088 25.4628 11.7244 25.5077 11.7478 25.5441C11.7712 25.5805 11.8017 25.6081 11.8394 25.6269C11.8778 25.6451 11.9223 25.6542 11.973 25.6542C12.0159 25.6542 12.0539 25.6468 12.0871 25.6318C12.1203 25.6169 12.1482 25.5954 12.171 25.5675C12.1937 25.5395 12.2109 25.5057 12.2226 25.466C12.235 25.4264 12.2412 25.3819 12.2412 25.3325C12.2412 25.2876 12.235 25.246 12.2226 25.2076C12.2103 25.1693 12.1918 25.1358 12.1671 25.1072C12.143 25.0786 12.1134 25.0565 12.0783 25.0409C12.0432 25.0247 12.0029 25.0165 11.9574 25.0165C11.897 25.0165 11.8511 25.0247 11.8199 25.0409C11.7894 25.0572 11.7578 25.0793 11.7253 25.1072ZM13.0154 25.1053V25.2535H12.5396V25.1053H13.0154ZM13.4006 25.1072L13.2563 25.0702L13.3274 24.3632H14.0558V24.5299H13.4805L13.4376 24.9161C13.4636 24.9011 13.4965 24.8872 13.5361 24.8742C13.5764 24.8612 13.6226 24.8547 13.6746 24.8547C13.7402 24.8547 13.7991 24.866 13.8511 24.8888C13.9031 24.9109 13.9473 24.9427 13.9837 24.9843C14.0207 25.026 14.049 25.076 14.0685 25.1345C14.088 25.193 14.0978 25.2584 14.0978 25.3305C14.0978 25.3988 14.0883 25.4615 14.0695 25.5187C14.0513 25.5759 14.0237 25.626 13.9866 25.6689C13.9496 25.7111 13.9028 25.744 13.8462 25.7674C13.7903 25.7908 13.7243 25.8025 13.6482 25.8025C13.591 25.8025 13.5368 25.7947 13.4854 25.7791C13.4347 25.7628 13.3892 25.7384 13.3489 25.7059C13.3092 25.6728 13.2767 25.6318 13.2514 25.5831C13.2267 25.5337 13.2111 25.4758 13.2046 25.4095H13.3762C13.384 25.4628 13.3996 25.5077 13.423 25.5441C13.4464 25.5805 13.477 25.6081 13.5147 25.6269C13.553 25.6451 13.5975 25.6542 13.6482 25.6542C13.6912 25.6542 13.7292 25.6468 13.7623 25.6318C13.7955 25.6169 13.8234 25.5954 13.8462 25.5675C13.8689 25.5395 13.8862 25.5057 13.8979 25.466C13.9102 25.4264 13.9164 25.3819 13.9164 25.3325C13.9164 25.2876 13.9102 25.246 13.8979 25.2076C13.8855 25.1693 13.867 25.1358 13.8423 25.1072C13.8182 25.0786 13.7887 25.0565 13.7536 25.0409C13.7185 25.0247 13.6782 25.0165 13.6326 25.0165C13.5722 25.0165 13.5264 25.0247 13.4952 25.0409C13.4646 25.0572 13.4331 25.0793 13.4006 25.1072ZM15.2552 25.3052V25.4534H14.2294V25.3471L14.8652 24.3632H15.0124L14.8545 24.6479L14.4342 25.3052H15.2552ZM15.0573 24.3632V25.783H14.8769V24.3632H15.0573Z" fill="#8794BA"/>
<path d="M10.6371 34.3038H10.7658C10.8289 34.3038 10.8809 34.2934 10.9219 34.2726C10.9635 34.2511 10.9943 34.2222 11.0145 34.1858C11.0353 34.1488 11.0457 34.1072 11.0457 34.061C11.0457 34.0064 11.0366 33.9606 11.0184 33.9235C11.0002 33.8865 10.9729 33.8585 10.9365 33.8397C10.9001 33.8208 10.8539 33.8114 10.798 33.8114C10.7473 33.8114 10.7025 33.8215 10.6634 33.8416C10.6251 33.8611 10.5949 33.8891 10.5728 33.9255C10.5513 33.9619 10.5406 34.0048 10.5406 34.0542H10.3602C10.3602 33.982 10.3784 33.9164 10.4148 33.8572C10.4512 33.798 10.5022 33.7509 10.5679 33.7158C10.6342 33.6807 10.7109 33.6632 10.798 33.6632C10.8838 33.6632 10.9589 33.6784 11.0233 33.709C11.0876 33.7389 11.1377 33.7837 11.1734 33.8436C11.2092 33.9027 11.2271 33.9765 11.2271 34.0649C11.2271 34.1007 11.2186 34.139 11.2017 34.18C11.1855 34.2203 11.1598 34.258 11.1247 34.2931C11.0902 34.3282 11.0454 34.3571 10.9901 34.3799C10.9349 34.402 10.8685 34.413 10.7912 34.413H10.6371V34.3038ZM10.6371 34.452V34.3438H10.7912C10.8815 34.3438 10.9563 34.3545 11.0155 34.376C11.0746 34.3974 11.1211 34.426 11.1549 34.4618C11.1894 34.4975 11.2134 34.5369 11.2271 34.5798C11.2414 34.622 11.2485 34.6643 11.2485 34.7065C11.2485 34.7728 11.2371 34.8317 11.2144 34.883C11.1923 34.9344 11.1608 34.9779 11.1198 35.0137C11.0795 35.0494 11.032 35.0764 10.9774 35.0946C10.9228 35.1128 10.8633 35.1219 10.799 35.1219C10.7372 35.1219 10.679 35.1131 10.6244 35.0956C10.5705 35.078 10.5227 35.0527 10.4811 35.0195C10.4395 34.9857 10.407 34.9444 10.3836 34.8957C10.3602 34.8463 10.3485 34.7901 10.3485 34.727H10.5289C10.5289 34.7764 10.5396 34.8196 10.5611 34.8567C10.5832 34.8937 10.6144 34.9227 10.6547 34.9435C10.6956 34.9636 10.7437 34.9737 10.799 34.9737C10.8542 34.9737 10.9017 34.9643 10.9414 34.9454C10.9817 34.9259 11.0125 34.8967 11.034 34.8577C11.0561 34.8187 11.0671 34.7696 11.0671 34.7104C11.0671 34.6513 11.0548 34.6028 11.0301 34.5651C11.0054 34.5268 10.9703 34.4985 10.9248 34.4803C10.8799 34.4614 10.8269 34.452 10.7658 34.452H10.6371ZM11.7253 34.4267L11.581 34.3896L11.6522 33.6827H12.3806V33.8494H11.8053L11.7624 34.2355C11.7884 34.2206 11.8212 34.2066 11.8609 34.1936C11.9012 34.1806 11.9473 34.1741 11.9993 34.1741C12.065 34.1741 12.1238 34.1855 12.1758 34.2082C12.2278 34.2303 12.272 34.2622 12.3085 34.3038C12.3455 34.3454 12.3738 34.3955 12.3933 34.454C12.4128 34.5125 12.4225 34.5778 12.4225 34.65C12.4225 34.7182 12.4131 34.781 12.3943 34.8382C12.3761 34.8954 12.3484 34.9454 12.3114 34.9883C12.2743 35.0306 12.2275 35.0634 12.171 35.0868C12.1151 35.1102 12.0491 35.1219 11.973 35.1219C11.9158 35.1219 11.8615 35.1141 11.8102 35.0985C11.7595 35.0823 11.714 35.0579 11.6737 35.0254C11.634 34.9922 11.6015 34.9513 11.5761 34.9025C11.5514 34.8531 11.5358 34.7953 11.5293 34.729H11.701C11.7088 34.7823 11.7244 34.8271 11.7478 34.8635C11.7712 34.8999 11.8017 34.9275 11.8394 34.9464C11.8778 34.9646 11.9223 34.9737 11.973 34.9737C12.0159 34.9737 12.0539 34.9662 12.0871 34.9513C12.1203 34.9363 12.1482 34.9149 12.171 34.8869C12.1937 34.859 12.2109 34.8252 12.2226 34.7855C12.235 34.7459 12.2412 34.7013 12.2412 34.6519C12.2412 34.6071 12.235 34.5655 12.2226 34.5271C12.2103 34.4887 12.1918 34.4553 12.1671 34.4267C12.143 34.3981 12.1134 34.376 12.0783 34.3604C12.0432 34.3441 12.0029 34.336 11.9574 34.336C11.897 34.336 11.8511 34.3441 11.8199 34.3604C11.7894 34.3766 11.7578 34.3987 11.7253 34.4267ZM13.0154 34.4247V34.5729H12.5396V34.4247H13.0154ZM14.1319 34.6246V34.7728H13.1061V34.6665L13.7419 33.6827H13.8891L13.7311 33.9674L13.3109 34.6246H14.1319ZM13.934 33.6827V35.1024H13.7536V33.6827H13.934ZM15.2552 34.6246V34.7728H14.2294V34.6665L14.8652 33.6827H15.0124L14.8545 33.9674L14.4342 34.6246H15.2552ZM15.0573 33.6827V35.1024H14.8769V33.6827H15.0573Z" fill="#8794BA"/>
<path d="M11.3041 44.2735V44.4218H10.3748V44.2921L10.8399 43.7743C10.8971 43.7106 10.9414 43.6566 10.9726 43.6124C11.0044 43.5676 11.0265 43.5276 11.0389 43.4925C11.0519 43.4567 11.0584 43.4203 11.0584 43.3833C11.0584 43.3365 11.0486 43.2942 11.0291 43.2565C11.0103 43.2181 10.9823 43.1876 10.9453 43.1648C10.9082 43.1421 10.8633 43.1307 10.8107 43.1307C10.7476 43.1307 10.695 43.1431 10.6527 43.1678C10.6111 43.1918 10.5799 43.2256 10.5591 43.2692C10.5383 43.3127 10.5279 43.3628 10.5279 43.4193H10.3475C10.3475 43.3394 10.3651 43.2663 10.4002 43.1999C10.4353 43.1336 10.4873 43.081 10.5562 43.042C10.6251 43.0023 10.7099 42.9825 10.8107 42.9825C10.9004 42.9825 10.9771 42.9984 11.0408 43.0303C11.1045 43.0615 11.1533 43.1057 11.1871 43.1629C11.2215 43.2194 11.2388 43.2858 11.2388 43.3618C11.2388 43.4034 11.2316 43.4457 11.2173 43.4886C11.2037 43.5308 11.1845 43.5731 11.1598 43.6153C11.1357 43.6576 11.1074 43.6992 11.0749 43.7402C11.0431 43.7811 11.009 43.8214 10.9726 43.8611L10.5923 44.2735H11.3041ZM11.7253 43.746L11.581 43.7089L11.6522 43.002H12.3806V43.1687H11.8053L11.7624 43.5549C11.7884 43.5399 11.8212 43.526 11.8609 43.513C11.9012 43.5 11.9473 43.4935 11.9993 43.4935C12.065 43.4935 12.1238 43.5048 12.1758 43.5276C12.2278 43.5497 12.272 43.5815 12.3085 43.6231C12.3455 43.6647 12.3738 43.7148 12.3933 43.7733C12.4128 43.8318 12.4225 43.8971 12.4225 43.9693C12.4225 44.0376 12.4131 44.1003 12.3943 44.1575C12.3761 44.2147 12.3484 44.2648 12.3114 44.3077C12.2743 44.3499 12.2275 44.3827 12.171 44.4062C12.1151 44.4296 12.0491 44.4413 11.973 44.4413C11.9158 44.4413 11.8615 44.4335 11.8102 44.4179C11.7595 44.4016 11.714 44.3772 11.6737 44.3447C11.634 44.3116 11.6015 44.2706 11.5761 44.2219C11.5514 44.1725 11.5358 44.1146 11.5293 44.0483H11.701C11.7088 44.1016 11.7244 44.1464 11.7478 44.1829C11.7712 44.2193 11.8017 44.2469 11.8394 44.2657C11.8778 44.2839 11.9223 44.293 11.973 44.293C12.0159 44.293 12.0539 44.2856 12.0871 44.2706C12.1203 44.2557 12.1482 44.2342 12.171 44.2063C12.1937 44.1783 12.2109 44.1445 12.2226 44.1048C12.235 44.0652 12.2412 44.0207 12.2412 43.9713C12.2412 43.9264 12.235 43.8848 12.2226 43.8464C12.2103 43.8081 12.1918 43.7746 12.1671 43.746C12.143 43.7174 12.1134 43.6953 12.0783 43.6797C12.0432 43.6634 12.0029 43.6553 11.9574 43.6553C11.897 43.6553 11.8511 43.6634 11.8199 43.6797C11.7894 43.6959 11.7578 43.7181 11.7253 43.746ZM13.0154 43.7441V43.8923H12.5396V43.7441H13.0154ZM13.4357 43.6231H13.5644C13.6274 43.6231 13.6795 43.6127 13.7204 43.5919C13.762 43.5705 13.7929 43.5416 13.813 43.5052C13.8338 43.4681 13.8442 43.4265 13.8442 43.3803C13.8442 43.3257 13.8351 43.2799 13.8169 43.2428C13.7987 43.2058 13.7714 43.1778 13.735 43.159C13.6986 43.1401 13.6525 43.1307 13.5966 43.1307C13.5459 43.1307 13.501 43.1408 13.462 43.1609C13.4237 43.1804 13.3934 43.2084 13.3713 43.2448C13.3499 43.2812 13.3391 43.3241 13.3391 43.3735H13.1587C13.1587 43.3014 13.1769 43.2357 13.2134 43.1765C13.2498 43.1174 13.3008 43.0703 13.3664 43.0352C13.4328 43 13.5095 42.9825 13.5966 42.9825C13.6824 42.9825 13.7575 42.9978 13.8218 43.0283C13.8862 43.0582 13.9362 43.1031 13.972 43.1629C14.0077 43.222 14.0256 43.2958 14.0256 43.3842C14.0256 43.42 14.0172 43.4583 14.0003 43.4993C13.984 43.5396 13.9583 43.5773 13.9232 43.6124C13.8888 43.6475 13.8439 43.6764 13.7887 43.6992C13.7334 43.7213 13.6671 43.7324 13.5897 43.7324H13.4357V43.6231ZM13.4357 43.7714V43.6631H13.5897C13.6801 43.6631 13.7549 43.6738 13.814 43.6953C13.8732 43.7168 13.9197 43.7454 13.9535 43.7811C13.9879 43.8169 14.012 43.8562 14.0256 43.8991C14.0399 43.9414 14.0471 43.9836 14.0471 44.0259C14.0471 44.0922 14.0357 44.151 14.0129 44.2024C13.9908 44.2537 13.9593 44.2973 13.9184 44.333C13.8781 44.3688 13.8306 44.3958 13.776 44.414C13.7214 44.4322 13.6619 44.4413 13.5975 44.4413C13.5358 44.4413 13.4776 44.4325 13.423 44.4149C13.369 44.3974 13.3213 44.372 13.2797 44.3389C13.2381 44.3051 13.2056 44.2638 13.1821 44.215C13.1587 44.1656 13.147 44.1094 13.147 44.0463H13.3274C13.3274 44.0957 13.3382 44.139 13.3596 44.176C13.3817 44.2131 13.4129 44.242 13.4532 44.2628C13.4942 44.283 13.5423 44.293 13.5975 44.293C13.6528 44.293 13.7003 44.2836 13.7399 44.2648C13.7802 44.2453 13.8111 44.216 13.8325 44.177C13.8546 44.138 13.8657 44.0889 13.8657 44.0298C13.8657 43.9706 13.8533 43.9222 13.8286 43.8845C13.8039 43.8461 13.7688 43.8178 13.7233 43.7996C13.6785 43.7808 13.6255 43.7714 13.5644 43.7714H13.4357ZM15.2552 43.944V44.0922H14.2294V43.9859L14.8652 43.002H15.0124L14.8545 43.2867L14.4342 43.944H15.2552ZM15.0573 43.002V44.4218H14.8769V43.002H15.0573Z" fill="#8794BA"/>
<path d="M10.9667 52.3137V53.7412H10.7863V52.5389L10.4226 52.6715V52.5087L10.9384 52.3137H10.9667ZM12.3923 53.357C12.3923 53.4435 12.3722 53.5169 12.3319 53.5774C12.2922 53.6372 12.2382 53.6827 12.17 53.7139C12.1024 53.7451 12.026 53.7607 11.9408 53.7607C11.8557 53.7607 11.779 53.7451 11.7107 53.7139C11.6425 53.6827 11.5885 53.6372 11.5488 53.5774C11.5092 53.5169 11.4894 53.4435 11.4894 53.357C11.4894 53.3005 11.5001 53.2488 11.5215 53.202C11.5436 53.1545 11.5745 53.1132 11.6142 53.0781C11.6545 53.043 11.7019 53.0161 11.7565 52.9972C11.8118 52.9777 11.8726 52.968 11.9389 52.968C12.026 52.968 12.1037 52.9849 12.1719 53.0187C12.2402 53.0518 12.2938 53.0976 12.3328 53.1561C12.3725 53.2147 12.3923 53.2816 12.3923 53.357ZM12.2109 53.3531C12.2109 53.3005 12.1996 53.254 12.1768 53.2137C12.1541 53.1727 12.1222 53.1409 12.0813 53.1181C12.0403 53.0954 11.9928 53.084 11.9389 53.084C11.8836 53.084 11.8359 53.0954 11.7955 53.1181C11.7559 53.1409 11.725 53.1727 11.7029 53.2137C11.6808 53.254 11.6698 53.3005 11.6698 53.3531C11.6698 53.4077 11.6805 53.4545 11.7019 53.4935C11.724 53.5319 11.7552 53.5615 11.7955 53.5823C11.8365 53.6024 11.8849 53.6125 11.9408 53.6125C11.9967 53.6125 12.0448 53.6024 12.0852 53.5823C12.1255 53.5615 12.1563 53.5319 12.1778 53.4935C12.1999 53.4545 12.2109 53.4077 12.2109 53.3531ZM12.3592 52.691C12.3592 52.7599 12.341 52.822 12.3046 52.8773C12.2681 52.9325 12.2184 52.9761 12.1554 53.0079C12.0923 53.0398 12.0208 53.0557 11.9408 53.0557C11.8596 53.0557 11.7871 53.0398 11.7234 53.0079C11.6603 52.9761 11.6109 52.9325 11.5752 52.8773C11.5394 52.822 11.5215 52.7599 11.5215 52.691C11.5215 52.6085 11.5394 52.5383 11.5752 52.4804C11.6116 52.4225 11.6613 52.3783 11.7244 52.3478C11.7874 52.3172 11.8593 52.302 11.9399 52.302C12.0211 52.302 12.0933 52.3172 12.1563 52.3478C12.2194 52.3783 12.2688 52.4225 12.3046 52.4804C12.341 52.5383 12.3592 52.6085 12.3592 52.691ZM12.1788 52.6939C12.1788 52.6465 12.1687 52.6046 12.1485 52.5682C12.1284 52.5318 12.1004 52.5031 12.0647 52.4823C12.0289 52.4609 11.9873 52.4502 11.9399 52.4502C11.8924 52.4502 11.8508 52.4602 11.815 52.4804C11.7799 52.4999 11.7523 52.5279 11.7322 52.5643C11.7127 52.6007 11.7029 52.6439 11.7029 52.6939C11.7029 52.7427 11.7127 52.7853 11.7322 52.8217C11.7523 52.8581 11.7803 52.8864 11.816 52.9065C11.8518 52.9267 11.8934 52.9367 11.9408 52.9367C11.9883 52.9367 12.0296 52.9267 12.0647 52.9065C12.1004 52.8864 12.1284 52.8581 12.1485 52.8217C12.1687 52.7853 12.1788 52.7427 12.1788 52.6939ZM13.0154 53.0635V53.2117H12.5396V53.0635H13.0154ZM14.1026 53.593V53.7412H13.1734V53.6115L13.6385 53.0937C13.6957 53.03 13.7399 52.9761 13.7711 52.9319C13.803 52.887 13.8251 52.847 13.8374 52.8119C13.8504 52.7762 13.8569 52.7398 13.8569 52.7027C13.8569 52.6559 13.8472 52.6137 13.8277 52.576C13.8088 52.5376 13.7809 52.5071 13.7438 52.4843C13.7068 52.4615 13.6619 52.4502 13.6092 52.4502C13.5462 52.4502 13.4935 52.4625 13.4513 52.4872C13.4097 52.5113 13.3785 52.5451 13.3577 52.5886C13.3369 52.6322 13.3265 52.6822 13.3265 52.7388H13.1461C13.1461 52.6588 13.1636 52.5857 13.1987 52.5194C13.2338 52.4531 13.2858 52.4004 13.3547 52.3614C13.4237 52.3218 13.5085 52.302 13.6092 52.302C13.699 52.302 13.7757 52.3179 13.8394 52.3497C13.9031 52.3809 13.9518 52.4251 13.9856 52.4823C14.0201 52.5389 14.0373 52.6052 14.0373 52.6813C14.0373 52.7229 14.0302 52.7651 14.0159 52.808C14.0022 52.8503 13.983 52.8925 13.9583 52.9348C13.9343 52.9771 13.906 53.0187 13.8735 53.0596C13.8416 53.1006 13.8075 53.1409 13.7711 53.1805L13.3908 53.593H14.1026ZM15.2552 53.2634V53.4116H14.2294V53.3053L14.8652 52.3215H15.0124L14.8545 52.6062L14.4342 53.2634H15.2552ZM15.0573 52.3215V53.7412H14.8769V52.3215H15.0573Z" fill="#8794BA"/>
<path d="M17.1318 13.6313H59.8181C60.3236 13.6313 60.7334 14.0411 60.7334 14.5466V14.5466C60.7334 15.0522 60.3236 15.4619 59.8181 15.4619H17.1318V13.6313Z" fill="#EF2A82"/>
<path d="M17.1318 23.1173H45.3397C45.8452 23.1173 46.255 23.5271 46.255 24.0326V24.0326C46.255 24.5381 45.8452 24.9479 45.3397 24.9479H17.1318V23.1173Z" fill="#EF2A82"/>
<path d="M17.1318 32.6031H18.8792C19.3847 32.6031 19.7945 33.0129 19.7945 33.5184V33.5184C19.7945 34.024 19.3847 34.4338 18.8792 34.4338H17.1318V32.6031Z" fill="#EF2A82"/>
<path d="M17.1318 42.0889H24.2046C24.7101 42.0889 25.1199 42.4987 25.1199 43.0042V43.0042C25.1199 43.5097 24.7101 43.9195 24.2046 43.9195H17.1318V42.0889Z" fill="#EF2A82"/>
<path d="M17.1318 51.5747H50.8315C51.337 51.5747 51.7468 51.9845 51.7468 52.49V52.49C51.7468 52.9955 51.337 53.4053 50.8315 53.4053H17.1318V51.5747Z" fill="#EF2A82"/>
<path d="M17.1318 15.9613H40.8464C41.3519 15.9613 41.7617 16.3711 41.7617 16.8766V16.8766C41.7617 17.3821 41.3519 17.7919 40.8464 17.7919H17.1318V15.9613Z" fill="#0088F0"/>
<path d="M17.1318 25.447H50.8315C51.337 25.447 51.7468 25.8568 51.7468 26.3623V26.3623C51.7468 26.8678 51.337 27.2776 50.8315 27.2776H17.1318V25.447Z" fill="#0088F0"/>
<path d="M17.1318 34.933H24.2046C24.7101 34.933 25.1199 35.3428 25.1199 35.8483V35.8483C25.1199 36.3538 24.7101 36.7636 24.2046 36.7636H17.1318V34.933Z" fill="#0088F0"/>
<path d="M17.1318 44.4188H72.6323C73.1378 44.4188 73.5476 44.8286 73.5476 45.3341V45.3341C73.5476 45.8396 73.1378 46.2494 72.6323 46.2494H17.1318V44.4188Z" fill="#0088F0"/>
<path d="M17.1318 53.9047H82.1182C82.6237 53.9047 83.0335 54.3145 83.0335 54.82V54.82C83.0335 55.3255 82.6237 55.7353 82.1182 55.7353H17.1318V53.9047Z" fill="#0088F0"/>
</svg>
